<?xml version="1.0" encoding="utf-8"?>
<!-- Generator: Adobe Illustrator 20.1.0, SVG Export Plug-In . SVG Version: 6.00 Build 0)  -->
<svg version="1.1" id="Layer_1" xmlns="http://www.w3.org/2000/svg" xmlns:xlink="http://www.w3.org/1999/xlink" x="0px" y="0px"
	 viewBox="0 0 10 10" style="enable-background:new 0 0 10 10;" xml:space="preserve">
<title>Untitled-1</title>
<path d="M5,0C2.2,0,0,2.2,0,5s2.2,5,5,5s5-2.2,5-5C10,2.2,7.8,0,5,0z M7,7C6.9,7.1,6.7,7.2,6.6,7.2C6.4,7.2,6.3,7.1,6.1,7L4.6,5.5
	C4.5,5.4,4.3,5.2,4.3,4.9V2c0-0.4,0.3-0.6,0.6-0.6c0.4,0,0.6,0.3,0.6,0.6v2.6L7,6C7.3,6.3,7.3,6.7,7,7z"/>
</svg>
