<?xml version="1.0" encoding="utf-8"?>
<!-- Generator: Adobe Illustrator 20.1.0, SVG Export Plug-In . SVG Version: 6.00 Build 0)  -->
<svg version="1.1" id="Layer_1" xmlns="http://www.w3.org/2000/svg" xmlns:xlink="http://www.w3.org/1999/xlink" x="0px" y="0px"
	 viewBox="0 0 10 10" style="enable-background:new 0 0 10 10;" xml:space="preserve">
<title>Untitled-1</title>
<path d="M5,0C2.2,0,0,2.2,0,5s2.2,5,5,5s5-2.2,5-5C10,2.2,7.8,0,5,0z M7.1,7.4L7,7.5C6.7,7.6,6.4,7.7,6.2,7.7
	c-0.3,0-0.6-0.1-0.8-0.2C5.1,7.4,4.8,7.3,4.6,7.3c-0.4,0-0.8,0.1-1.2,0.3L3.1,7.8V6.7l0.1-0.1c0.1-0.1,0.2-0.1,0.3-0.2
	c0.1-0.1,0.1-0.2,0.2-0.2C3.9,6,3.9,5.7,3.9,5.5c0-0.1,0-0.2,0-0.3H3.1V4.3h0.5C3.6,4.1,3.5,3.8,3.5,3.5c0-0.2,0-0.5,0.1-0.7
	C3.7,2.6,3.8,2.5,4,2.3C4.2,2.2,4.4,2,4.6,2c0.2-0.1,0.5-0.1,0.7-0.1c0.2,0,0.4,0,0.7,0.1C6.2,2,6.4,2.1,6.5,2.2
	c0.2,0.1,0.3,0.3,0.4,0.5C7,3,7.1,3.2,7.1,3.4l0,0.2H6l0-0.2C6,3,5.7,2.8,5.3,2.8c-0.1,0-0.2,0-0.3,0.1C4.9,2.9,4.8,2.9,4.8,3
	C4.7,3,4.6,3.1,4.6,3.2c0,0.1-0.1,0.2-0.1,0.3c0,0.3,0.1,0.6,0.1,0.8h1.2v0.9H4.9c0,0,0,0.1,0,0.1c0,0.3,0,0.6-0.2,0.8
	c0,0.1-0.1,0.2-0.1,0.2c0.1,0,0.2,0,0.2,0c0.1,0,0.2,0,0.3,0l0.3,0.1l0.3,0.1c0.1,0,0.2,0,0.2,0c0,0,0.1,0,0.1,0
	c0.2,0,0.5-0.1,0.7-0.2l0.3-0.1L7.1,7.4z"/>
</svg>
