<?xml version="1.0" encoding="utf-8"?>
<!-- Generator: Adobe Illustrator 20.1.0, SVG Export Plug-In . SVG Version: 6.00 Build 0)  -->
<svg version="1.1" id="Layer_1" xmlns="http://www.w3.org/2000/svg" xmlns:xlink="http://www.w3.org/1999/xlink" x="0px" y="0px"
	 viewBox="0 0 10 10" style="enable-background:new 0 0 10 10;" xml:space="preserve">
<title>Untitled-1</title>
<g>
	<path d="M6.6,5.7c-0.1,0-0.2,0.1-0.3,0.2C6.3,5.9,6.2,6,6.2,6.2v0c0,0.2,0,0.3,0.1,0.4c0.1,0.1,0.2,0.2,0.3,0.2
		c0.1,0,0.2-0.1,0.3-0.2C7,6.5,7.1,6.4,7.1,6.2v0c0-0.2,0-0.3-0.1-0.4C6.9,5.7,6.8,5.7,6.6,5.7z"/>
	<path d="M3.4,4.3c0.1,0,0.2-0.1,0.3-0.2C3.7,4.1,3.8,4,3.8,3.8v0c0-0.2,0-0.3-0.1-0.4C3.6,3.3,3.5,3.2,3.3,3.2
		C3.2,3.2,3.1,3.3,3,3.4C3,3.5,2.9,3.6,2.9,3.8v0c0,0.2,0,0.3,0.1,0.4C3.1,4.3,3.2,4.3,3.4,4.3z"/>
	<path d="M5,0C2.2,0,0,2.2,0,5s2.2,5,5,5s5-2.2,5-5C10,2.2,7.8,0,5,0z M2.2,4.3C2.1,4.2,2.1,4,2.1,3.8v0c0-0.2,0-0.4,0.1-0.5
		C2.2,3.1,2.3,3,2.4,2.9c0.1-0.1,0.2-0.2,0.4-0.3C3,2.5,3.2,2.5,3.4,2.5c0.2,0,0.4,0,0.5,0.1C4,2.6,4.2,2.7,4.3,2.9
		C4.4,3,4.5,3.1,4.5,3.3c0.1,0.2,0.1,0.3,0.1,0.5v0c0,0.2,0,0.4-0.1,0.5C4.5,4.5,4.4,4.6,4.3,4.7C4.2,4.8,4,4.9,3.9,5
		C3.7,5.1,3.5,5.1,3.3,5.1C3.2,5.1,3,5.1,2.8,5C2.7,4.9,2.5,4.9,2.4,4.7C2.3,4.6,2.2,4.5,2.2,4.3z M3.6,7.5h-1l3.8-4.9h1L3.6,7.5z
		 M7.9,6.2c0,0.2,0,0.3-0.1,0.5C7.8,6.9,7.7,7,7.6,7.2C7.5,7.3,7.3,7.4,7.2,7.4C7,7.5,6.8,7.5,6.6,7.5c-0.2,0-0.4,0-0.5-0.1
		C6,7.4,5.8,7.3,5.7,7.2C5.6,7,5.5,6.9,5.5,6.7C5.4,6.6,5.4,6.4,5.4,6.2v0c0-0.2,0-0.4,0.1-0.5c0.1-0.2,0.1-0.3,0.3-0.4
		C5.8,5.2,6,5.1,6.1,5c0.2-0.1,0.3-0.1,0.5-0.1c0.2,0,0.4,0,0.5,0.1c0.2,0.1,0.3,0.2,0.4,0.3c0.1,0.1,0.2,0.3,0.3,0.4
		C7.9,5.8,7.9,6,7.9,6.2L7.9,6.2z"/>
</g>
</svg>
