<?xml version="1.0" encoding="utf-8"?>
<!-- Generator: Adobe Illustrator 20.1.0, SVG Export Plug-In . SVG Version: 6.00 Build 0)  -->
<svg version="1.1" id="Layer_1" xmlns="http://www.w3.org/2000/svg" xmlns:xlink="http://www.w3.org/1999/xlink" x="0px" y="0px"
	 viewBox="0 0 382.5 127.8" style="enable-background:new 0 0 382.5 127.8;" xml:space="preserve">
<style type="text/css">
	.st0{fill:#D81939;}
	.st1{fill:#FFFFFF;}
	.st2{fill:#003D4E;}
</style>
<title>partner</title>
<g>
	<path class="st0" d="M289.1,67.2c1.1,0.8,2.7,0.8,3.8,0.2c1.2-0.7,1.9-1.9,2-3.1c0.2-1.1-0.2-2.7-1.1-3.7c-1-1.1-2.6-1.4-3.5-1.1
		c-0.5,0.1-0.9,0.3-1.5,0.8c-1.2,1.1-1.4,2.5-1.3,3.6C287.5,65.2,288.1,66.4,289.1,67.2z"/>
	<path class="st0" d="M313.8,60.2c-1.6,0-2.2,1.2-2.2,2.9v7.5c1.4,0.1,2.8,0.3,4.2,0.5v-8C315.9,61.6,315.8,60.2,313.8,60.2z"/>
	<path class="st0" d="M203.5,65.7c-0.2,0.3,0,1,0.1,1.2c0.7,1.2,2.2,1.1,3.1,1c1.6-0.3,2.8-1,3.4-3.1l-3.3,0.1
		C204.8,64.9,203.9,64.8,203.5,65.7z"/>
	<path class="st0" d="M172.1,60.4c-0.7,0.2-1.1,0.5-1.5,1c-0.6,0.7-0.7,1.6-0.6,2.2c0.1,0.9,0.7,1.5,1.5,1.9c1,0.6,2.8,0.6,3.8-0.1
		c0.7-0.5,1.1-1.3,1.1-2.1c0.1-0.8-0.2-1.5-0.8-2.1C174.7,60.4,172.9,60.2,172.1,60.4z"/>
	<path class="st0" d="M80.6,59.5c-0.5,0.1-0.9,0.3-1.5,0.8c-1.2,1.1-1.4,2.5-1.3,3.6c0.1,1.2,0.6,2.4,1.6,3.2
		c1.1,0.8,2.7,0.8,3.8,0.2c1.2-0.7,1.9-1.9,2-3.1c0.2-1.1-0.2-2.7-1.1-3.7C83.2,59.6,81.6,59.3,80.6,59.5z"/>
	<path class="st0" d="M150,59.1c-1.2,0.2-2.3,0.8-2.8,2.6h7.4C153.6,59.3,151.4,58.9,150,59.1z"/>
	<path class="st0" d="M0,0v127.8h382.5V0H0z M281,62.8c0.3-2.7,1.6-4.9,4.2-6.3c1.3-0.8,3-1.2,4.3-1.4c2.3-0.3,7.8,0,10.4,4
		c1.5,2.2,1.8,4.6,1.1,6.8c-1,3.5-3.2,5-5.9,5.9c-3.2,1.1-9,1-12.2-2.4C281.2,67.5,280.8,64.9,281,62.8z M257.2,62.7
		c0.3-2.7,1.6-4.9,4.2-6.3c1.3-0.8,3-1.2,4.3-1.4c2.3-0.3,7.8,0,10.4,4c0.6,0.9,1,1.8,1.2,2.8h-6.8c-0.2-0.4-0.4-0.8-0.7-1.2
		c-1-1.1-2.6-1.4-3.5-1.1c-0.5,0.1-0.9,0.3-1.5,0.8c-1.2,1.1-1.4,2.5-1.3,3.6c0.1,1.2,0.6,2.4,1.6,3.2c1.1,0.8,2.7,0.8,3.8,0.2
		c0.8-0.5,1.4-1.2,1.7-2h6.7c0,0.2-0.1,0.3-0.1,0.5c-1,3.5-3.2,5-5.9,5.9c-3.2,1.1-9,1-12.2-2.4C257.4,67.5,257,64.9,257.2,62.7z
		 M247,67.8h6.2V72H247V67.8z M68,72h-6.2V65c0-1.5,0.1-3.6-1.4-4.6c-0.8-0.5-2.3-0.5-3.2,0.2c-1.6,1.2-1.4,2.5-1.4,4.8V72h-6.2
		V55.7h6.2v1.6c3-2.7,7-2.7,9.5-1.2c2.7,1.7,2.7,4.3,2.7,7.2V72z M91.5,65.9c-1,3.5-3.2,5-5.9,5.9c-3.2,1.1-9,1-12.2-2.4
		c-1.9-1.9-2.3-4.5-2-6.7c0.3-2.7,1.6-4.9,4.2-6.3c1.3-0.8,3-1.2,4.3-1.4c2.3-0.3,7.8,0,10.4,4C91.9,61.3,92.2,63.6,91.5,65.9z
		 M106.3,61.8c-1.9,0-3.2,0.3-4.4,1.1V72h-6.2V55.7h6.2v1.9c0.4-0.6,1.1-1.2,2.1-1.7c0.4-0.2,1.5-0.4,2.3-0.4V61.8z M133.1,72h-6.4
		l-2.3-7.1c-0.5-1.1-0.5-1.3-0.6-1.7c-0.1,0.4-0.1,0.5-0.5,1.6L121,72h-6.4l-6.2-16.3h6.8l2.2,6.8c0.4,1.2,0.5,1.5,0.5,1.9
		c0-0.4,0.1-0.6,0.4-1.9l2.2-6.8h6.7l2.2,6.8c0.4,1.2,0.4,1.5,0.4,1.9c0-0.4,0.1-0.6,0.5-1.9l2.2-6.8h6.8L133.1,72z M161.1,65h-13.8
		c0.1,0.8,0.9,2.1,2,2.5c0.9,0.3,3.1,0.5,4.2-0.3c0.7-0.5,0.8-0.7,1-1l6.2,0.7l-0.1,0.2c-1.3,3.7-5.1,4.7-7.1,5.1
		c-2.7,0.4-8.4,0.6-11.3-3.6c-1.5-2.2-1.8-4.7-1.1-7.3c0.9-3.5,3.2-5,5.9-5.8c2.8-0.9,8.9-0.8,11.8,2.7c1.6,1.8,2.2,4.6,2.3,6.6V65z
		 M180.9,75.8c-2,2.3-4.7,2.6-8.2,2.6c-3.5,0-6.3-0.6-7.9-3.4c-0.2-0.3-0.5-1.1-0.6-2.4h6.5c0.1,0.2,0.1,0.3,0.2,0.5
		c0.6,1.2,2.5,0.8,3.1,0.8c0.8-0.1,1.6-0.5,2.1-1.4c0.2-0.6,0.2-2.1,0.2-2.8c-2.3,1.9-6.3,2.2-8.8,0.9c-2.3-1.3-3.6-3.1-4-5.6
		c-0.3-2-0.1-4.9,1.5-6.9c2-2.5,5-3.3,7.3-2.9c1.1,0.1,2.5,0.6,3.9,1.9v-1.4h6.2v13C182.5,71.1,182.7,73.7,180.9,75.8z M193.5,72
		h-6.2V55.7h6.2V72z M193.5,53.7h-6.2v-4.1h6.2V53.7z M210.6,72c-0.3-0.5-0.3-1.5-0.3-1.5c-3.5,2-7.5,2.5-10.6,1.2l-0.2-0.2
		c-2.1-1.3-2.8-3.4-2.3-5.6c0.7-3.2,3.4-3.7,6.1-4.1c1.4-0.2,2.1-0.3,3.6-0.4c1.3-0.1,3.2,0.1,3.2,0.1c-0.1-1.1-0.3-1.8-1.2-2.3
		c-0.8-0.4-3.8-0.6-4.6,0.1c-0.4,0.3-0.6,0.6-0.7,1h-5.6c0-1.3,0.2-2.1,0.9-3.1c1.4-2,4.1-2.2,7.9-2.2c4.8,0,7.4,0.4,8.9,2.3
		c0.9,1.1,0.8,2.9,0.8,4.2v6.9c0,1.5,0.3,2.7,1.1,3.4L210.6,72z M227.3,65.4V72H221V55.7h6.2v1.6c3-2.7,7-2.7,9.5-1.2
		c2.7,1.7,2.7,4.3,2.7,7.2V72h-6.2V65c0-1.5,0.1-3.6-1.4-4.6c-0.8-0.5-2.3-0.5-3.2,0.2C227.1,61.8,227.3,63.1,227.3,65.4z
		 M353.5,83.7c-0.8,0.4-1.6,1-2.6,1.1c-1-0.2-1.9-0.4-2.9-0.7c-1.5-0.3-2.9-0.6-4.5-0.9c-1.2-0.2-2.4-0.4-3.6-0.7
		c-1-0.2-1.7-0.3-2.6-0.3c-1.1-0.2-2.3-0.1-3.4-0.2c-1.4,0-2.8-0.1-4.2-0.2c-2.2,1-4.3,2-6.7,2.9c-1.6,0.5-3.1,1.1-4.8,1.6
		c0.5,0.7,1.4,1,1.6,1.8c0,0.2-0.1,0.2-0.2,0.3c-0.3,0.1-0.5,0.2-1,0.3c-1.6-0.4-3.2-0.8-4.7-1.2l-0.4-0.1c-0.7,0.1-1.5,0.6-2.2,0.4
		c-31.1,15.7-61.3,25.1-76.2,22.1c-13.4-2.7-6.6-19.9,12.5-35l4,0c-15.1,12.7-16.4,27.4-6.9,28.5c10.7,1.3,37.7-4.4,65.6-17
		c-0.3-0.1-0.4-0.2-0.6-0.2c-0.5-0.1-0.9-0.3-1.5-0.5c-1.1-0.3-2.1-0.6-3-1c-0.2-0.2-0.3-0.4-0.1-0.7c0.6-0.4,1.5-0.6,2.2-0.4
		c0.7,0.1,1.6,0.2,2.2,0.2l0,0c-0.9-0.9-1.7-1.8-2.6-2.7c-0.1-0.2-0.4-0.4-0.3-0.7c0-0.2,0.2-0.4,0.4-0.6c0.2-0.1,0.3-0.2,0.5-0.3
		c0.7-0.3,0.9-0.6,1.5-0.4c1.6,0.7,2.9,1.3,4.7,2.1c0.4,0.1,0.7,0.4,1.2,0.3c0.5-0.2,0.7-0.3,1.1-0.5c0.1-0.1,0.7-0.4,0.9-0.5
		c0.6-0.3,1-0.7,1.4-1c1-0.7,1.7-1.1,2.5-1.7c-1.3-0.6-2.7-1.3-4.1-1.9c-1.4-0.4-1.8-0.5-3.1-0.8c-0.8-0.2-1.9-0.5-2-0.5
		c-1.8-0.4-2.3-0.6-3.9-1c-0.8-0.3-1.7-0.4-2.5-0.8c-0.1-0.1-0.1-0.3,0-0.4c0.1-0.1,0.1-0.2,0.2-0.3h-0.1V55.7h6.1v2.2h0.1
		c1.3-1.9,3.2-2.6,5.5-2.6c1.8,0,3.7,0.9,4.5,2.5c0.3-0.2,1.5-2.5,5.7-2.5c4.3,0,5.7,2.9,5.7,5.5v8.1c1.2-0.8,2.4-1.5,3.7-2.2
		c2.3-1.2,4.5-2.2,6.4-2.7c1.3-0.4,2.7-0.6,4.1-0.7c0.2,0,0.4,0,0.6,0c0.9,0.1,1.8,0.2,2.6,0.4c0.6,0.2,0.8,0.3,1.2,0.5
		c0.2,0.1,0.4,0.2,0.6,0.3c0.3,0.2,0.2,0.4,0.3,0.6c0.2,0.7-0.2,1.3-0.5,1.8c-1.2,1.8-2.9,3.2-4.7,4.5c-1.8,1.4-3.7,2.6-5.5,3.9
		c-0.4,0.2-0.7,0.5-1.1,0.7c0.3,0.2,0.5,0.3,0.9,0.4l0,0c0.1,0.1,0.2,0.1,0.3,0.2c0.5-0.2,0.8-0.5,1.5-0.8c0.6-0.3,1-0.3,1.4-0.2
		c0.4,0.2,0.9,0.7,1,1.1c0.2,0.7,0.1,1.3-0.2,2c2.3,1.2,4.6,2.2,6.8,3.3c0.6,0.3,1.1,0.5,1.6,0.8C354.1,83,353.8,83.4,353.5,83.7z"
		/>
	<path class="st0" d="M324.4,60.2c-1.6,0-2.2,1.2-2.2,2.9v8.8c0.2,0,0.3,0,0.5,0.1c0.2,0,0.3,0.1,0.5,0.1c0.2,0.1,0.4,0,0.5,0.1
		c0.2,0,0.4,0.1,0.5,0.1c0.6-0.5,1.4-1.1,2.1-1.5v-7.6C326.5,61.6,326.4,60.2,324.4,60.2z"/>
	<path class="st1" d="M65.3,56.1c-2.5-1.5-6.5-1.5-9.5,1.2v-1.6h-6.2V72h6.2v-6.6c0-2.3-0.2-3.6,1.4-4.8c0.9-0.7,2.4-0.7,3.2-0.2
		c1.6,1,1.4,3.1,1.4,4.6V72H68v-8.7C68,60.4,68,57.8,65.3,56.1z"/>
	<path class="st1" d="M80,55.1c-1.3,0.2-3,0.6-4.3,1.4c-2.6,1.4-3.9,3.6-4.2,6.3c-0.3,2.1,0.2,4.7,2,6.7c3.2,3.4,9,3.4,12.2,2.4
		c2.7-0.9,4.9-2.4,5.9-5.9c0.6-2.3,0.4-4.6-1.1-6.8C87.7,55.1,82.2,54.8,80,55.1z M85.3,64.3c-0.2,1.1-0.8,2.4-2,3.1
		c-1.1,0.6-2.7,0.5-3.8-0.2c-1-0.7-1.6-2-1.6-3.2c-0.1-1.1,0.2-2.5,1.3-3.6c0.6-0.5,1-0.7,1.5-0.8c1-0.2,2.5,0,3.5,1.1
		C85.1,61.7,85.4,63.2,85.3,64.3z"/>
	<path class="st1" d="M130.2,62.5c-0.4,1.2-0.5,1.5-0.5,1.9c0-0.4-0.1-0.6-0.4-1.9l-2.2-6.8h-6.7l-2.2,6.8c-0.4,1.2-0.4,1.5-0.4,1.9
		c0-0.4-0.1-0.6-0.5-1.9l-2.2-6.8h-6.8l6.2,16.3h6.4l2.3-7.2c0.4-1.1,0.5-1.2,0.5-1.6c0.1,0.4,0.1,0.5,0.6,1.7l2.3,7.1h6.4l6.2-16.3
		h-6.8L130.2,62.5z"/>
	<path class="st1" d="M147.1,55.5c-2.7,0.8-5,2.3-5.9,5.8c-0.7,2.6-0.4,5,1.1,7.3c2.9,4.2,8.6,4,11.3,3.6c2-0.3,5.8-1.4,7.1-5.1
		l0.1-0.2l-6.2-0.7c-0.2,0.3-0.3,0.5-1,1c-1.1,0.8-3.3,0.6-4.2,0.3c-1-0.4-1.9-1.7-2-2.5h13.8v-0.3c0-2-0.7-4.7-2.3-6.6
		C155.9,54.8,149.9,54.6,147.1,55.5z M147.2,61.8c0.5-1.8,1.5-2.4,2.8-2.6c1.3-0.2,3.6,0.2,4.6,2.6H147.2z"/>
	<path class="st1" d="M182.5,55.6h-6.2v1.4c-1.4-1.3-2.8-1.8-3.9-1.9c-2.3-0.4-5.4,0.5-7.3,2.9c-1.6,2-1.9,5-1.5,6.9
		c0.4,2.5,1.7,4.3,4,5.6c2.5,1.3,6.5,1,8.8-0.9c0,0.7,0,2.2-0.2,2.8c-0.4,1-1.3,1.3-2.1,1.4c-0.6,0.1-2.5,0.4-3.1-0.8
		c-0.1-0.2-0.2-0.3-0.2-0.5h-6.5c0.1,1.2,0.4,2.1,0.6,2.4c1.6,2.8,4.4,3.4,7.9,3.4c3.5,0,6.2-0.2,8.2-2.6c1.8-2.1,1.6-4.7,1.6-7.2
		V55.6z M175.2,65.5c-1.1,0.7-2.8,0.6-3.8,0.1c-0.8-0.4-1.3-1-1.5-1.9c-0.1-0.6,0-1.6,0.6-2.2c0.4-0.5,0.9-0.8,1.5-1
		c0.8-0.2,2.6-0.1,3.5,0.9c0.6,0.6,0.9,1.3,0.8,2.1C176.3,64.2,175.9,65,175.2,65.5z"/>
	<rect x="187.2" y="55.7" class="st1" width="6.2" height="16.3"/>
	<rect x="187.2" y="49.6" class="st1" width="6.2" height="4.1"/>
	<path class="st1" d="M216.7,61.6c0-1.3,0.1-3.1-0.8-4.2c-1.5-2-4.1-2.3-8.9-2.3c-3.8,0-6.4,0.2-7.9,2.2c-0.7,1-0.9,1.8-0.9,3.1h5.6
		c0.1-0.4,0.3-0.7,0.7-1c0.8-0.6,3.8-0.5,4.6-0.1c0.9,0.5,1.1,1.1,1.2,2.3c0,0-2-0.1-3.2-0.1c-1.5,0.1-2.2,0.1-3.6,0.4
		c-2.7,0.4-5.4,0.8-6.1,4.1c-0.5,2.2,0.2,4.3,2.3,5.6l0.2,0.2c3.1,1.3,7.1,0.8,10.6-1.2c0,0,0,1,0.3,1.5l7.2,0
		c-0.8-0.7-1.1-1.8-1.1-3.4V61.6z M206.7,67.8c-0.9,0.2-2.4,0.2-3.1-1c-0.1-0.2-0.3-0.9-0.1-1.2c0.4-0.9,1.3-0.8,3.2-0.8l3.3-0.1
		C209.5,66.9,208.4,67.6,206.7,67.8z"/>
	<path class="st1" d="M228.7,60.6c0.9-0.7,2.4-0.7,3.2-0.2c1.6,1,1.4,3.1,1.4,4.6V72h6.2v-8.7c0-2.9,0-5.5-2.7-7.2
		c-2.5-1.5-6.5-1.5-9.5,1.2v-1.6H221V72h6.2v-6.6C227.3,63.1,227.1,61.8,228.7,60.6z"/>
	<path class="st1" d="M101.9,57.5v-1.9h-6.2V72h6.2v-9.1c1.2-0.8,2.5-1.1,4.4-1.1v-6.4c-0.8,0-1.9,0.2-2.3,0.4
		C103,56.3,102.3,57,101.9,57.5z"/>
	<path class="st1" d="M295.3,71.8c2.7-0.9,4.9-2.4,5.9-5.9c0.6-2.3,0.4-4.6-1.1-6.8c-2.7-4-8.2-4.3-10.4-4c-1.3,0.2-3,0.6-4.3,1.4
		c-2.6,1.4-3.9,3.6-4.2,6.3c-0.3,2.1,0.2,4.7,2,6.7C286.3,72.8,292.1,72.9,295.3,71.8z M288.8,60.4c0.6-0.5,1-0.7,1.5-0.8
		c1-0.2,2.5,0,3.5,1.1c0.9,1,1.3,2.6,1.1,3.7c-0.2,1.1-0.8,2.4-2,3.1c-1.1,0.6-2.7,0.5-3.8-0.2c-1-0.7-1.6-2-1.7-3.2
		C287.4,62.9,287.6,61.5,288.8,60.4z"/>
	<rect x="247" y="67.8" class="st1" width="6.2" height="4.1"/>
	<path class="st1" d="M306.3,71.2c0.5-0.3,1-0.8,1.6-0.9c1.3-0.1,2.3,0.2,3.7,0.3c0,0,0.1,0,0.1,0v-7.5c0-1.7,0.5-2.9,2.2-2.9
		c1.9,0,2.1,1.4,2.1,2.9v8c0.1,0,0.3,0,0.5,0.1c1.9,0.2,4,0.4,5.9,0.7v-8.8c0-1.7,0.5-2.9,2.2-2.9c1.9,0,2.1,1.4,2.1,2.9v7.6
		c0.4-0.2,0.8-0.4,1.2-0.5c0.7-0.1,1.4,0.4,1.8,1c1.1-0.8,2.3-1.6,3.4-2.4v-8.1c0-2.6-1.4-5.5-5.7-5.5c-4.1,0-5.4,2.4-5.7,2.5
		c-0.8-1.6-2.7-2.5-4.5-2.5c-2.3,0-4.2,0.7-5.5,2.6h-0.1v-2.2h-6.1V72h0.1C305.7,71.7,306,71.4,306.3,71.2z"/>
	<path class="st1" d="M271.5,71.8c2.7-0.9,4.9-2.4,5.9-5.9c0-0.2,0.1-0.3,0.1-0.5h-6.7c-0.3,0.8-0.9,1.5-1.7,2
		c-1.1,0.6-2.7,0.5-3.8-0.2c-1-0.7-1.6-2-1.6-3.2c-0.1-1.1,0.2-2.5,1.3-3.6c0.6-0.5,1-0.7,1.5-0.8c1-0.2,2.5,0,3.5,1.1
		c0.3,0.3,0.5,0.8,0.7,1.2h6.8c-0.2-0.9-0.6-1.9-1.2-2.8c-2.7-4-8.2-4.3-10.4-4c-1.3,0.2-3,0.6-4.3,1.4c-2.6,1.4-3.9,3.6-4.2,6.3
		c-0.3,2.1,0.2,4.7,2,6.7C262.5,72.8,268.2,72.8,271.5,71.8z"/>
	<path class="st2" d="M352.4,81.8c-2.3-1.1-4.5-2.2-6.8-3.3c0.3-0.7,0.4-1.3,0.2-2c-0.1-0.5-0.6-1-1-1.1c-0.5-0.1-0.9-0.1-1.4,0.2
		c-0.6,0.3-1,0.6-1.5,0.8c-0.1-0.1-0.2-0.1-0.3-0.2l0,0c-0.4-0.1-0.6-0.2-0.9-0.4c0.4-0.2,0.7-0.5,1.1-0.7c1.8-1.3,3.7-2.5,5.5-3.9
		c1.7-1.3,3.5-2.7,4.7-4.5c0.3-0.5,0.7-1.1,0.5-1.8c-0.1-0.2-0.1-0.4-0.3-0.6c-0.1-0.1-0.4-0.2-0.6-0.3c-0.4-0.2-0.6-0.3-1.2-0.5
		c-0.8-0.1-1.7-0.3-2.6-0.4c-0.2,0-0.4,0-0.6,0c-1.4,0.1-2.7,0.3-4.1,0.7c-1.9,0.5-4.1,1.5-6.4,2.7c-1.3,0.7-2.5,1.4-3.7,2.2
		c-1.2,0.8-2.3,1.6-3.4,2.4c-0.3-0.5-1.1-1-1.8-1c-0.4,0.1-0.8,0.3-1.2,0.5c-0.8,0.4-1.5,1-2.1,1.5c-0.2,0-0.3-0.1-0.5-0.1
		c-0.2-0.1-0.4,0-0.5-0.1c-0.2,0.1-0.3-0.1-0.5-0.1c-0.2,0-0.3-0.1-0.5-0.1c-2-0.3-4-0.5-5.9-0.7c-0.1,0-0.3,0-0.5-0.1
		c-1.4-0.2-2.8-0.4-4.2-0.5c0,0-0.1,0-0.1,0c-1.4-0.1-2.4-0.4-3.7-0.3c-0.6,0.1-1.1,0.6-1.6,0.9c-0.3,0.3-0.6,0.5-0.9,0.8
		c-0.1,0.1-0.2,0.2-0.2,0.3c-0.1,0.2,0,0.3,0,0.4c0.8,0.4,1.7,0.4,2.5,0.8c1.6,0.4,2.1,0.6,3.9,1c0.1,0,1.2,0.3,2,0.5
		c1.4,0.3,1.7,0.5,3.1,0.8c1.4,0.6,2.7,1.3,4.1,1.9c-0.8,0.6-1.5,1-2.5,1.7c-0.4,0.3-0.9,0.6-1.4,1c-0.2,0.1-0.8,0.5-0.9,0.5
		c-0.5,0.2-0.6,0.3-1.1,0.5c-0.4,0.1-0.8-0.2-1.2-0.3c-1.8-0.8-3.1-1.4-4.7-2.1c-0.6-0.2-0.8,0.1-1.5,0.4c-0.2,0.1-0.3,0.2-0.5,0.3
		c-0.2,0.2-0.4,0.3-0.4,0.6c-0.1,0.3,0.2,0.5,0.3,0.7c0.9,0.9,1.7,1.8,2.6,2.7l0,0c-0.6-0.1-1.5-0.2-2.2-0.2c-0.7-0.2-1.6,0-2.2,0.4
		c-0.2,0.3-0.2,0.6,0.1,0.7c1,0.5,2,0.7,3,1c0.5,0.2,1,0.3,1.5,0.5c0.2,0,0.4,0.1,0.6,0.2c-27.9,12.5-54.9,18.3-65.6,17
		c-9.6-1.2-8.3-15.8,6.9-28.5l-4,0c-19.1,15.1-25.8,32.3-12.5,35c14.8,3,45-6.5,76.2-22.1c0.6,0.3,1.5-0.2,2.2-0.4l0.4,0.1
		c1.5,0.4,3.2,0.9,4.7,1.2c0.5-0.1,0.7-0.2,1-0.3c0.1-0.1,0.2-0.1,0.2-0.3c-0.3-0.8-1.1-1.2-1.6-1.8c1.6-0.5,3.2-1,4.8-1.6
		c2.4-0.8,4.5-1.9,6.7-2.9c1.4,0.2,2.8,0.2,4.2,0.2c1.2,0.1,2.3,0,3.4,0.2c0.9,0,1.7,0.2,2.6,0.3c1.2,0.2,2.4,0.5,3.6,0.7
		c1.5,0.3,2.9,0.6,4.5,0.9c1,0.3,1.9,0.4,2.9,0.7c1-0.1,1.7-0.7,2.6-1.1c0.3-0.3,0.6-0.6,0.5-1C353.4,82.3,352.9,82.1,352.4,81.8z
		 M321.2,80.5c-1.8,1-3.9,2.1-6.5,3.3c-0.7,0.3-1.4,0.5-2.2,0.3c-0.5-0.1-0.6,0-1.1-0.2c-1-1-2-2-3-3c-0.1-0.2-0.4-0.3-0.5-0.5
		l0.6-0.4h0.2c1.4,0.6,2.4,1.1,3.8,1.8c0.5,0.3,1.1,0.5,1.6,0.7c0.6,0.1,1-0.2,1.6-0.5l0.4-0.2c0.8-0.5,1.1-0.7,1.6-1
		c1.5-1,2.7-1.7,4.1-2.6l0.3-0.2c0.7,0.3,1.1,0.5,1.8,0.7C323.1,79.5,322.1,80,321.2,80.5z M325.3,75.2c-0.3-0.2-0.3-0.4-0.4-0.7
		c-0.1-0.6-0.1-1,0.1-1.4l0.3-0.2c0.3-0.2,0.5-0.4,0.9-0.6c0.3-0.2,0.5-0.3,0.8-0.4c-0.2,0.5-0.1,0.8,0.1,1.3
		c0.1,0.3,0.3,0.5,0.4,0.7C326.7,74.2,326,74.8,325.3,75.2z M336,70.8c-0.8,0.5-2.4,1.9-2.5,1.9c-1.3-0.2-2.4-0.2-3.6-0.3l0.2-0.1
		c1.6-1.3,3-2.1,4.8-3.2c1.6-1,3.9-2.2,5.8-3c1.7-0.7,3.5-1.2,5.3-1.5c1-0.2,2.1-0.2,3.1,0.1c-1.1,0.3-1.8,0.4-3.1,1
		c-1.1,0.4-2.8,1.1-4.1,1.8C339.9,68.5,338.2,69.4,336,70.8z"/>
	<path class="st1" d="M346.1,65.7c1.2-0.5,1.9-0.7,3.1-1c-1-0.3-2.1-0.2-3.1-0.1c-1.9,0.3-3.6,0.8-5.3,1.5c-1.9,0.8-4.2,2-5.8,3
		c-1.8,1.1-3.2,1.9-4.8,3.2l-0.2,0.1c1.2,0.1,2.4,0.2,3.6,0.3c0.1-0.1,1.7-1.4,2.5-1.9c2.2-1.4,3.9-2.3,5.9-3.3
		C343.3,66.8,345,66.1,346.1,65.7z"/>
	<path class="st1" d="M327,71.7c-0.3,0.1-0.5,0.2-0.8,0.4c-0.4,0.2-0.6,0.4-0.9,0.6l-0.3,0.2c-0.2,0.4-0.2,0.8-0.1,1.4
		c0.1,0.3,0.1,0.5,0.4,0.7c0.7-0.4,1.4-0.9,2.1-1.4c-0.1-0.2-0.3-0.4-0.4-0.7C326.9,72.5,326.8,72.3,327,71.7z"/>
	<path class="st1" d="M321.9,78.4c-1.5,0.9-2.6,1.6-4.1,2.6c-0.5,0.3-0.8,0.5-1.6,1l-0.4,0.2c-0.6,0.2-1,0.5-1.6,0.5
		c-0.6-0.2-1.1-0.5-1.6-0.7c-1.4-0.7-2.4-1.2-3.8-1.8h-0.2l-0.6,0.4c0.1,0.2,0.3,0.3,0.5,0.5c1,1,2,2,3,3c0.5,0.1,0.6,0.1,1.1,0.2
		c0.8,0.2,1.5,0,2.2-0.3c2.7-1.2,4.7-2.3,6.5-3.3c0.9-0.5,1.8-1,2.8-1.5c-0.7-0.3-1-0.4-1.8-0.7L321.9,78.4z"/>
</g>
</svg>
