<?xml version="1.0" encoding="utf-8"?>
<!-- Generator: Adobe Illustrator 20.1.0, SVG Export Plug-In . SVG Version: 6.00 Build 0)  -->
<svg version="1.1" id="Layer_1" xmlns="http://www.w3.org/2000/svg" xmlns:xlink="http://www.w3.org/1999/xlink" x="0px" y="0px"
	 viewBox="0 0 565.1 190.7" style="enable-background:new 0 0 565.1 190.7;" xml:space="preserve">
<style type="text/css">
	.st0{fill:#FFFFFF;}
</style>
<g>
	<path class="st0" d="M387.2,111.2c-8.2-5-19.6-7.5-24.9-9c-5.3-1.5-40.8-8.9-40.8-8.9c9-0.6,17-4.1,21.5-5.6
		c8.2-2.6,17.2-8.3,20.6-11c3.5-2.7,10.5-8,15.8-17.4c5.3-9.4,3.9-19.4,3.9-19.4c-0.3-8.1-5.1-20.7-19.3-28.5
		c-12.6-6.8-30.7-8.5-40.1-8.7c-9.4-0.2-24.2,2.2-29.1,3.1c-5,0.9-20.9,5.6-20.9,5.6c-4.2,1.2-19.5,7.2-30.6,13.6
		c-11,6.4-21.1,16.8-21.1,16.8c-5.2,5.9-13.3,20.4-5,29.8c8.2,9.4,27,10.4,27,10.4c-4,5.4-8.9,8.8-17.2,16.5
		c-8.3,7.8-11.9,9.3-13.3,9.3c-1.4,0-1.3-2.3-0.2-4.9c1.1-2.5,0.6-3.8,0.6-3.8c-0.8-2.8-4.4-2.7-4.4-2.7c2.1-1.2,3.3-4.4-0.9-4.7
		c-4.2-0.2-4.6,4.2-4.6,4.2c-4.6,6.2-13.7,12.2-19.2,14.9c-5.5,2.7-6.4,0.9-6.4,0.9s7.4-5.4,9.2-10c1.8-4.6-1.2-5.6-1.2-5.6
		s-5.5-2.5-10.2,3.1c-4.7,5.6-3.7,12-3.7,12c-6.3,4.4-13,7.1-17,7.7c-4,0.6-0.4-5.6,1.5-8.7c1.9-3.1-0.1-3.8-0.1-3.8
		c-3.1-0.8-5.1,1.7-5.1,1.7c-1.9,2.5-14.7,15.2-16.9,13.2c-2.2-2,7.6-11.5,8.6-12.4c1-0.9,0.4-2.1,0.4-2.1c-0.5-2.5-3.8-1.3-3.8-1.3
		l-20.2,3.5c7.1-5.3,14.2-19.1,14.2-19.1c11.2-23.2-2.6-37.3-2.6-37.3c-14.7-18.4-51.4-9.1-51.4-9.1c-20.1,4-45.4,16.8-58.3,28.3
		C10.8,82.1,0,96.7,0,107.3c0,7.8,6.2,13.9,15.6,11.4c9.4-2.5,8.1-6.6,8.1-6.6c-0.1-1.6-2.9-0.2-2.9-0.2c-7.2,2.6-11.2,0.6-11.2,0.6
		c-8.1-5.7,1.2-21.8,11.6-32.1C32.4,69.3,59,52.1,88.8,48.1c17.7-2.3,42.1,0.4,42.2,24.3c0.1,23.9-21.1,38.9-21.1,38.9
		s-21,4.9-23.8,5.8c-2.9,0.9-10.4,3-21.1,7.7c-10.7,4.7-8.8,8.1-8.8,8.1c0.8,5.4,16.2,5.1,28.9,0.2c12.8-4.9,28.8-18.1,28.8-18.1
		l20.9-4c0,0-2.9,3.3-4.1,5.4c-1.2,2.1-1.4,3.8-1.5,4.7c-0.1,0.9,0.3,2.6,0.3,2.6c3.4,9.2,19.2-6.8,19.2-6.8s-1.8,6.9,5.7,6.7
		c7.5-0.2,19.8-8.9,19.8-8.9s0,1,2.6,2.1c2.6,1.1,7.6-0.3,13.8-3.8c6.2-3.5,15.8-13.2,15.8-13.2c1.9,0.4,2.1,1.3,2.1,1.3
		s-2.6,10.9,3.8,11.6c7.5,0.8,29.2-21.7,29.2-21.7c-7,15.4,2.1,16,2.1,16c4.9,0.5,14.5-8.1,14.5-8.1c0.1,6.8,1.4,7.8,4.6,8.1
		c3.2,0.3,5.5-1.3,8.5-3.8c2.9-2.5,3.5-7.9,0.7-11.1c-2.8-3.3-6.1-2.5-6.1-2.5s-0.9-0.9-2-0.7c-1.1,0.1-5.7,4.5-5.7,4.5
		c-3,3.1-10.3,8.6-13,8.9c-2.7,0.2-0.6-4.7,0.6-8.3c1.2-3.6,6.6-11.9,6.6-11.9s13.9-0.4,19.6-1.5c5.6-1.1,11.7-4.1,14.6-5.9
		c2.9-1.7,2.9-5.5,0.1-5.7c-2.7-0.2-4,2.1-4,2.1s-0.9,2.3-11.5,4.6c-10.6,2.3-15.7,1.5-15.7,1.5l8.5-11.2c2.9-3.3,0.6-4.8,0.6-4.8
		c-4.6-1.5-4.8,1.9-4.8,1.9l-11.2,14.1c-13.1-0.6-19.8-4.2-19.8-4.2c-13.6-6.4-9-17.7-1.4-28.4c7.6-10.7,31.2-21.2,31.2-21.2
		s0,0,4.7-2.2c4.7-2.2,28.8-10.7,51.1-12.8c22.3-2.2,35.6,2.7,46.5,8c10.8,5.3,17.4,16.7,16.2,27.3c-1.2,10.6-4.3,16-12.3,24.1
		c-7.9,8.1-22,15.2-35.1,18.6c-13.1,3.4-29.7,3.7-28.6,0.6c1.1-3.1,13.9-25.1,13.9-25.1s12.3-19.6,16-25.4c3.7-5.8,0-7.1-2.8-7.3
		c-2.8-0.2-4.7,0.8-5.2,3.3c-0.5,2.5-1.1,3.4-1.5,4c-0.4,0.6-8.9,15.2-11,18.6c-2.2,3.5-14.6,27.6-14.6,27.6
		c-2.5,4.6-9.5,21.9-11.6,26.9c-2.1,5-6.8,23-6.8,23c-1.1,5.2-3.1,16-2,22.8c0.7,4.3,3.5,7.2,6.3,5.9c2.8-1.3,0.5-4.1,0.5-4.1
		c-2.6-3.4,0.2-14.5,1.1-20.6c0.9-6,4.2-15,5.3-19.4c1.1-4.4,10.2-25.4,10.2-25.4c-0.4,2.7,4.2,4.6,6,5.2c1.8,0.6,13.5,3.1,13.5,3.1
		s22.3,4.9,37,8.2c14.8,3.3,33.9,8.9,33.9,8.9c3.3,1.4,3.6-0.1,3.6-0.1C393.7,115.1,387.2,111.2,387.2,111.2z M78.6,130.5
		c0,0-8.9,3.7-15.9,2c0,0,1.8-2.1,8.2-4.8c11.2-4.9,30.1-9.5,30.1-9.5S87.9,127.4,78.6,130.5z M177.6,106.7c0.5-1.4,0.9-2.1,1.5-3.1
		c0.9-1.4,3.6-4,4.2-3.5c0.6,0.5-1.7,3.2-1.7,3.2s-2.5,2.8-3.7,3.8C177.9,107.1,177.1,108.1,177.6,106.7z M265.8,93.3l1.9,1.8
		c0,0,1,0.5,1.2,1.9c0.2,1.4-1.1,2.6-1.1,2.6c-3.9,4-4.3,2.8-4.3,2.8C261.6,101.6,265.8,93.3,265.8,93.3z"/>
	<path class="st0" d="M30.7,163.1c0,0-7.8,28.6,3,27.6c0,0,2.1-0.3,2.1-2.8c0,0-0.7-1.3-1.2-3.5c-0.5-2.2-0.1-9,2.7-19.8
		c2.8-10.9,10.5-29,10.5-29s11.1-24.8,13.7-28.1c0,0,14.1-24.2,15.3-25.6l7.4-11.7c0,0,4.1-6.7-2.6-7.5c-6.8-0.9-6.3,5.9-6.3,5.6
		c0-0.4-0.1,0.7-1.9,3.7c-1.8,3-16.3,28.8-16.9,29.8c-9,14.8-19.6,41.7-21.2,46.3C33.9,152.8,30.7,163.1,30.7,163.1z"/>
</g>
<g>
	<path class="st0" d="M390.8,66c0,0,2.9,0.3,3-4c0,0,0.1-2.4-3.5-2.3c0,0-2.8,0-3,3.3C387,66.1,390.8,66,390.8,66z"/>
	<path class="st0" d="M564.9,27.4c-1.2-2.6-5.1-1.6-5.6-1.5c-0.5,0.1-6.6,1.8-6.9,1.9c-0.3,0.1-17.1,5-18.3,5.4
		c-1.2,0.3-18.3,5.8-18.3,5.8l0-2.5c-0.2-1.1,0.4-16.4,0.5-17.7c0.1-1.3,0.8-12.1,1.1-14.8c0.3-2.7-1-3.7-3-3.9
		c-2-0.2-2.5,1-2.5,1.6c0,0.7-0.7,1.8-0.7,1.8l-5.5,8.2l-7.4,11.7c0,0-7.9,12.9-8.6,14.4c-0.7,1.5-6.8,12.4-6.8,12.4l-16.9,5.9
		l-5.1-5.8c-2.4-3-6.4-5.7-6.4-5.7c-3.9-3.1-4.8-2.1-4.8-2.1c-0.5,0.8,0.5,1.8,0.5,1.8c1,0.6,11,13.4,11,13.4l-17.8,6.6
		c-1.5-1-2.9,0.2-3.4,1.4c-0.5,1.2-0.4,3.3,1.3,3.9c1.7,0.6,2.8,1.7,2.9,3.7c0.1,2-1.3,3.7-4.1,5.2c-2.8,1.5-4.1,0.2-4.1,0.2
		c-1.5-2.2,0.9-4.8,1.5-5.2c0.5-0.5,2.5-3,1.5-4.6c-1-1.6-3.4-0.2-3.4-0.2c-3.4,2.5-11.8,7.5-11.8,7.5s-12.6,7.6-16.2,6.3
		c-3.5-1.3,4-9.3,6-10.2c2.1-0.9,0.8,0.9,0.8,0.9c-0.8,1.3,0.5,1.7,0.5,1.7c3.1,0.3,4.5-2.8,4.7-5.5c0.2-2.8-3.7-3.3-3.7-3.3
		c-4.3-1.1-23.1,11.6-23.1,11.6c-10.2,5.9-11,6.3-12.1,6c-1.1-0.3,5-8.6,5-8.6s1.9-3.4-0.8-4c-4.8-1.1-4.9,2-4.9,2
		c-1,1.4-5.9,8.2-3.6,13.6c2.4,5.5,13-1.8,13-1.8l13.5-7.7c-2.2,3.4-2.4,10,5.3,9.9c7.7-0.1,22.6-9.4,22.6-9.4
		c0.1,2.7,0.8,4.1,0.8,4.1s1,3.3,7.8,1.8c6.8-1.5,8.9-6.3,9.1-10.1c0.2-3.9-2.2-5.9-2.2-5.9l17.7-6.3l8.1,9.6l-3.4,6.7l-6,12.3
		c0,0-5.3,10.9-6.3,13c-1,2.1-2.4,3.7-2.4,3.7s-1.5,2,0.3,4c1.8,2,3.4,0.9,4.4-0.2c1-1,6.3-6.2,6.3-6.2c0.7-0.7,7.3-6.7,9.1-8.3
		c1.8-1.6,11.5-10.2,11.5-10.2c0.2,0.6,11.5,11.6,11.8,12.1c0.3,0.5,12.3,11.9,12.3,11.9c3.6,4.1,5,3.4,5,3.4
		c2.9,0.1,2.6-3.9,2.6-3.9c0.2-0.5,0.2-12.9,0.3-14.6c0.1-1.7-0.4-16-0.4-16l-0.6-16.8l16.1-11l13.2-8.5l16.4-10.2
		C562.3,32.1,566.1,30,564.9,27.4z M499.2,31.6c2.3-4.1,12.4-19,12.4-19s-0.9,10.9-1.2,15.2C510.1,32,510,41,510,41l-20.3,6.7
		C489.7,47.7,496.9,35.7,499.2,31.6z M469.1,59.6l10.6-3.6l-5.1,9.9L469.1,59.6z M466.1,94.3l9.4-19.7l5.9,6.5L466.1,94.3z
		 M485,77.9l-6.9-8.2l8.4-16.1l23.5-8.2l0.3,12.3L485,77.9z M511.8,105.4c-1.9-1-22.5-22.8-22.5-22.8l21.2-16.5l0.8,16.6
		C512.3,91.5,511.8,105.4,511.8,105.4z M535.3,40.1c-4.5,2.7-19,13.3-19,13.3l-0.3-10.1l34.1-12C550.1,31.2,539.8,37.4,535.3,40.1z"
		/>
</g>
<g>
	<polygon class="st0" points="176.5,164.3 176.5,157.9 186.6,157.9 186.6,154.2 176.5,154.2 176.5,148.1 187.9,148.1 187.9,144.2 
		176.5,144.2 175.3,144.2 172.9,144.2 172.9,168.1 174.8,168.1 176.5,168.1 188.1,168.1 188.1,164.3 	"/>
	<polygon class="st0" points="161.2,144.2 161.2,154.2 151.4,154.2 151.4,144.2 147.9,144.2 147.9,168.1 151.4,168.1 151.4,158.1 
		161.2,158.1 161.2,168.1 164.7,168.1 164.7,144.2 	"/>
	<polygon class="st0" points="141.3,144.2 124.8,144.2 124.8,148.1 131.2,148.1 131.2,168.1 134.8,168.1 134.8,148.1 141.3,148.1 	
		"/>
	<polygon class="st0" points="257.1,164.3 257.1,144.3 253.6,144.3 253.6,168.1 254.8,168.1 257.1,168.1 267.8,168.1 267.8,164.3 	
		"/>
	<polygon class="st0" points="236.5,164.3 236.5,144.3 233,144.3 233,168.1 234.2,168.1 236.5,168.1 247.2,168.1 247.2,164.3 	"/>
	<path class="st0" d="M222.5,168.1h3.7l-8.9-23.9H214l-8.9,23.8h3.6l2.1-5.6h9.6L222.5,168.1z M212.1,158.7l3.5-9.6l3.5,9.6H212.1z"
		/>
	<polygon class="st0" points="327.9,144.2 311.4,144.2 311.4,148.1 317.8,148.1 317.8,168.1 321.4,168.1 321.4,148.1 327.9,148.1 	
		"/>
	<path class="st0" d="M347.7,168.1h3.7l-8.9-23.9h-3.3l-8.9,23.8h3.6l2.1-5.7h9.6L347.7,168.1z M337.3,158.7l3.5-9.6l3.5,9.6H337.3z
		"/>
	<polygon class="st0" points="430.6,164.4 430.6,144.3 427,144.3 427,168.1 428.3,168.1 430.6,168.1 441.2,168.1 441.2,164.4 	"/>
	<path class="st0" d="M463.5,168h3.7l-8.9-23.9H455l-8.9,23.8h3.6l2.1-5.6h9.6L463.5,168z M453.1,158.6l3.5-9.6l3.5,9.6H453.1z"/>
	<rect x="393.6" y="144.2" class="st0" width="3.6" height="23.9"/>
	<polygon class="st0" points="473.6,168.1 477.1,168 477,151.2 488.3,168.1 491.3,168 491.3,144.2 487.8,144.3 487.8,160.7 
		477,144.3 473.7,144.3 	"/>
	<path class="st0" d="M507.3,144.3h-7.8V168l8.3,0c0,0,10.2-0.5,10.2-12C517.9,144.3,507.3,144.3,507.3,144.3z M508.2,164.3l-5.2,0
		l0-16.2h5.3c0,0,5.9,0.5,5.8,8C514,163.7,508.2,164.3,508.2,164.3z"/>
	<path class="st0" d="M369.6,159c0,0,4.5-0.7,4.8-7.3c0.2-6.5-6.2-7.4-6.2-7.4h-6.9h-2h-1.5v23.8h3.5v-8.3l0.8,0l3.8,0.1l4.9,8.2
		l4.3-0.1L369.6,159z M361.3,156.2V148h5.7c0,0,3.9,0.3,3.9,4c0,3.6-4.2,4.2-4.2,4.2H361.3z"/>
	<path class="st0" d="M303.8,150l1.8-3.1c0,0-3.3-3.1-6.9-3.1c-3.6,0-7.6,2.5-7.4,6.9c0.2,4.4,2.4,5.4,4.2,6.1
		c1.8,0.7,3.3,1.1,4.6,1.7c1.3,0.6,2.8,1.4,2.5,3.8c-0.3,2.4-3.7,2.3-3.7,2.3s-3.6,0-6.2-3l-2.1,3c0,0,3.6,3.8,8.3,3.7
		c4.7-0.1,7.1-2.7,7.4-6.7c0.2-4-1.8-6.5-8.3-7.9c0,0-3.9-0.8-3-4.4c0,0,0.5-2.2,3.5-1.9C301.4,147.9,303.8,150,303.8,150z"/>
	<path class="st0" d="M417.3,150l1.8-3.1c0,0-3.3-3.1-6.9-3.1c-3.6,0-7.6,2.5-7.4,6.9c0.2,4.4,2.4,5.4,4.2,6.1
		c1.8,0.7,3.3,1.1,4.6,1.7c1.3,0.6,2.8,1.4,2.5,3.8c-0.3,2.4-3.7,2.3-3.7,2.3s-3.6,0-6.2-3l-2.1,3c0,0,3.6,3.8,8.3,3.7
		c4.7-0.1,7.1-2.7,7.4-6.7c0.2-4-1.8-6.5-8.3-7.9c0,0-3.9-0.8-3-4.4c0,0,0.5-2.2,3.5-1.9C415,147.9,417.3,150,417.3,150z"/>
</g>
</svg>
