<?xml version="1.0" standalone="no"?>
<!DOCTYPE svg PUBLIC "-//W3C//DTD SVG 1.1//EN" "http://www.w3.org/Graphics/SVG/1.1/DTD/svg11.dtd" >
<svg xmlns="http://www.w3.org/2000/svg" xmlns:xlink="http://www.w3.org/1999/xlink" version="1.1">
<metadata>
Created by FontForge 20150824 at Mon Nov  7 08:12:56 2016
 By Everything Fonts
Copyright (c) 2010-2012 by The Entente/Colophon. All rights reserved.
</metadata>
<defs>
<font id="ApercuPro-MediumItalic" horiz-adv-x="567" >
  <font-face 
    font-family="Apercu Pro"
    font-weight="600"
    font-style="italic"
    font-stretch="normal"
    units-per-em="1000"
    panose-1="2 0 6 6 4 0 0 9 0 4"
    ascent="800"
    descent="-200"
    x-height="504"
    cap-height="700"
    bbox="-142 -312 1247 1104"
    underline-thickness="50"
    underline-position="-100"
    slope="-12"
    stemh="92"
    stemv="107"
    unicode-range="U+000D-FB02"
  />
<missing-glyph horiz-adv-x="645" 
d="M94 0v700h457v-700h-457zM448 606h-251v-512h251v512z" />
    <glyph glyph-name="fi" unicode="fi" horiz-adv-x="536" 
d="M37 412l18 92h65l3 18c24 145 130 186 240 186c68 0 110 -10 142 -29l-43 -88c-33 17 -67 25 -105 25c-61 0 -117 -19 -129 -94l-3 -18h269l-98 -504h-105l80 412h-164l-80 -412h-105l80 412h-65z" />
    <glyph glyph-name="fl" unicode="fl" horiz-adv-x="614" 
d="M37 412l18 92h65l5 26c24 123 102 178 204 178h254l-137 -708h-105l119 616h-146c-46 0 -73 -27 -83 -79l-6 -33h111l-18 -92h-111l-80 -412h-105l80 412h-65z" />
    <glyph glyph-name=".notdef" horiz-adv-x="645" 
d="M94 0v700h457v-700h-457zM448 606h-251v-512h251v512z" />
    <glyph glyph-name="NULL" horiz-adv-x="0" 
 />
    <glyph glyph-name="NULL" horiz-adv-x="0" 
 />
    <glyph glyph-name="CR" unicode="&#xd;" horiz-adv-x="227" 
 />
    <glyph glyph-name="space" unicode=" " horiz-adv-x="227" 
 />
    <glyph glyph-name="numbersign" unicode="#" horiz-adv-x="701" 
d="M104 417l10 82h135l66 201h87l-66 -201h125l66 201h87l-66 -201h116l-10 -82h-133l-43 -134h119l-10 -82h-136l-65 -201h-87l65 201h-125l-65 -201h-87l65 201h-115l10 82h132l43 134h-118zM309 417l-43 -134h125l43 134h-125z" />
    <glyph glyph-name="dollar" unicode="$" horiz-adv-x="533" 
d="M501 585l-97 -51c-18 53 -50 74 -91 74c-47 0 -87 -32 -87 -88c0 -60 56 -88 116 -117c77 -37 127 -79 127 -182c0 -68 -24 -131 -69 -169c-43 -37 -90 -53 -145 -58l-16 -84h-100l17 90c-80 24 -138 96 -140 187l95 53c7 -87 51 -144 126 -144c66 0 118 38 118 111
c0 58 -42 90 -105 121c-67 33 -137 85 -137 184c0 115 74 182 180 194l17 84h100l-18 -93c56 -21 95 -68 109 -112z" />
    <glyph glyph-name="percent" unicode="%" horiz-adv-x="885" 
d="M60 524c0 58 20 101 55 134c36 34 80 50 138 50c82 0 137 -61 137 -136c0 -58 -23 -101 -55 -134c-34 -36 -80 -50 -138 -50c-82 0 -137 61 -137 136zM239 625c-25 0 -48 -9 -64 -25s-26 -39 -26 -66c0 -37 22 -63 62 -63c25 0 48 9 64 25s26 39 26 66
c0 37 -22 63 -62 63zM465 128c0 58 20 101 55 134c36 34 80 50 138 50c82 0 137 -61 137 -136c0 -58 -20 -101 -55 -134c-36 -34 -80 -50 -138 -50c-82 0 -137 61 -137 136zM644 229c-25 0 -48 -9 -64 -25s-26 -39 -26 -66c0 -37 22 -63 62 -63c25 0 48 9 64 25s26 39 26 66
c0 37 -22 63 -62 63zM740 735l51 -49l-678 -720l-51 49z" />
    <glyph glyph-name="ampersand" unicode="&#x26;" horiz-adv-x="633" 
d="M177 534c0 59 21 99 53 129c34 31 74 45 133 45c90 0 142 -57 142 -131c0 -92 -75 -146 -167 -189l95 -156c25 36 42 67 66 119l57 -82c-20 -40 -47 -87 -75 -121l88 -148h-118l-38 67c-46 -47 -108 -75 -195 -75c-107 0 -188 70 -188 191c0 124 84 194 181 241
c-15 27 -34 66 -34 110zM365 153l-114 193c-66 -33 -118 -85 -118 -154c0 -66 42 -104 98 -104c53 0 96 24 134 65zM350 616c-43 0 -77 -30 -77 -85c0 -25 8 -47 21 -71c46 20 112 50 112 102c0 39 -24 54 -56 54z" />
    <glyph glyph-name="quotesingle" unicode="'" horiz-adv-x="294" 
d="M124 469l17 239h128l-77 -239h-68z" />
    <glyph glyph-name="parenleft" unicode="(" horiz-adv-x="293" 
d="M249 750h103c-132 -161 -203 -332 -203 -544c0 -89 17 -189 48 -256h-103c-26 63 -48 148 -48 262c0 204 71 399 203 538z" />
    <glyph glyph-name="parenright" unicode=")" horiz-adv-x="293" 
d="M38 -50h-103c132 161 203 332 203 544c0 89 -16 189 -47 256h103c26 -63 47 -148 47 -262c0 -204 -71 -399 -203 -538z" />
    <glyph glyph-name="asterisk" unicode="*" horiz-adv-x="492" 
d="M347 708l-25 -124l127 39l17 -85l-134 -39l54 -101l-79 -51l-55 100l-92 -100l-67 51l99 101l-110 39l39 85l113 -39l25 124h88z" />
    <glyph glyph-name="plus" unicode="+" horiz-adv-x="579" 
d="M273 539h93l-34 -176h177l-18 -92h-177l-35 -177h-93l35 177h-176l18 92h176z" />
    <glyph glyph-name="comma" unicode="," horiz-adv-x="357" 
d="M-6 -132l119 260h143l-185 -260h-77z" />
    <glyph glyph-name="hyphen" unicode="-" horiz-adv-x="488" 
d="M51 271l17 92h353l-17 -92h-353z" />
    <glyph glyph-name="period" unicode="." horiz-adv-x="291" 
d="M97 143c41 0 74 -32 74 -74s-33 -74 -74 -74s-74 32 -74 74s33 74 74 74z" />
    <glyph glyph-name="slash" unicode="/" horiz-adv-x="525" 
d="M496 750h113l-587 -800h-112z" />
    <glyph glyph-name="zero" unicode="0" horiz-adv-x="594" 
d="M365 708c123 0 196 -87 196 -253c0 -196 -87 -463 -332 -463c-123 0 -196 87 -196 253c0 196 87 463 332 463zM346 612c-149 0 -206 -221 -206 -354c0 -118 34 -170 108 -170c149 0 206 221 206 354c0 118 -34 170 -108 170z" />
    <glyph glyph-name="one" unicode="1" horiz-adv-x="405" 
d="M309 700h44l-137 -700h-107l107 550l-146 -78l22 112z" />
    <glyph glyph-name="two" unicode="2" horiz-adv-x="549" 
d="M-11 0l8 44l324 340c48 50 76 82 76 144c0 52 -29 84 -78 84c-55 0 -93 -38 -113 -108l-104 19c28 111 108 185 229 185c111 0 176 -63 176 -167c0 -83 -33 -141 -88 -199l-232 -246h249l-18 -96h-429z" />
    <glyph glyph-name="three" unicode="3" horiz-adv-x="551" 
d="M7 193l105 20c6 -72 44 -125 112 -125c90 0 133 66 133 152c0 78 -46 119 -107 119c-21 0 -40 -3 -63 -13l-47 59l180 199h-220l18 96h393l-7 -36l-215 -232c9 2 19 3 28 3c83 0 147 -62 147 -183c0 -78 -12 -128 -50 -176c-43 -54 -106 -84 -203 -84
c-126 0 -198 95 -204 201z" />
    <glyph glyph-name="four" unicode="4" horiz-adv-x="572" 
d="M275 0l28 140h-297l9 48l385 512h119l-91 -464h79l-18 -96h-79l-28 -140h-107zM164 236h157l57 293z" />
    <glyph glyph-name="five" unicode="5" horiz-adv-x="547" 
d="M18 184l102 18v-11c0 -65 42 -103 104 -103c79 0 140 66 140 172c0 70 -36 108 -101 108c-53 0 -107 -28 -148 -72l-66 14l110 390h355l-18 -96h-262l-55 -175c24 19 65 35 108 35c114 0 184 -61 184 -196c0 -163 -100 -276 -266 -276c-110 0 -188 77 -188 174
c0 6 0 12 1 18z" />
    <glyph glyph-name="six" unicode="6" horiz-adv-x="562" 
d="M302 448c109 0 184 -73 184 -194c0 -82 -25 -144 -70 -190c-47 -48 -111 -72 -186 -72c-122 0 -201 77 -201 189c0 71 24 120 65 174l269 353h125l-205 -262c8 2 15 2 19 2zM283 352c-85 0 -147 -71 -147 -156c0 -66 39 -108 96 -108c85 0 147 66 147 153
c0 78 -42 111 -96 111z" />
    <glyph glyph-name="seven" unicode="7" horiz-adv-x="501" 
d="M534 700l-10 -48l-388 -652h-115l360 604h-276l19 96h410z" />
    <glyph glyph-name="eight" unicode="8" horiz-adv-x="553" 
d="M345 708c102 0 168 -59 168 -174c0 -77 -59 -141 -109 -159c35 -18 74 -68 74 -144c0 -74 -21 -125 -58 -165c-47 -51 -121 -74 -202 -74c-116 0 -196 67 -196 187c0 89 57 163 139 199c-30 27 -52 76 -52 126c0 62 26 115 74 154c40 33 96 50 162 50zM272 320
c-76 0 -143 -49 -143 -130c0 -61 41 -102 98 -102c45 0 75 11 102 34s42 56 42 101c0 64 -40 97 -99 97zM329 616c-62 0 -117 -46 -117 -110c0 -55 34 -87 79 -87c69 0 119 47 119 113c0 56 -37 84 -81 84z" />
    <glyph glyph-name="nine" unicode="9" horiz-adv-x="562" 
d="M263 252c-109 0 -184 73 -184 194c0 82 25 144 70 190c47 48 111 72 186 72c122 0 201 -77 201 -189c0 -71 -24 -120 -65 -174l-269 -353h-125l205 262c-8 -2 -15 -2 -19 -2zM282 348c85 0 147 71 147 156c0 66 -39 108 -96 108c-85 0 -147 -66 -147 -153
c0 -78 42 -111 96 -111z" />
    <glyph glyph-name="colon" unicode=":" horiz-adv-x="309" 
d="M110 143c41 0 74 -32 74 -74s-33 -74 -74 -74s-74 32 -74 74s33 74 74 74zM173 466c41 0 74 -32 74 -74s-33 -74 -74 -74s-74 32 -74 74s33 74 74 74z" />
    <glyph glyph-name="semicolon" unicode=";" horiz-adv-x="309" 
d="M173 466c41 0 74 -32 74 -74s-33 -74 -74 -74s-74 32 -74 74s33 74 74 74zM-65 -132l119 260h143l-185 -260h-77z" />
    <glyph glyph-name="less" unicode="&#x3c;" horiz-adv-x="465" 
d="M35 258v104l364 192v-111l-253 -133l253 -133v-111z" />
    <glyph glyph-name="equal" unicode="=" horiz-adv-x="591" 
d="M79 347v92h415v-92h-415zM79 181v92h415v-92h-415z" />
    <glyph glyph-name="greater" unicode="&#x3e;" horiz-adv-x="465" 
d="M430 362v-104l-364 -192v111l253 133l-253 133v111z" />
    <glyph glyph-name="question" unicode="?" horiz-adv-x="452" 
d="M347 319c-37 -88 -84 -112 -159 -112c-65 0 -115 40 -115 111c0 67 52 111 112 136l95 40c39 17 57 36 57 76c0 34 -25 54 -60 54c-52 0 -87 -31 -112 -91l-94 24c32 91 108 151 213 151c102 0 156 -53 156 -130c0 -65 -31 -109 -103 -142l-117 -53
c-25 -11 -54 -26 -54 -60c0 -23 16 -37 36 -37c31 0 48 23 66 59zM83 71c0 43 32 75 76 75s76 -32 76 -75s-32 -75 -76 -75s-76 32 -76 75z" />
    <glyph glyph-name="at" unicode="@" horiz-adv-x="910" 
d="M607 509h76l-53 -246c-3 -12 -6 -24 -6 -35c0 -19 13 -28 39 -28c77 0 93 88 93 172c0 168 -98 254 -260 254c-188 0 -334 -131 -334 -351c0 -184 125 -277 275 -277c98 0 162 14 273 67l29 -90c-116 -50 -183 -69 -309 -69c-211 0 -373 135 -373 358
c0 284 190 454 456 454c190 0 343 -116 343 -329c0 -158 -59 -281 -213 -281c-45 0 -89 29 -104 67c-36 -46 -87 -67 -141 -67c-103 0 -159 67 -159 170c0 141 91 238 234 238c52 0 100 -18 117 -50zM468 424c-73 0 -130 -64 -130 -138c0 -51 27 -86 79 -86
c76 0 131 61 131 139c0 58 -32 85 -80 85z" />
    <glyph glyph-name="A" unicode="A" horiz-adv-x="594" 
d="M316 700h107l107 -700h-114l-23 174h-248l-91 -174h-115zM344 561l-145 -283h182z" />
    <glyph glyph-name="B" unicode="B" horiz-adv-x="617" 
d="M167 700h231c106 0 182 -56 182 -159c0 -76 -37 -130 -102 -161c43 -17 78 -64 78 -141c0 -166 -110 -239 -246 -239h-280zM385 596h-128l-33 -172h128c60 0 115 30 115 100c0 48 -29 72 -82 72zM342 320h-138l-42 -216h135c87 0 147 38 147 124c0 60 -36 92 -102 92z
" />
    <glyph glyph-name="C" unicode="C" horiz-adv-x="675" 
d="M669 491l-109 -26c-15 95 -57 139 -146 139c-167 0 -269 -164 -269 -317c0 -130 63 -191 170 -191c89 0 144 47 196 138l99 -30c-66 -145 -166 -212 -315 -212c-148 0 -264 105 -264 285c0 219 149 431 403 431c147 0 225 -93 235 -217z" />
    <glyph glyph-name="D" unicode="D" horiz-adv-x="672" 
d="M167 700h187c161 0 279 -95 279 -297c0 -230 -163 -403 -395 -403h-208zM323 596h-67l-95 -492h69c174 0 289 123 289 289c0 156 -85 203 -196 203z" />
    <glyph glyph-name="E" unicode="E" 
d="M167 700h409l-21 -104h-298l-33 -172h239l-20 -104h-239l-42 -216h308l-21 -104h-419z" />
    <glyph glyph-name="F" unicode="F" horiz-adv-x="554" 
d="M166 700h415l-21 -104h-304l-35 -181h243l-20 -104h-243l-61 -311h-110z" />
    <glyph glyph-name="G" unicode="G" horiz-adv-x="700" 
d="M479 0l6 87c-40 -54 -102 -95 -196 -95c-141 0 -258 101 -258 280c0 239 147 436 394 436c144 0 230 -90 237 -214l-107 -31c-19 103 -67 141 -150 141c-164 0 -260 -147 -260 -315c0 -120 63 -193 170 -193c99 0 168 68 198 160h-137l19 97h246l-69 -353h-93z" />
    <glyph glyph-name="H" unicode="H" horiz-adv-x="696" 
d="M30 0l137 700h111l-54 -274h277l54 274h111l-137 -700h-111l63 322h-277l-63 -322h-111z" />
    <glyph glyph-name="I" unicode="I" horiz-adv-x="308" 
d="M30 0l137 700h111l-137 -700h-111z" />
    <glyph glyph-name="J" unicode="J" horiz-adv-x="549" 
d="M320 222l93 478h111l-100 -504c-16 -80 -45 -128 -91 -161c-41 -30 -91 -43 -155 -43c-114 0 -180 93 -180 193l110 22c0 -62 25 -111 84 -111c63 0 110 36 128 126z" />
    <glyph glyph-name="K" unicode="K" horiz-adv-x="614" 
d="M167 700h111l-52 -265l278 265h143l-336 -315l229 -385h-136l-196 343l-67 -343h-111z" />
    <glyph glyph-name="L" unicode="L" horiz-adv-x="511" 
d="M166 700h111l-116 -596h296l-21 -104h-406z" />
    <glyph glyph-name="M" unicode="M" horiz-adv-x="792" 
d="M30 0l137 700h131l77 -466l246 466h141l-137 -700h-111l88 456l-215 -392h-84l-70 408l-92 -472h-111z" />
    <glyph glyph-name="N" unicode="N" horiz-adv-x="708" 
d="M567 700h111l-137 -700h-119l-183 502l-98 -502h-111l137 700h119l183 -504z" />
    <glyph glyph-name="O" unicode="O" horiz-adv-x="727" 
d="M429 708c137 0 259 -95 259 -285c0 -137 -49 -258 -142 -340c-69 -61 -145 -91 -256 -91c-137 0 -259 95 -259 285c0 137 49 258 142 340c69 61 145 91 256 91zM409 604c-79 0 -141 -35 -186 -89c-50 -61 -77 -145 -77 -228c0 -125 65 -191 164 -191c79 0 141 35 186 89
c50 61 77 145 77 228c0 125 -65 191 -164 191z" />
    <glyph glyph-name="P" unicode="P" horiz-adv-x="591" 
d="M324 286h-127l-56 -286h-111l137 700h233c120 0 194 -63 194 -174c0 -160 -110 -240 -270 -240zM217 390h135c71 0 128 47 128 121c0 55 -31 85 -90 85h-133z" />
    <glyph glyph-name="Q" unicode="Q" horiz-adv-x="727" 
d="M428 708c137 0 259 -95 259 -285c0 -113 -33 -214 -96 -292l53 -65l-88 -74l-50 61c-59 -41 -126 -61 -217 -61c-137 0 -259 95 -259 285c0 137 49 258 142 340c69 61 145 91 256 91zM371 219l89 74l59 -74c35 56 53 126 53 194c0 125 -65 191 -164 191
c-79 0 -141 -35 -186 -89c-50 -61 -77 -145 -77 -228c0 -125 65 -191 164 -191c50 0 94 14 131 39z" />
    <glyph glyph-name="R" unicode="R" horiz-adv-x="607" 
d="M587 539c0 -126 -87 -198 -179 -217l138 -322h-126l-134 314h-83l-62 -314h-111l137 700h235c122 0 185 -63 185 -161zM223 418h125c67 0 124 36 124 104c0 47 -30 74 -82 74h-133z" />
    <glyph glyph-name="S" unicode="S" horiz-adv-x="533" 
d="M501 585l-97 -51c-18 53 -50 74 -91 74c-47 0 -87 -32 -87 -88c0 -60 56 -88 116 -117c77 -37 127 -79 127 -182c0 -68 -24 -131 -69 -169c-53 -45 -112 -60 -185 -60c-109 0 -196 83 -199 195l95 53c7 -87 51 -144 126 -144c66 0 118 38 118 111c0 58 -42 90 -105 121
c-67 33 -137 85 -137 184c0 128 92 196 217 196c89 0 152 -64 171 -123z" />
    <glyph glyph-name="T" unicode="T" horiz-adv-x="513" 
d="M56 596l21 104h493l-21 -104h-191l-116 -596h-111l116 596h-191z" />
    <glyph glyph-name="U" unicode="U" horiz-adv-x="675" 
d="M73 262l85 438h111l-88 -453c-3 -17 -5 -33 -5 -47c0 -66 31 -104 113 -104c86 0 146 52 165 151l88 453h111l-87 -448c-39 -200 -144 -260 -297 -260c-122 0 -205 64 -205 199c0 20 4 44 9 71z" />
    <glyph glyph-name="V" unicode="V" horiz-adv-x="576" 
d="M271 0h-112l-102 700h116l67 -546l283 546h120z" />
    <glyph glyph-name="W" unicode="W" horiz-adv-x="898" 
d="M822 700h116l-320 -700h-113l-49 435l-211 -435h-113l-48 700h116l20 -538l218 464h103l46 -464z" />
    <glyph glyph-name="X" unicode="X" horiz-adv-x="560" 
d="M478 700h128l-251 -327l141 -373h-119l-103 273l-203 -273h-128l292 382l-120 318h118l81 -219z" />
    <glyph glyph-name="Y" unicode="Y" horiz-adv-x="500" 
d="M52 700h118l81 -291l195 291h123l-281 -400l-59 -300h-111l59 300z" />
    <glyph glyph-name="Z" unicode="Z" 
d="M101 596l21 104h452l-11 -54l-412 -542h324l-21 -104h-479l11 54l415 542h-300z" />
    <glyph glyph-name="bracketleft" unicode="[" horiz-adv-x="336" 
d="M20 -50l154 800h209l-18 -94h-108l-119 -612h108l-18 -94h-208z" />
    <glyph glyph-name="backslash" unicode="\" horiz-adv-x="479" 
d="M48 750h105l281 -800h-105z" />
    <glyph glyph-name="bracketright" unicode="]" horiz-adv-x="336" 
d="M343 750l-155 -800h-208l17 94h108l119 612h-108l18 94h209z" />
    <glyph glyph-name="asciicircum" unicode="^" horiz-adv-x="591" 
d="M258 700h88l191 -287h-103l-132 195l-132 -195h-103z" />
    <glyph glyph-name="underscore" unicode="_" horiz-adv-x="494" 
d="M-47 -92l17 92h445l-17 -92h-445z" />
    <glyph glyph-name="grave" unicode="`" horiz-adv-x="215" 
d="M195 708l41 -148h-82l-102 148h143z" />
    <glyph glyph-name="a" unicode="a" horiz-adv-x="596" 
d="M308 512c54 0 102 -25 122 -64l10 56h105l-97 -504h-105l11 58c-29 -35 -80 -66 -146 -66c-120 0 -183 95 -183 204c0 180 102 316 283 316zM138 221c0 -89 41 -137 102 -137c106 0 163 104 163 210c0 84 -37 126 -105 126c-104 0 -160 -104 -160 -199z" />
    <glyph glyph-name="b" unicode="b" horiz-adv-x="604" 
d="M544 298c0 -164 -93 -306 -274 -306c-59 0 -113 33 -130 66l-12 -58h-105l138 708h105l-50 -260c35 39 81 64 144 64c105 0 184 -74 184 -214zM265 84c106 0 166 109 166 207c0 88 -39 129 -101 129c-98 0 -164 -100 -164 -212c0 -75 46 -124 99 -124z" />
    <glyph glyph-name="c" unicode="c" horiz-adv-x="547" 
d="M376 176l86 -39c-67 -107 -137 -145 -244 -145c-120 0 -193 85 -193 215c0 156 108 305 294 305c107 0 169 -54 188 -140l-98 -39c-18 59 -53 87 -108 87c-102 0 -165 -102 -165 -207c0 -82 35 -129 100 -129c58 0 104 36 140 92z" />
    <glyph glyph-name="d" unicode="d" horiz-adv-x="617" 
d="M306 512c58 0 104 -22 129 -61l49 257h105l-138 -708h-105l12 58c-29 -35 -84 -66 -150 -66c-118 0 -183 83 -183 201c0 177 101 319 281 319zM138 212c0 -75 40 -128 102 -128c116 0 166 126 166 210c0 83 -39 126 -101 126c-108 0 -167 -110 -167 -208z" />
    <glyph glyph-name="e" unicode="e" horiz-adv-x="561" 
d="M299 420c-69 0 -124 -47 -147 -110h251c0 61 -29 110 -104 110zM505 268l-9 -45h-363c-2 -11 -3 -22 -3 -33c0 -59 32 -106 108 -106c60 0 110 35 150 92l80 -42c-68 -101 -137 -142 -252 -142c-125 0 -193 92 -193 215c0 152 115 305 294 305c126 0 193 -82 193 -193
c0 -15 -2 -34 -5 -51z" />
    <glyph glyph-name="f" unicode="f" horiz-adv-x="345" 
d="M37 412l18 92h65l7 37c22 117 88 167 195 167c33 0 67 -10 82 -18l-38 -88c-16 9 -33 14 -52 14c-36 0 -72 -17 -82 -73l-7 -39h110l-18 -92h-110l-80 -412h-105l80 412h-65z" />
    <glyph glyph-name="g" unicode="g" horiz-adv-x="522" 
d="M84 312c0 112 81 200 207 200c34 0 74 -8 98 -22l98 50l34 -73l-79 -39c6 -15 10 -40 10 -58c0 -126 -87 -196 -210 -196c-30 0 -63 8 -85 17c-19 -10 -36 -27 -36 -49c0 -23 15 -36 45 -36h111c87 0 143 -40 143 -129c0 -133 -113 -189 -251 -189
c-121 0 -195 56 -195 143c0 51 22 94 64 126c-13 19 -20 32 -20 65c0 54 37 88 87 116c-12 19 -21 48 -21 74zM238 18h-81c-18 0 -35 1 -50 3c-21 -16 -30 -38 -30 -68c0 -44 30 -73 102 -73c54 0 131 12 131 81c0 40 -29 57 -72 57zM284 424c-55 0 -97 -38 -97 -93
c0 -45 25 -70 65 -70c55 0 97 40 97 95c0 44 -25 68 -65 68z" />
    <glyph glyph-name="h" unicode="h" horiz-adv-x="588" 
d="M161 708h105l-56 -290c41 50 103 94 182 94c76 0 125 -42 125 -112c0 -14 -2 -29 -5 -45l-69 -355h-105l63 328c3 14 4 26 4 36c0 35 -20 56 -61 56c-64 0 -148 -73 -174 -207l-41 -213h-105z" />
    <glyph glyph-name="i" unicode="i" horiz-adv-x="287" 
d="M122 504h105l-98 -504h-105zM131 646c0 40 31 73 72 73s72 -33 72 -73s-31 -71 -72 -71s-72 31 -72 71z" />
    <glyph glyph-name="j" unicode="j" horiz-adv-x="287" 
d="M-81 -212l-9 101c72 17 115 43 131 124l95 491h105l-104 -536c-23 -116 -103 -164 -218 -180zM145 646c0 40 31 73 72 73s72 -33 72 -73s-31 -71 -72 -71s-72 31 -72 71z" />
    <glyph glyph-name="k" unicode="k" horiz-adv-x="520" 
d="M161 708h105l-76 -400l194 196h137l-240 -234l160 -270h-129l-136 241l-47 -241h-105z" />
    <glyph glyph-name="l" unicode="l" horiz-adv-x="305" 
d="M169 708h105l-137 -708h-105z" />
    <glyph glyph-name="m" unicode="m" horiz-adv-x="854" 
d="M122 504h105l-16 -81c37 55 98 89 162 89c68 0 108 -34 119 -97c46 66 103 97 171 97c85 0 120 -39 120 -114c0 -12 -1 -21 -4 -37l-70 -361h-105l65 338c2 12 3 17 3 24c0 39 -21 58 -61 58c-62 0 -126 -79 -153 -218l-39 -202h-105l65 338c2 12 3 17 3 24
c0 38 -18 58 -55 58c-57 0 -130 -76 -153 -192l-45 -228h-105z" />
    <glyph glyph-name="n" unicode="n" horiz-adv-x="579" 
d="M122 504h105l-15 -80c47 61 100 88 172 88c79 0 124 -45 124 -112c0 -12 -3 -37 -6 -51l-68 -349h-105l63 328c3 14 4 23 4 32c0 38 -18 60 -58 60c-66 0 -143 -77 -165 -191l-44 -229h-105z" />
    <glyph glyph-name="o" unicode="o" horiz-adv-x="588" 
d="M25 209c0 90 28 167 79 218c63 64 134 85 216 85c129 0 208 -96 208 -217c0 -90 -28 -167 -79 -218c-63 -64 -134 -85 -216 -85c-129 0 -208 96 -208 217zM306 420c-53 0 -92 -24 -123 -63c-29 -37 -46 -84 -46 -138c0 -85 44 -135 110 -135c53 0 92 24 123 63
c29 37 46 84 46 138c0 85 -44 135 -110 135z" />
    <glyph glyph-name="p" unicode="p" horiz-adv-x="610" 
d="M269 -8c-58 0 -104 22 -129 61l-49 -257h-105l138 708h105l-12 -58c29 35 84 66 150 66c118 0 183 -83 183 -201c0 -177 -101 -319 -281 -319zM437 292c0 75 -40 128 -102 128c-116 0 -166 -126 -166 -210c0 -83 39 -126 101 -126c108 0 167 110 167 208z" />
    <glyph glyph-name="q" unicode="q" horiz-adv-x="593" 
d="M25 206c0 164 93 306 274 306c59 0 113 -33 130 -66l12 58h105l-138 -708h-105l50 260c-35 -39 -81 -64 -144 -64c-105 0 -184 74 -184 214zM304 420c-106 0 -166 -109 -166 -207c0 -88 39 -129 101 -129c98 0 164 100 164 212c0 75 -46 124 -99 124z" />
    <glyph glyph-name="r" unicode="r" horiz-adv-x="443" 
d="M129 0h-105l98 504h105l-16 -81c43 58 104 89 166 89c27 0 48 -6 62 -12l-37 -95c-15 9 -31 15 -56 15c-62 0 -149 -65 -176 -207z" />
    <glyph glyph-name="s" unicode="s" horiz-adv-x="458" 
d="M263 512c66 0 123 -32 147 -84l-77 -58c-22 33 -46 50 -81 50s-59 -18 -59 -52c0 -32 31 -47 75 -68c59 -28 115 -58 115 -140c0 -116 -78 -168 -184 -168c-115 0 -179 76 -188 144l89 40c11 -49 44 -92 102 -92c46 0 78 22 78 66c0 36 -42 58 -89 79
c-50 22 -101 60 -101 131c0 97 67 152 173 152z" />
    <glyph glyph-name="t" unicode="t" horiz-adv-x="363" 
d="M25 412l17 92h85l26 139l117 65l-40 -204h126l-17 -92h-126l-48 -246c-2 -11 -3 -22 -3 -31c0 -35 20 -51 54 -51c18 0 30 3 51 14l9 -88c-29 -13 -63 -18 -95 -18c-79 0 -124 46 -124 128c0 16 1 33 5 52l48 240h-85z" />
    <glyph glyph-name="u" unicode="u" horiz-adv-x="582" 
d="M433 0h-105l15 80c-47 -61 -100 -88 -172 -88c-79 0 -124 45 -124 112c0 12 3 37 6 51l68 349h105l-63 -328c-3 -14 -4 -23 -4 -32c0 -38 18 -60 58 -60c66 0 143 77 165 191l44 229h105z" />
    <glyph glyph-name="v" unicode="v" horiz-adv-x="446" 
d="M25 504h105l39 -370l181 370h111l-260 -504h-103z" />
    <glyph glyph-name="w" unicode="w" horiz-adv-x="737" 
d="M623 504h112l-251 -504h-99l-18 354l-159 -354h-98l-59 504h110l21 -364l160 364h103l16 -368z" />
    <glyph glyph-name="x" unicode="x" horiz-adv-x="476" 
d="M362 504h121l-194 -241l109 -263h-110l-68 174l-137 -174h-122l218 273l-100 231h112l58 -150z" />
    <glyph glyph-name="y" unicode="y" horiz-adv-x="479" 
d="M34 504h111l53 -339l176 339h115l-391 -708h-105l124 233z" />
    <glyph glyph-name="z" unicode="z" horiz-adv-x="462" 
d="M72 412l17 92h353l-8 -42l-275 -370h221l-17 -92h-374l7 42l278 370h-202z" />
    <glyph glyph-name="braceleft" unicode="{" horiz-adv-x="332" 
d="M65 46l34 181c3 15 4 23 4 32c0 34 -18 44 -73 44l19 94c67 0 85 16 97 76l36 181c11 55 49 96 112 96h72l-18 -94h-25c-29 0 -42 -11 -48 -42l-34 -174c-14 -71 -53 -84 -90 -90c28 -5 57 -21 57 -66c0 -10 -1 -20 -4 -33l-32 -165c-1 -6 -2 -11 -2 -16
c0 -19 9 -26 34 -26h25l-18 -94h-73c-51 0 -75 32 -75 77c0 6 1 12 2 19z" />
    <glyph glyph-name="bar" unicode="|" horiz-adv-x="287" 
d="M95 750h100v-800h-100v800z" />
    <glyph glyph-name="braceright" unicode="}" horiz-adv-x="332" 
d="M265 654l-34 -181c-3 -15 -4 -23 -4 -32c0 -34 18 -44 73 -44l-19 -94c-67 0 -85 -16 -97 -76l-36 -181c-11 -55 -49 -96 -112 -96h-72l18 94h25c29 0 42 11 48 42l34 174c14 71 53 84 90 90c-28 5 -57 21 -57 66c0 10 1 20 4 33l32 165c1 6 2 11 2 16c0 19 -9 26 -34 26
h-25l18 94h73c51 0 75 -32 75 -77c0 -6 -1 -12 -2 -19z" />
    <glyph glyph-name="asciitilde" unicode="~" horiz-adv-x="644" 
d="M105 257l-46 60c42 64 101 101 162 101c85 0 119 -52 188 -52c35 0 70 19 99 47l46 -60c-42 -64 -101 -101 -162 -101c-85 0 -118 52 -188 52c-35 0 -70 -19 -99 -47z" />
    <glyph glyph-name="exclamdown" unicode="&#xa1;" horiz-adv-x="269" 
d="M26 -204h-142l119 479h89zM153 425c0 -43 -32 -75 -76 -75s-76 32 -76 75s32 75 76 75s76 -32 76 -75z" />
    <glyph glyph-name="cent" unicode="&#xa2;" horiz-adv-x="558" 
d="M406 276l86 -39c-56 -90 -115 -131 -195 -142l-28 -144h-100l28 146c-89 21 -142 99 -142 210c0 140 88 275 241 300l28 144h100l-28 -143c78 -14 125 -64 141 -136l-98 -39c-18 59 -53 87 -108 87c-102 0 -165 -102 -165 -207c0 -82 35 -129 100 -129
c58 0 104 36 140 92z" />
    <glyph glyph-name="sterling" unicode="&#xa3;" horiz-adv-x="562" 
d="M55 314l20 100h45c-2 28 -2 38 -2 49c0 157 93 245 241 245c97 0 162 -50 180 -138l-95 -41c-15 56 -51 79 -98 79c-92 0 -125 -78 -125 -159c0 -6 1 -19 2 -35h167l-19 -100h-138c0 -92 -30 -157 -113 -215c33 19 63 28 89 28c50 0 68 -35 108 -35c35 0 55 13 100 67
l62 -61c-62 -84 -109 -106 -177 -106c-79 0 -97 35 -147 35c-42 0 -76 -9 -122 -35l-48 69c74 59 151 129 151 234c0 7 0 13 -1 19h-80z" />
    <glyph glyph-name="currency" unicode="&#xa4;" horiz-adv-x="575" 
d="M443 199l88 -67l-83 -83l-67 87c-30 -20 -67 -31 -108 -31s-78 11 -108 31l-67 -87l-83 83l88 67c-19 31 -30 68 -30 108s11 77 30 108l-88 67l83 83l67 -87c30 20 67 31 108 31s78 -11 108 -31l67 87l83 -83l-88 -67c19 -31 30 -68 30 -108s-11 -77 -30 -108zM370 307
c0 62 -38 105 -97 105s-97 -43 -97 -105s38 -105 97 -105s97 43 97 105z" />
    <glyph glyph-name="yen" unicode="&#xa5;" horiz-adv-x="571" 
d="M115 700h119l72 -290l194 290h120l-214 -308h105l-18 -92h-150l-13 -67h150l-18 -92h-150l-28 -141h-110l28 141h-150l18 92h150l13 67h-150l18 92h105z" />
    <glyph glyph-name="brokenbar" unicode="&#xa6;" horiz-adv-x="257" 
d="M95 299h100v-349h-100v349zM195 401h-100v349h100v-349z" />
    <glyph glyph-name="section" unicode="&#xa7;" horiz-adv-x="584" 
d="M484 236c0 -87 -51 -125 -103 -154c15 -29 25 -61 25 -98c0 -123 -84 -196 -203 -196c-108 0 -170 67 -181 154l98 30c13 -59 46 -84 93 -84c44 0 88 25 88 93c0 74 -66 97 -138 139c-59 34 -93 78 -93 140c0 86 51 125 103 154c-15 29 -25 61 -25 98
c0 123 84 196 203 196c108 0 170 -67 181 -154l-98 -30c-13 59 -46 84 -93 84c-44 0 -88 -25 -88 -93c0 -74 66 -97 138 -139c59 -34 93 -78 93 -140zM321 138c31 14 67 32 67 87c0 61 -82 89 -155 133c-31 -14 -67 -32 -67 -87c0 -61 82 -89 155 -133z" />
    <glyph glyph-name="dieresis" unicode="&#xa8;" horiz-adv-x="328" 
d="M55 651c0 36 27 63 63 63s63 -27 63 -63s-27 -63 -63 -63s-63 27 -63 63zM240 651c0 36 27 63 63 63s63 -27 63 -63s-27 -63 -63 -63s-63 27 -63 63z" />
    <glyph glyph-name="copyright" unicode="&#xa9;" horiz-adv-x="900" 
d="M67 350c0 222 165 390 383 390s383 -168 383 -390s-165 -390 -383 -390s-383 168 -383 390zM163 350c0 -169 116 -298 287 -298s287 129 287 298s-116 298 -287 298s-287 -129 -287 -298zM543 288l85 -19c-14 -87 -90 -135 -178 -135c-100 0 -199 70 -199 216
s99 216 199 216c88 0 164 -48 178 -135l-85 -19c-17 52 -51 70 -93 70c-60 0 -105 -46 -105 -132s45 -132 105 -132c42 0 76 18 93 70z" />
    <glyph glyph-name="ordfeminine" unicode="&#xaa;" horiz-adv-x="421" 
d="M56 416c0 82 70 130 171 130h68v17c0 51 -37 69 -79 69c-32 0 -63 -15 -75 -52l-69 15c14 67 67 109 144 109c92 0 161 -40 161 -156v-248h-68l-9 54c-26 -36 -67 -58 -122 -58c-66 0 -122 38 -122 120zM142 416c0 -27 15 -48 50 -48c50 0 103 32 103 101v11h-71
c-50 0 -82 -26 -82 -64z" />
    <glyph glyph-name="guillemotleft" unicode="&#xab;" horiz-adv-x="679" 
d="M32 276l15 74l332 202l-24 -121l-210 -124l160 -132l-21 -107zM312 276l15 74l332 202l-24 -121l-210 -124l160 -132l-21 -107z" />
    <glyph glyph-name="logicalnot" unicode="&#xac;" horiz-adv-x="551" 
d="M39 305v92h449v-255h-104v163h-345z" />
    <glyph glyph-name="registered" unicode="&#xae;" horiz-adv-x="900" 
d="M67 350c0 222 165 390 383 390s383 -168 383 -390s-165 -390 -383 -390s-383 168 -383 390zM163 350c0 -169 116 -298 287 -298s287 129 287 298s-116 298 -287 298s-287 -129 -287 -298zM538 137l-122 182h-25v-182h-86v426h158c89 0 138 -44 138 -122
c0 -68 -38 -107 -92 -118l127 -186h-98zM462 483h-71v-84h71c44 0 54 20 54 42c0 23 -10 42 -54 42z" />
    <glyph glyph-name="macron" unicode="&#xaf;" horiz-adv-x="291" 
d="M64 606l19 94h257l-19 -94h-257z" />
    <glyph glyph-name="degree" unicode="&#xb0;" horiz-adv-x="350" 
d="M98 593c0 64 47 111 114 111s114 -47 114 -111s-47 -111 -114 -111s-114 47 -114 111zM171 593c0 -25 15 -42 41 -42s41 17 41 42s-15 42 -41 42s-41 -17 -41 -42z" />
    <glyph glyph-name="plusminus" unicode="&#xb1;" horiz-adv-x="659" 
d="M360 621h93l-34 -176h177l-18 -92h-177l-35 -177h-93l35 177h-176l18 92h176zM63 0l17 92h445l-17 -92h-445z" />
    <glyph glyph-name="twosuperior" unicode="&#xb2;" horiz-adv-x="386" 
d="M74 300l6 30l184 186c20 20 39 43 39 74c0 24 -11 42 -38 42c-24 0 -51 -19 -63 -60l-72 20c16 66 73 112 146 112c65 0 110 -40 110 -99c0 -51 -13 -79 -50 -116l-117 -117h134l-14 -72h-265z" />
    <glyph glyph-name="threesuperior" unicode="&#xb3;" horiz-adv-x="428" 
d="M90 417l72 10c3 -37 23 -59 60 -59s69 26 69 73c0 34 -18 55 -46 55c-14 0 -29 -5 -40 -12l-27 47l90 97h-123l14 72h238l-6 -29l-114 -120c57 0 95 -43 95 -102c0 -88 -57 -153 -155 -153c-84 0 -127 54 -127 121z" />
    <glyph glyph-name="acute" unicode="&#xb4;" horiz-adv-x="225" 
d="M44 560l98 148h143l-158 -148h-83z" />
    <glyph glyph-name="mu" unicode="&#xb5;" horiz-adv-x="583" 
d="M483 0h-104v86c-38 -62 -96 -94 -163 -94c-16 0 -31 2 -44 5v-201h-104v708h104v-328c0 -68 31 -92 78 -92c65 0 129 77 129 216v204h104v-504z" />
    <glyph glyph-name="paragraph" unicode="&#xb6;" horiz-adv-x="715" 
d="M76 471c0 146 117 229 254 229h367l-18 -92h-64l-157 -812h-103l157 812h-97l-157 -812h-103l94 484c-102 0 -173 79 -173 191z" />
    <glyph glyph-name="periodcentered" unicode="&#xb7;" horiz-adv-x="290" 
d="M150 443c41 0 74 -32 74 -74s-33 -74 -74 -74s-74 32 -74 74s33 74 74 74z" />
    <glyph glyph-name="cedilla" unicode="&#xb8;" horiz-adv-x="207" 
d="M162 -60l-115 -191l-110 56l144 135h81z" />
    <glyph glyph-name="onesuperior" unicode="&#xb9;" horiz-adv-x="335" 
d="M249 700h31l-77 -400h-78l56 292l-91 -40l16 85z" />
    <glyph glyph-name="ordmasculine" unicode="&#xba;" horiz-adv-x="441" 
d="M56 500c0 111 72 204 195 204c122 0 194 -93 194 -204s-72 -204 -194 -204c-123 0 -195 93 -195 204zM142 500c0 -67 37 -132 109 -132c71 0 108 65 108 132s-37 132 -108 132c-72 0 -109 -65 -109 -132z" />
    <glyph glyph-name="guillemotright" unicode="&#xbb;" horiz-adv-x="679" 
d="M646 344l-15 -74l-332 -202l24 121l210 124l-160 132l21 107zM366 344l-15 -74l-332 -202l24 121l210 124l-160 132l21 107z" />
    <glyph glyph-name="onequarter" unicode="&#xbc;" horiz-adv-x="899" 
d="M260 700h31l-77 -400h-78l56 292l-91 -40l16 85zM752 735l51 -49l-678 -720l-51 49zM595 0l13 71h-174l7 35l217 294h92l-50 -257h48l-14 -72h-48l-13 -71h-78zM548 143h74l28 143z" />
    <glyph glyph-name="onehalf" unicode="&#xbd;" horiz-adv-x="939" 
d="M271 700h31l-77 -400h-78l56 292l-91 -40l16 85zM752 735l51 -49l-678 -720l-51 49zM523 0l6 30l184 186c20 20 39 43 39 74c0 24 -11 42 -38 42c-24 0 -51 -19 -63 -60l-72 20c16 66 73 112 146 112c65 0 110 -40 110 -99c0 -51 -13 -79 -50 -116l-117 -117h134l-14 -72
h-265z" />
    <glyph glyph-name="threequarters" unicode="&#xbe;" horiz-adv-x="963" 
d="M816 735l51 -49l-678 -720l-51 49zM90 417l72 10c3 -37 23 -59 60 -59s69 26 69 73c0 34 -18 55 -46 55c-14 0 -29 -5 -40 -12l-27 47l90 97h-123l14 72h238l-6 -29l-114 -120c57 0 95 -43 95 -102c0 -88 -57 -153 -155 -153c-84 0 -127 54 -127 121zM649 0l13 71h-174
l7 35l217 294h92l-50 -257h48l-14 -72h-48l-13 -71h-78zM602 143h74l28 143z" />
    <glyph glyph-name="questiondown" unicode="&#xbf;" horiz-adv-x="369" 
d="M-49 177c37 88 84 112 159 112c65 0 115 -40 115 -111c0 -67 -52 -111 -112 -136l-95 -40c-39 -17 -57 -36 -57 -76c0 -34 25 -54 60 -54c52 0 87 31 112 91l94 -24c-32 -91 -108 -151 -213 -151c-102 0 -156 53 -156 130c0 65 31 109 103 142l117 53c25 11 54 26 54 60
c0 23 -16 37 -36 37c-31 0 -48 -23 -66 -59zM215 425c0 -43 -32 -75 -76 -75s-76 32 -76 75s32 75 76 75s76 -32 76 -75z" />
    <glyph glyph-name="Agrave" unicode="&#xc0;" horiz-adv-x="594" 
d="M316 700h107l107 -700h-114l-23 174h-248l-91 -174h-115zM344 561l-145 -283h182zM386 904l41 -148h-82l-102 148h143z" />
    <glyph glyph-name="Aacute" unicode="&#xc1;" horiz-adv-x="594" 
d="M316 700h107l107 -700h-114l-23 174h-248l-91 -174h-115zM344 561l-145 -283h182zM293 756l98 148h143l-158 -148h-83z" />
    <glyph glyph-name="Acircumflex" unicode="&#xc2;" horiz-adv-x="594" 
d="M316 700h107l107 -700h-114l-23 174h-248l-91 -174h-115zM344 561l-145 -283h182zM187 762l193 176h30l125 -176h-100l-55 76l-82 -76h-111z" />
    <glyph glyph-name="Atilde" unicode="&#xc3;" horiz-adv-x="594" 
d="M316 700h107l107 -700h-114l-23 174h-248l-91 -174h-115zM344 561l-145 -283h182zM238 773l-56 47c29 43 78 81 130 81c71 0 75 -41 127 -41c26 0 47 18 69 40l56 -47c-29 -43 -78 -81 -130 -81c-71 0 -75 41 -127 41c-26 0 -47 -18 -69 -40z" />
    <glyph glyph-name="Adieresis" unicode="&#xc4;" horiz-adv-x="594" 
d="M316 700h107l107 -700h-114l-23 174h-248l-91 -174h-115zM344 561l-145 -283h182zM231 847c0 36 27 63 63 63s63 -27 63 -63s-27 -63 -63 -63s-63 27 -63 63zM416 847c0 36 27 63 63 63s63 -27 63 -63s-27 -63 -63 -63s-63 27 -63 63z" />
    <glyph glyph-name="Aring" unicode="&#xc5;" horiz-adv-x="594" 
d="M316 700h107l107 -700h-114l-23 174h-248l-91 -174h-115zM344 561l-145 -283h182zM294 849c0 57 44 102 101 102c59 0 101 -45 101 -102c0 -55 -42 -98 -101 -98c-57 0 -101 43 -101 98zM359 850c0 -21 15 -37 36 -37c22 0 36 16 36 37c0 22 -14 39 -36 39
c-21 0 -36 -17 -36 -39z" />
    <glyph glyph-name="AE" unicode="&#xc6;" horiz-adv-x="851" 
d="M378 700h482l-21 -104h-298l-33 -172h239l-20 -104h-239l-42 -216h308l-21 -104h-419l34 174h-179l-106 -174h-124zM407 561l-173 -283h135l55 283h-17z" />
    <glyph glyph-name="Ccedilla" unicode="&#xc7;" horiz-adv-x="675" 
d="M669 491l-109 -26c-15 95 -57 139 -146 139c-167 0 -269 -164 -269 -317c0 -130 63 -191 170 -191c89 0 144 47 196 138l99 -30c-66 -145 -166 -212 -315 -212c-148 0 -264 105 -264 285c0 219 149 431 403 431c147 0 225 -93 235 -217zM369 -60l-115 -191l-110 56
l144 135h81z" />
    <glyph glyph-name="Egrave" unicode="&#xc8;" 
d="M167 700h409l-21 -104h-298l-33 -172h239l-20 -104h-239l-42 -216h308l-21 -104h-419zM418 904l41 -148h-82l-102 148h143z" />
    <glyph glyph-name="Eacute" unicode="&#xc9;" 
d="M167 700h409l-21 -104h-298l-33 -172h239l-20 -104h-239l-42 -216h308l-21 -104h-419zM286 756l98 148h143l-158 -148h-83z" />
    <glyph glyph-name="Ecircumflex" unicode="&#xca;" 
d="M167 700h409l-21 -104h-298l-33 -172h239l-20 -104h-239l-42 -216h308l-21 -104h-419zM196 762l193 176h30l125 -176h-100l-55 76l-82 -76h-111z" />
    <glyph glyph-name="Edieresis" unicode="&#xcb;" 
d="M167 700h409l-21 -104h-298l-33 -172h239l-20 -104h-239l-42 -216h308l-21 -104h-419zM230 847c0 36 27 63 63 63s63 -27 63 -63s-27 -63 -63 -63s-63 27 -63 63zM415 847c0 36 27 63 63 63s63 -27 63 -63s-27 -63 -63 -63s-63 27 -63 63z" />
    <glyph glyph-name="Igrave" unicode="&#xcc;" horiz-adv-x="308" 
d="M30 0l137 700h111l-137 -700h-111zM251 904l41 -148h-82l-102 148h143z" />
    <glyph glyph-name="Iacute" unicode="&#xcd;" horiz-adv-x="308" 
d="M30 0l137 700h111l-137 -700h-111zM150 756l98 148h143l-158 -148h-83z" />
    <glyph glyph-name="Icircumflex" unicode="&#xce;" horiz-adv-x="308" 
d="M30 0l137 700h111l-137 -700h-111zM52 762l193 176h30l125 -176h-100l-55 76l-82 -76h-111z" />
    <glyph glyph-name="Idieresis" unicode="&#xcf;" horiz-adv-x="308" 
d="M30 0l137 700h111l-137 -700h-111zM90 847c0 36 27 63 63 63s63 -27 63 -63s-27 -63 -63 -63s-63 27 -63 63zM275 847c0 36 27 63 63 63s63 -27 63 -63s-27 -63 -63 -63s-63 27 -63 63z" />
    <glyph glyph-name="Eth" unicode="&#xd0;" horiz-adv-x="668" 
d="M163 700h187c161 0 279 -95 279 -297c0 -230 -163 -403 -395 -403h-208l59 304h-61l17 92h62zM319 596h-67l-39 -200h118l-17 -92h-119l-38 -200h69c174 0 289 123 289 289c0 156 -85 203 -196 203z" />
    <glyph glyph-name="Ntilde" unicode="&#xd1;" horiz-adv-x="708" 
d="M567 700h111l-137 -700h-119l-183 502l-98 -502h-111l137 700h119l183 -504zM294 773l-56 47c29 43 78 81 130 81c71 0 75 -41 127 -41c26 0 47 18 69 40l56 -47c-29 -43 -78 -81 -130 -81c-71 0 -75 41 -127 41c-26 0 -47 -18 -69 -40z" />
    <glyph glyph-name="Ograve" unicode="&#xd2;" horiz-adv-x="727" 
d="M429 708c137 0 259 -95 259 -285c0 -137 -49 -258 -142 -340c-69 -61 -145 -91 -256 -91c-137 0 -259 95 -259 285c0 137 49 258 142 340c69 61 145 91 256 91zM409 604c-79 0 -141 -35 -186 -89c-50 -61 -77 -145 -77 -228c0 -125 65 -191 164 -191c79 0 141 35 186 89
c50 61 77 145 77 228c0 125 -65 191 -164 191zM462 904l41 -148h-82l-102 148h143z" />
    <glyph glyph-name="Oacute" unicode="&#xd3;" horiz-adv-x="727" 
d="M429 708c137 0 259 -95 259 -285c0 -137 -49 -258 -142 -340c-69 -61 -145 -91 -256 -91c-137 0 -259 95 -259 285c0 137 49 258 142 340c69 61 145 91 256 91zM409 604c-79 0 -141 -35 -186 -89c-50 -61 -77 -145 -77 -228c0 -125 65 -191 164 -191c79 0 141 35 186 89
c50 61 77 145 77 228c0 125 -65 191 -164 191zM367 756l98 148h143l-158 -148h-83z" />
    <glyph glyph-name="Ocircumflex" unicode="&#xd4;" horiz-adv-x="727" 
d="M429 708c137 0 259 -95 259 -285c0 -137 -49 -258 -142 -340c-69 -61 -145 -91 -256 -91c-137 0 -259 95 -259 285c0 137 49 258 142 340c69 61 145 91 256 91zM409 604c-79 0 -141 -35 -186 -89c-50 -61 -77 -145 -77 -228c0 -125 65 -191 164 -191c79 0 141 35 186 89
c50 61 77 145 77 228c0 125 -65 191 -164 191zM260 762l193 176h30l125 -176h-100l-55 76l-82 -76h-111z" />
    <glyph glyph-name="Otilde" unicode="&#xd5;" horiz-adv-x="727" 
d="M429 708c137 0 259 -95 259 -285c0 -137 -49 -258 -142 -340c-69 -61 -145 -91 -256 -91c-137 0 -259 95 -259 285c0 137 49 258 142 340c69 61 145 91 256 91zM409 604c-79 0 -141 -35 -186 -89c-50 -61 -77 -145 -77 -228c0 -125 65 -191 164 -191c79 0 141 35 186 89
c50 61 77 145 77 228c0 125 -65 191 -164 191zM308 773l-56 47c29 43 78 81 130 81c71 0 75 -41 127 -41c26 0 47 18 69 40l56 -47c-29 -43 -78 -81 -130 -81c-71 0 -75 41 -127 41c-26 0 -47 -18 -69 -40z" />
    <glyph glyph-name="Odieresis" unicode="&#xd6;" horiz-adv-x="727" 
d="M429 708c137 0 259 -95 259 -285c0 -137 -49 -258 -142 -340c-69 -61 -145 -91 -256 -91c-137 0 -259 95 -259 285c0 137 49 258 142 340c69 61 145 91 256 91zM409 604c-79 0 -141 -35 -186 -89c-50 -61 -77 -145 -77 -228c0 -125 65 -191 164 -191c79 0 141 35 186 89
c50 61 77 145 77 228c0 125 -65 191 -164 191zM295 847c0 36 27 63 63 63s63 -27 63 -63s-27 -63 -63 -63s-63 27 -63 63zM480 847c0 36 27 63 63 63s63 -27 63 -63s-27 -63 -63 -63s-63 27 -63 63z" />
    <glyph glyph-name="multiply" unicode="&#xd7;" horiz-adv-x="538" 
d="M487 162l-65 -65l-153 153l-153 -153l-65 65l153 154l-153 154l65 65l153 -153l153 153l65 -65l-153 -154z" />
    <glyph glyph-name="Oslash" unicode="&#xd8;" horiz-adv-x="727" 
d="M429 708c61 0 118 -19 164 -56l81 83l62 -59l-87 -90c25 -43 39 -98 39 -163c0 -137 -49 -258 -142 -340c-69 -61 -145 -91 -256 -91c-61 0 -119 18 -164 56l-81 -83l-62 59l87 90c-25 43 -39 97 -39 163c0 137 49 258 142 340c69 61 145 91 256 91zM409 604
c-79 0 -141 -35 -186 -89c-50 -61 -77 -145 -77 -228c0 -32 4 -59 12 -83l355 366c-27 22 -63 34 -104 34zM573 413c0 31 -4 59 -12 83l-356 -366c28 -23 63 -34 105 -34c79 0 141 35 186 89c50 61 77 145 77 228z" />
    <glyph glyph-name="Ugrave" unicode="&#xd9;" horiz-adv-x="675" 
d="M73 262l85 438h111l-88 -453c-3 -17 -5 -33 -5 -47c0 -66 31 -104 113 -104c86 0 146 52 165 151l88 453h111l-87 -448c-39 -200 -144 -260 -297 -260c-122 0 -205 64 -205 199c0 20 4 44 9 71zM434 904l41 -148h-82l-102 148h143z" />
    <glyph glyph-name="Uacute" unicode="&#xda;" horiz-adv-x="675" 
d="M73 262l85 438h111l-88 -453c-3 -17 -5 -33 -5 -47c0 -66 31 -104 113 -104c86 0 146 52 165 151l88 453h111l-87 -448c-39 -200 -144 -260 -297 -260c-122 0 -205 64 -205 199c0 20 4 44 9 71zM324 756l98 148h143l-158 -148h-83z" />
    <glyph glyph-name="Ucircumflex" unicode="&#xdb;" horiz-adv-x="675" 
d="M73 262l85 438h111l-88 -453c-3 -17 -5 -33 -5 -47c0 -66 31 -104 113 -104c86 0 146 52 165 151l88 453h111l-87 -448c-39 -200 -144 -260 -297 -260c-122 0 -205 64 -205 199c0 20 4 44 9 71zM236 762l193 176h30l125 -176h-100l-55 76l-82 -76h-111z" />
    <glyph glyph-name="Udieresis" unicode="&#xdc;" horiz-adv-x="675" 
d="M73 262l85 438h111l-88 -453c-3 -17 -5 -33 -5 -47c0 -66 31 -104 113 -104c86 0 146 52 165 151l88 453h111l-87 -448c-39 -200 -144 -260 -297 -260c-122 0 -205 64 -205 199c0 20 4 44 9 71zM270 847c0 36 27 63 63 63s63 -27 63 -63s-27 -63 -63 -63s-63 27 -63 63z
M455 847c0 36 27 63 63 63s63 -27 63 -63s-27 -63 -63 -63s-63 27 -63 63z" />
    <glyph glyph-name="Yacute" unicode="&#xdd;" horiz-adv-x="500" 
d="M52 700h118l81 -291l195 291h123l-281 -400l-59 -300h-111l59 300zM231 756l98 148h143l-158 -148h-83z" />
    <glyph glyph-name="Thorn" unicode="&#xde;" horiz-adv-x="587" 
d="M30 0l136 700h111l-27 -143h122c120 0 194 -63 194 -174c0 -160 -110 -240 -270 -240h-127l-28 -143h-111zM189 247h135c71 0 128 47 128 121c0 55 -31 85 -90 85h-133z" />
    <glyph glyph-name="germandbls" unicode="&#xdf;" horiz-adv-x="581" 
d="M53 337l18 92h48l12 64c28 147 118 215 238 215c105 0 157 -64 157 -151s-39 -136 -111 -164c48 -10 102 -62 102 -159c0 -167 -104 -242 -249 -242c-26 0 -70 4 -85 8l18 92c20 -4 46 -8 68 -8c90 0 145 44 145 144c0 68 -44 109 -115 109h-30l19 92h27
c63 0 112 41 112 107c0 54 -31 80 -76 80c-58 0 -99 -37 -113 -109l-99 -507h-103l65 337h-48z" />
    <glyph glyph-name="agrave" unicode="&#xe0;" horiz-adv-x="596" 
d="M308 512c54 0 102 -25 122 -64l10 56h105l-97 -504h-105l11 58c-29 -35 -80 -66 -146 -66c-120 0 -183 95 -183 204c0 180 102 316 283 316zM138 221c0 -89 41 -137 102 -137c106 0 163 104 163 210c0 84 -37 126 -105 126c-104 0 -160 -104 -160 -199zM348 708l41 -148
h-82l-102 148h143z" />
    <glyph glyph-name="aacute" unicode="&#xe1;" horiz-adv-x="596" 
d="M308 512c54 0 102 -25 122 -64l10 56h105l-97 -504h-105l11 58c-29 -35 -80 -66 -146 -66c-120 0 -183 95 -183 204c0 180 102 316 283 316zM138 221c0 -89 41 -137 102 -137c106 0 163 104 163 210c0 84 -37 126 -105 126c-104 0 -160 -104 -160 -199zM251 560l98 148
h143l-158 -148h-83z" />
    <glyph glyph-name="acircumflex" unicode="&#xe2;" horiz-adv-x="596" 
d="M308 512c54 0 102 -25 122 -64l10 56h105l-97 -504h-105l11 58c-29 -35 -80 -66 -146 -66c-120 0 -183 95 -183 204c0 180 102 316 283 316zM138 221c0 -89 41 -137 102 -137c106 0 163 104 163 210c0 84 -37 126 -105 126c-104 0 -160 -104 -160 -199zM168 566l193 176
h30l125 -176h-100l-55 76l-82 -76h-111z" />
    <glyph glyph-name="atilde" unicode="&#xe3;" horiz-adv-x="596" 
d="M308 512c54 0 102 -25 122 -64l10 56h105l-97 -504h-105l11 58c-29 -35 -80 -66 -146 -66c-120 0 -183 95 -183 204c0 180 102 316 283 316zM138 221c0 -89 41 -137 102 -137c106 0 163 104 163 210c0 84 -37 126 -105 126c-104 0 -160 -104 -160 -199zM207 577l-56 47
c29 43 78 81 130 81c71 0 75 -41 127 -41c26 0 47 18 69 40l56 -47c-29 -43 -78 -81 -130 -81c-71 0 -75 41 -127 41c-26 0 -47 -18 -69 -40z" />
    <glyph glyph-name="adieresis" unicode="&#xe4;" horiz-adv-x="596" 
d="M308 512c54 0 102 -25 122 -64l10 56h105l-97 -504h-105l11 58c-29 -35 -80 -66 -146 -66c-120 0 -183 95 -183 204c0 180 102 316 283 316zM138 221c0 -89 41 -137 102 -137c106 0 163 104 163 210c0 84 -37 126 -105 126c-104 0 -160 -104 -160 -199zM203 651
c0 36 27 63 63 63s63 -27 63 -63s-27 -63 -63 -63s-63 27 -63 63zM388 651c0 36 27 63 63 63s63 -27 63 -63s-27 -63 -63 -63s-63 27 -63 63z" />
    <glyph glyph-name="aring" unicode="&#xe5;" horiz-adv-x="596" 
d="M308 512c54 0 102 -25 122 -64l10 56h105l-97 -504h-105l11 58c-29 -35 -80 -66 -146 -66c-120 0 -183 95 -183 204c0 180 102 316 283 316zM138 221c0 -89 41 -137 102 -137c106 0 163 104 163 210c0 84 -37 126 -105 126c-104 0 -160 -104 -160 -199zM264 653
c0 57 44 102 101 102c59 0 101 -45 101 -102c0 -55 -42 -98 -101 -98c-57 0 -101 43 -101 98zM329 654c0 -21 15 -37 36 -37c22 0 36 16 36 37c0 22 -14 39 -36 39c-21 0 -36 -17 -36 -39z" />
    <glyph glyph-name="ae" unicode="&#xe6;" horiz-adv-x="892" 
d="M836 268l-9 -45h-363c-2 -11 -3 -22 -3 -33c0 -59 32 -106 108 -106c60 0 110 35 150 92l80 -42c-68 -101 -137 -142 -252 -142c-80 0 -137 38 -167 97c-70 -82 -129 -97 -196 -97c-88 0 -159 49 -159 142c0 131 112 176 234 176h111l3 17c2 10 3 16 3 22
c0 49 -33 71 -86 71c-46 0 -81 -25 -102 -70l-93 22c31 84 95 140 205 140c76 0 133 -26 162 -68c48 41 111 68 186 68c126 0 193 -82 193 -193c0 -15 -2 -34 -5 -51zM247 223c-56 0 -110 -20 -110 -81c0 -33 24 -58 66 -58c64 0 130 39 147 126l3 13h-106zM630 420
c-69 0 -124 -47 -147 -110h251c0 61 -29 110 -104 110z" />
    <glyph glyph-name="ccedilla" unicode="&#xe7;" horiz-adv-x="547" 
d="M376 176l86 -39c-67 -107 -137 -145 -244 -145c-120 0 -193 85 -193 215c0 156 108 305 294 305c107 0 169 -54 188 -140l-98 -39c-18 59 -53 87 -108 87c-102 0 -165 -102 -165 -207c0 -82 35 -129 100 -129c58 0 104 36 140 92zM299 -60l-115 -191l-110 56l144 135h81z
" />
    <glyph glyph-name="egrave" unicode="&#xe8;" horiz-adv-x="561" 
d="M301 420c-69 0 -124 -47 -147 -110h251c0 61 -29 110 -104 110zM507 268l-9 -45h-363c-2 -11 -3 -22 -3 -33c0 -59 32 -106 108 -106c60 0 110 35 150 92l80 -42c-68 -101 -137 -142 -252 -142c-125 0 -193 92 -193 215c0 152 115 305 294 305c126 0 193 -82 193 -193
c0 -15 -2 -34 -5 -51zM348 708l41 -148h-82l-102 148h143z" />
    <glyph glyph-name="eacute" unicode="&#xe9;" horiz-adv-x="561" 
d="M301 420c-69 0 -124 -47 -147 -110h251c0 61 -29 110 -104 110zM507 268l-9 -45h-363c-2 -11 -3 -22 -3 -33c0 -59 32 -106 108 -106c60 0 110 35 150 92l80 -42c-68 -101 -137 -142 -252 -142c-125 0 -193 92 -193 215c0 152 115 305 294 305c126 0 193 -82 193 -193
c0 -15 -2 -34 -5 -51zM263 560l98 148h143l-158 -148h-83z" />
    <glyph glyph-name="ecircumflex" unicode="&#xea;" horiz-adv-x="561" 
d="M301 420c-69 0 -124 -47 -147 -110h251c0 61 -29 110 -104 110zM507 268l-9 -45h-363c-2 -11 -3 -22 -3 -33c0 -59 32 -106 108 -106c60 0 110 35 150 92l80 -42c-68 -101 -137 -142 -252 -142c-125 0 -193 92 -193 215c0 152 115 305 294 305c126 0 193 -82 193 -193
c0 -15 -2 -34 -5 -51zM148 566l193 176h30l125 -176h-100l-55 76l-82 -76h-111z" />
    <glyph glyph-name="edieresis" unicode="&#xeb;" horiz-adv-x="561" 
d="M301 420c-69 0 -124 -47 -147 -110h251c0 61 -29 110 -104 110zM507 268l-9 -45h-363c-2 -11 -3 -22 -3 -33c0 -59 32 -106 108 -106c60 0 110 35 150 92l80 -42c-68 -101 -137 -142 -252 -142c-125 0 -193 92 -193 215c0 152 115 305 294 305c126 0 193 -82 193 -193
c0 -15 -2 -34 -5 -51zM190 651c0 36 27 63 63 63s63 -27 63 -63s-27 -63 -63 -63s-63 27 -63 63zM375 651c0 36 27 63 63 63s63 -27 63 -63s-27 -63 -63 -63s-63 27 -63 63z" />
    <glyph glyph-name="igrave" unicode="&#xec;" horiz-adv-x="287" 
d="M122 504h105l-98 -504h-105zM205 708l41 -148h-82l-102 148h143z" />
    <glyph glyph-name="iacute" unicode="&#xed;" horiz-adv-x="287" 
d="M122 504h105l-98 -504h-105zM110 560l98 148h143l-158 -148h-83z" />
    <glyph glyph-name="icircumflex" unicode="&#xee;" horiz-adv-x="287" 
d="M122 504h105l-98 -504h-105zM7 566l193 176h30l125 -176h-100l-55 76l-82 -76h-111z" />
    <glyph glyph-name="idieresis" unicode="&#xef;" horiz-adv-x="287" 
d="M122 504h105l-98 -504h-105zM42 651c0 36 27 63 63 63s63 -27 63 -63s-27 -63 -63 -63s-63 27 -63 63zM227 651c0 36 27 63 63 63s63 -27 63 -63s-27 -63 -63 -63s-63 27 -63 63z" />
    <glyph glyph-name="eth" unicode="&#xf0;" horiz-adv-x="585" 
d="M291 538l-59 48l43 48c-23 14 -48 27 -75 40l66 76c27 -13 52 -26 74 -41l45 52l59 -48l-44 -49c82 -70 125 -175 125 -304c0 -191 -79 -368 -300 -368c-125 0 -200 98 -200 210c0 175 116 310 295 310c37 0 69 -11 87 -27c-11 40 -32 72 -71 105zM302 420
c-105 0 -166 -104 -166 -202c0 -76 31 -134 101 -134c107 0 169 99 169 204c0 78 -30 132 -104 132z" />
    <glyph glyph-name="ntilde" unicode="&#xf1;" horiz-adv-x="579" 
d="M122 504h105l-15 -80c47 61 100 88 172 88c79 0 124 -45 124 -112c0 -12 -3 -37 -6 -51l-68 -349h-105l63 328c3 14 4 23 4 32c0 38 -18 60 -58 60c-66 0 -143 -77 -165 -191l-44 -229h-105zM214 577l-56 47c29 43 78 81 130 81c71 0 75 -41 127 -41c26 0 47 18 69 40
l56 -47c-29 -43 -78 -81 -130 -81c-71 0 -75 41 -127 41c-26 0 -47 -18 -69 -40z" />
    <glyph glyph-name="ograve" unicode="&#xf2;" horiz-adv-x="588" 
d="M25 209c0 90 28 167 79 218c63 64 134 85 216 85c129 0 208 -96 208 -217c0 -90 -28 -167 -79 -218c-63 -64 -134 -85 -216 -85c-129 0 -208 96 -208 217zM306 420c-53 0 -92 -24 -123 -63c-29 -37 -46 -84 -46 -138c0 -85 44 -135 110 -135c53 0 92 24 123 63
c29 37 46 84 46 138c0 85 -44 135 -110 135zM342 708l41 -148h-82l-102 148h143z" />
    <glyph glyph-name="oacute" unicode="&#xf3;" horiz-adv-x="588" 
d="M25 209c0 90 28 167 79 218c63 64 134 85 216 85c129 0 208 -96 208 -217c0 -90 -28 -167 -79 -218c-63 -64 -134 -85 -216 -85c-129 0 -208 96 -208 217zM306 420c-53 0 -92 -24 -123 -63c-29 -37 -46 -84 -46 -138c0 -85 44 -135 110 -135c53 0 92 24 123 63
c29 37 46 84 46 138c0 85 -44 135 -110 135zM236 560l98 148h143l-158 -148h-83z" />
    <glyph glyph-name="ocircumflex" unicode="&#xf4;" horiz-adv-x="588" 
d="M25 209c0 90 28 167 79 218c63 64 134 85 216 85c129 0 208 -96 208 -217c0 -90 -28 -167 -79 -218c-63 -64 -134 -85 -216 -85c-129 0 -208 96 -208 217zM306 420c-53 0 -92 -24 -123 -63c-29 -37 -46 -84 -46 -138c0 -85 44 -135 110 -135c53 0 92 24 123 63
c29 37 46 84 46 138c0 85 -44 135 -110 135zM151 566l193 176h30l125 -176h-100l-55 76l-82 -76h-111z" />
    <glyph glyph-name="otilde" unicode="&#xf5;" horiz-adv-x="588" 
d="M25 209c0 90 28 167 79 218c63 64 134 85 216 85c129 0 208 -96 208 -217c0 -90 -28 -167 -79 -218c-63 -64 -134 -85 -216 -85c-129 0 -208 96 -208 217zM306 420c-53 0 -92 -24 -123 -63c-29 -37 -46 -84 -46 -138c0 -85 44 -135 110 -135c53 0 92 24 123 63
c29 37 46 84 46 138c0 85 -44 135 -110 135zM198 577l-56 47c29 43 78 81 130 81c71 0 75 -41 127 -41c26 0 47 18 69 40l56 -47c-29 -43 -78 -81 -130 -81c-71 0 -75 41 -127 41c-26 0 -47 -18 -69 -40z" />
    <glyph glyph-name="odieresis" unicode="&#xf6;" horiz-adv-x="588" 
d="M25 209c0 90 28 167 79 218c63 64 134 85 216 85c129 0 208 -96 208 -217c0 -90 -28 -167 -79 -218c-63 -64 -134 -85 -216 -85c-129 0 -208 96 -208 217zM306 420c-53 0 -92 -24 -123 -63c-29 -37 -46 -84 -46 -138c0 -85 44 -135 110 -135c53 0 92 24 123 63
c29 37 46 84 46 138c0 85 -44 135 -110 135zM188 651c0 36 27 63 63 63s63 -27 63 -63s-27 -63 -63 -63s-63 27 -63 63zM373 651c0 36 27 63 63 63s63 -27 63 -63s-27 -63 -63 -63s-63 27 -63 63z" />
    <glyph glyph-name="divide" unicode="&#xf7;" horiz-adv-x="576" 
d="M290 202c41 0 74 -32 74 -74s-33 -74 -74 -74s-74 32 -74 74s33 74 74 74zM290 574c41 0 74 -32 74 -74s-33 -74 -74 -74s-74 32 -74 74s33 74 74 74zM68 271v92h445v-92h-445z" />
    <glyph glyph-name="oslash" unicode="&#xf8;" horiz-adv-x="588" 
d="M25 209c0 90 28 167 79 218c63 64 134 85 216 85c47 0 88 -13 121 -36l77 78l59 -59l-80 -80c20 -34 31 -76 31 -120c0 -90 -28 -167 -79 -218c-63 -64 -134 -85 -216 -85c-48 0 -89 13 -121 35l-77 -77l-59 59l79 80c-20 34 -30 75 -30 120zM416 285c0 15 -2 30 -5 43
l-225 -226c17 -12 37 -18 61 -18c53 0 92 24 123 63c29 37 46 84 46 138zM306 420c-53 0 -92 -24 -123 -63c-29 -37 -46 -84 -46 -138c0 -16 1 -31 4 -44l226 227c-17 12 -38 18 -61 18z" />
    <glyph glyph-name="ugrave" unicode="&#xf9;" horiz-adv-x="582" 
d="M433 0h-105l15 80c-47 -61 -100 -88 -172 -88c-79 0 -124 45 -124 112c0 12 3 37 6 51l68 349h105l-63 -328c-3 -14 -4 -23 -4 -32c0 -38 18 -60 58 -60c66 0 143 77 165 191l44 229h105zM353 708l41 -148h-82l-102 148h143z" />
    <glyph glyph-name="uacute" unicode="&#xfa;" horiz-adv-x="582" 
d="M433 0h-105l15 80c-47 -61 -100 -88 -172 -88c-79 0 -124 45 -124 112c0 12 3 37 6 51l68 349h105l-63 -328c-3 -14 -4 -23 -4 -32c0 -38 18 -60 58 -60c66 0 143 77 165 191l44 229h105zM246 560l98 148h143l-158 -148h-83z" />
    <glyph glyph-name="ucircumflex" unicode="&#xfb;" horiz-adv-x="582" 
d="M433 0h-105l15 80c-47 -61 -100 -88 -172 -88c-79 0 -124 45 -124 112c0 12 3 37 6 51l68 349h105l-63 -328c-3 -14 -4 -23 -4 -32c0 -38 18 -60 58 -60c66 0 143 77 165 191l44 229h105zM156 566l193 176h30l125 -176h-100l-55 76l-82 -76h-111z" />
    <glyph glyph-name="udieresis" unicode="&#xfc;" horiz-adv-x="582" 
d="M433 0h-105l15 80c-47 -61 -100 -88 -172 -88c-79 0 -124 45 -124 112c0 12 3 37 6 51l68 349h105l-63 -328c-3 -14 -4 -23 -4 -32c0 -38 18 -60 58 -60c66 0 143 77 165 191l44 229h105zM190 651c0 36 27 63 63 63s63 -27 63 -63s-27 -63 -63 -63s-63 27 -63 63z
M375 651c0 36 27 63 63 63s63 -27 63 -63s-27 -63 -63 -63s-63 27 -63 63z" />
    <glyph glyph-name="yacute" unicode="&#xfd;" horiz-adv-x="479" 
d="M34 504h111l53 -339l176 339h115l-391 -708h-105l124 233zM181 560l98 148h143l-158 -148h-83z" />
    <glyph glyph-name="thorn" unicode="&#xfe;" horiz-adv-x="605" 
d="M545 298c0 -164 -93 -306 -274 -306c-59 0 -113 33 -130 66l-51 -262h-105l177 912h105l-50 -260c35 39 81 64 144 64c105 0 184 -74 184 -214zM266 84c106 0 166 109 166 207c0 88 -39 129 -101 129c-98 0 -164 -100 -164 -212c0 -75 46 -124 99 -124z" />
    <glyph glyph-name="ydieresis" unicode="&#xff;" horiz-adv-x="479" 
d="M34 504h111l53 -339l176 339h115l-391 -708h-105l124 233zM102 651c0 36 27 63 63 63s63 -27 63 -63s-27 -63 -63 -63s-63 27 -63 63zM287 651c0 36 27 63 63 63s63 -27 63 -63s-27 -63 -63 -63s-63 27 -63 63z" />
    <glyph glyph-name="dotlessi" unicode="&#x131;" horiz-adv-x="287" 
d="M122 504h105l-98 -504h-105z" />
    <glyph glyph-name="Lslash" unicode="&#x141;" horiz-adv-x="518" 
d="M173 700h111l-55 -282l118 60l30 -81l-169 -85l-40 -208h296l-21 -104h-406l48 250l-66 -33l-30 80l117 59z" />
    <glyph glyph-name="lslash" unicode="&#x142;" horiz-adv-x="339" 
d="M190 708h105l-51 -265l66 33l27 -81l-113 -56l-66 -339h-105l55 282l-66 -33l-27 81l113 56z" />
    <glyph glyph-name="OE" unicode="&#x152;" horiz-adv-x="1041" 
d="M641 700h409l-21 -104h-298l-33 -172h239l-20 -104h-239l-42 -216h308l-21 -104h-419l11 58c-61 -45 -130 -66 -225 -66c-137 0 -259 95 -259 285c0 137 49 258 142 340c69 61 145 91 256 91c76 0 148 -29 196 -88zM409 604c-79 0 -141 -35 -186 -89
c-50 -61 -77 -145 -77 -228c0 -125 65 -191 164 -191c79 0 141 35 186 89c50 61 77 145 77 228c0 125 -65 191 -164 191z" />
    <glyph glyph-name="oe" unicode="&#x153;" horiz-adv-x="950" 
d="M894 268l-9 -45h-363c-2 -11 -3 -22 -3 -33c0 -59 32 -106 108 -106c60 0 110 35 150 92l80 -42c-68 -101 -137 -142 -252 -142c-73 0 -127 31 -159 82c-62 -62 -132 -82 -213 -82c-129 0 -208 96 -208 217c0 90 28 167 79 218c63 64 134 85 216 85c79 0 139 -37 174 -93
c51 56 124 93 212 93c126 0 193 -82 193 -193c0 -15 -2 -34 -5 -51zM306 420c-53 0 -92 -24 -123 -63c-29 -37 -46 -84 -46 -138c0 -85 44 -135 110 -135c53 0 92 24 123 63c29 37 46 84 46 138c0 85 -44 135 -110 135zM688 420c-69 0 -124 -47 -147 -110h251
c0 61 -29 110 -104 110z" />
    <glyph glyph-name="Scaron" unicode="&#x160;" horiz-adv-x="533" 
d="M501 585l-97 -51c-18 53 -50 74 -91 74c-47 0 -87 -32 -87 -88c0 -60 56 -88 116 -117c77 -37 127 -79 127 -182c0 -68 -24 -131 -69 -169c-53 -45 -112 -60 -185 -60c-109 0 -196 83 -199 195l95 53c7 -87 51 -144 126 -144c66 0 118 38 118 111c0 58 -42 90 -105 121
c-67 33 -137 85 -137 184c0 128 92 196 217 196c89 0 152 -64 171 -123zM545 938l-193 -176h-30l-125 176h100l55 -76l82 76h111z" />
    <glyph glyph-name="scaron" unicode="&#x161;" horiz-adv-x="458" 
d="M263 512c66 0 123 -32 147 -84l-77 -58c-22 33 -46 50 -81 50s-59 -18 -59 -52c0 -32 31 -47 75 -68c59 -28 115 -58 115 -140c0 -116 -78 -168 -184 -168c-115 0 -179 76 -188 144l89 40c11 -49 44 -92 102 -92c46 0 78 22 78 66c0 36 -42 58 -89 79
c-50 22 -101 60 -101 131c0 97 67 152 173 152zM489 742l-193 -176h-30l-125 176h100l55 -76l82 76h111z" />
    <glyph glyph-name="Ydieresis" unicode="&#x178;" horiz-adv-x="500" 
d="M52 700h118l81 -291l195 291h123l-281 -400l-59 -300h-111l59 300zM173 847c0 36 27 63 63 63s63 -27 63 -63s-27 -63 -63 -63s-63 27 -63 63zM358 847c0 36 27 63 63 63s63 -27 63 -63s-27 -63 -63 -63s-63 27 -63 63z" />
    <glyph glyph-name="Zcaron" unicode="&#x17d;" 
d="M101 596l21 104h452l-11 -54l-412 -542h324l-21 -104h-479l11 54l415 542h-300zM556 938l-193 -176h-30l-125 176h100l55 -76l82 76h111z" />
    <glyph glyph-name="zcaron" unicode="&#x17e;" horiz-adv-x="462" 
d="M72 412l17 92h353l-8 -42l-275 -370h221l-17 -92h-374l7 42l278 370h-202zM478 742l-193 -176h-30l-125 176h100l55 -76l82 76h111z" />
    <glyph glyph-name="florin" unicode="&#x192;" horiz-adv-x="437" 
d="M114 412l18 92h85l5 26c24 123 97 178 203 178c37 0 67 -9 80 -18l-38 -88c-19 11 -38 14 -57 14c-44 0 -73 -24 -83 -79l-6 -33h111l-18 -92h-111l-88 -446c-24 -123 -97 -178 -203 -178c-37 0 -67 9 -80 18l38 88c19 -11 38 -14 57 -14c44 0 72 24 83 79l89 453h-85z
" />
    <glyph glyph-name="circumflex" unicode="&#x2c6;" horiz-adv-x="404" 
d="M65 566l193 176h30l125 -176h-100l-55 76l-82 -76h-111z" />
    <glyph glyph-name="caron" unicode="&#x2c7;" horiz-adv-x="380" 
d="M429 742l-193 -176h-30l-125 176h100l55 -76l82 76h111z" />
    <glyph glyph-name="breve" unicode="&#x2d8;" horiz-adv-x="247" 
d="M217 700h81c-12 -65 -65 -109 -136 -109c-61 0 -96 37 -96 89c0 7 0 10 2 20h81c-1 -4 -1 -6 -1 -8c0 -18 11 -27 28 -27c23 0 37 14 41 35z" />
    <glyph glyph-name="dotaccent" unicode="&#x2d9;" horiz-adv-x="287" 
d="M131 646c0 40 31 73 72 73s72 -33 72 -73s-31 -71 -72 -71s-72 31 -72 71z" />
    <glyph glyph-name="ring" unicode="&#x2da;" horiz-adv-x="206" 
d="M55 653c0 57 44 102 101 102c59 0 101 -45 101 -102c0 -55 -42 -98 -101 -98c-57 0 -101 43 -101 98zM120 654c0 -21 15 -37 36 -37c22 0 36 16 36 37c0 22 -14 39 -36 39c-21 0 -36 -17 -36 -39z" />
    <glyph glyph-name="ogonek" unicode="&#x2db;" horiz-adv-x="230" 
d="M45 -60h69c-25 -17 -72 -50 -72 -84c0 -14 9 -24 23 -24c21 0 34 13 58 43l42 -41c-41 -52 -75 -74 -127 -74c-44 0 -76 26 -76 72c0 50 36 81 83 108z" />
    <glyph glyph-name="tilde" unicode="&#x2dc;" horiz-adv-x="408" 
d="M120 577l-56 47c29 43 78 81 130 81c71 0 75 -41 127 -41c26 0 47 18 69 40l56 -47c-29 -43 -78 -81 -130 -81c-71 0 -75 41 -127 41c-26 0 -47 -18 -69 -40z" />
    <glyph glyph-name="hungarumlaut" unicode="&#x2dd;" horiz-adv-x="431" 
d="M46 560l98 148h143l-158 -148h-83zM246 560l98 148h143l-158 -148h-83z" />
    <glyph glyph-name="Delta" unicode="&#x2206;" horiz-adv-x="660" 
d="M-2 0v26l244 674h90l244 -674v-26h-578zM287 560l-162 -466h324z" />
    <glyph glyph-name="Omega" unicode="&#x2126;" horiz-adv-x="688" 
d="M70 0v94h128s-102 162 -102 346c0 150 97 268 248 268s248 -118 248 -268c0 -184 -102 -346 -102 -346h128v-94h-233v36s102 197 102 404c0 104 -41 174 -143 174s-143 -70 -143 -174c0 -207 102 -404 102 -404v-36h-233z" />
    <glyph glyph-name="endash" unicode="&#x2013;" horiz-adv-x="560" 
d="M50 271l17 92h433l-17 -92h-433z" />
    <glyph glyph-name="emdash" unicode="&#x2014;" horiz-adv-x="747" 
d="M50 271l17 92h620l-17 -92h-620z" />
    <glyph glyph-name="quoteleft" unicode="&#x2018;" horiz-adv-x="285" 
d="M221 708l31 -222h-77l-96 222h142z" />
    <glyph glyph-name="quoteright" unicode="&#x2019;" horiz-adv-x="252" 
d="M50 486l116 222h143l-182 -222h-77z" />
    <glyph glyph-name="quotesinglbase" unicode="&#x201a;" horiz-adv-x="340" 
d="M-5 -14l116 222h143l-182 -222h-77z" />
    <glyph glyph-name="quotedblleft" unicode="&#x201c;" horiz-adv-x="485" 
d="M221 708l31 -222h-77l-96 222h142zM421 708l31 -222h-77l-96 222h142z" />
    <glyph glyph-name="quotedblright" unicode="&#x201d;" horiz-adv-x="452" 
d="M50 486l116 222h143l-182 -222h-77zM250 486l116 222h143l-182 -222h-77z" />
    <glyph glyph-name="quotedblbase" unicode="&#x201e;" horiz-adv-x="540" 
d="M-5 -14l116 222h143l-182 -222h-77zM195 -14l116 222h143l-182 -222h-77z" />
    <glyph glyph-name="dagger" unicode="&#x2020;" horiz-adv-x="461" 
d="M65 412l16 92h127l48 246h101l-48 -246h127l-17 -92h-127l-90 -462h-101l90 462h-126z" />
    <glyph glyph-name="daggerdbl" unicode="&#x2021;" horiz-adv-x="461" 
d="M65 412l16 92h127l48 246h101l-48 -246h127l-17 -92h-127l-25 -124h127l-17 -92h-127l-48 -246h-101l48 246h-126l17 92h126l25 124h-126z" />
    <glyph glyph-name="bullet" unicode="&#x2022;" horiz-adv-x="369" 
d="M70 330c0 59 46 105 105 105s105 -46 105 -105s-46 -105 -105 -105s-105 46 -105 105z" />
    <glyph glyph-name="perthousand" unicode="&#x2030;" horiz-adv-x="1268" 
d="M62 524c0 58 20 101 55 134c36 34 80 50 138 50c82 0 137 -61 137 -136c0 -58 -23 -101 -55 -134c-34 -36 -80 -50 -138 -50c-82 0 -137 61 -137 136zM241 625c-25 0 -48 -9 -64 -25s-26 -39 -26 -66c0 -37 22 -63 62 -63c25 0 48 9 64 25s26 39 26 66
c0 37 -22 63 -62 63zM467 128c0 58 20 101 55 134c36 34 80 50 138 50c82 0 137 -61 137 -136c0 -58 -20 -101 -55 -134c-36 -34 -80 -50 -138 -50c-82 0 -137 61 -137 136zM646 229c-25 0 -48 -9 -64 -25s-26 -39 -26 -66c0 -37 22 -63 62 -63c25 0 48 9 64 25s26 39 26 66
c0 37 -22 63 -62 63zM857 128c0 58 20 101 55 134c36 34 80 50 138 50c82 0 137 -61 137 -136c0 -58 -20 -101 -55 -134c-36 -34 -80 -50 -138 -50c-82 0 -137 61 -137 136zM1036 229c-25 0 -48 -9 -64 -25s-26 -39 -26 -66c0 -37 22 -63 62 -63c25 0 48 9 64 25
s26 39 26 66c0 37 -22 63 -62 63zM738 735l51 -49l-678 -720l-51 49z" />
    <glyph glyph-name="guilsinglleft" unicode="&#x2039;" horiz-adv-x="399" 
d="M32 276l15 74l332 202l-24 -121l-210 -124l160 -132l-21 -107z" />
    <glyph glyph-name="guilsinglright" unicode="&#x203a;" horiz-adv-x="399" 
d="M366 344l-15 -74l-332 -202l24 121l210 124l-160 132l21 107z" />
    <glyph glyph-name="fraction" unicode="&#x2044;" horiz-adv-x="741" 
d="M684 735l51 -49l-678 -720l-51 49z" />
    <glyph glyph-name="Euro" unicode="&#x20ac;" horiz-adv-x="615" 
d="M35 380l63 92h52c60 158 177 236 309 236c98 0 161 -50 185 -121l-98 -50c-18 47 -53 77 -106 77c-83 0 -144 -43 -183 -142h236l-64 -92h-200l-11 -60h246l-64 -92h-190c0 -93 49 -142 129 -142c57 0 90 28 130 76l78 -50c-56 -83 -126 -120 -227 -120
c-132 0 -217 93 -217 236h-97l64 92h43l11 60h-89z" />
    <glyph glyph-name="trademark" unicode="&#x2122;" horiz-adv-x="831" 
d="M77 624l14 76h295l-14 -76h-105l-63 -324h-85l63 324h-105zM371 300l77 400h86l49 -244l148 244h91l-77 -400h-85l44 226l-112 -189h-54l-38 189l-44 -226h-85z" />
    <glyph glyph-name="partialdiff" unicode="&#x2202;" horiz-adv-x="614" 
d="M46 213c0 166 109 299 293 299c37 0 79 -13 98 -30c-12 85 -56 134 -132 134c-42 0 -87 -26 -107 -81l-103 31c27 82 112 142 209 142c181 0 245 -115 245 -346c0 -190 -77 -370 -301 -370c-128 0 -202 92 -202 221zM327 420c-105 0 -170 -104 -170 -202
c0 -76 31 -134 105 -134c107 0 169 108 169 207c0 85 -31 129 -104 129z" />
    <glyph glyph-name="product" unicode="&#x220f;" horiz-adv-x="531" 
d="M72 0v700h387v-700h-104v606h-179v-606h-104z" />
    <glyph glyph-name="summation" unicode="&#x2211;" horiz-adv-x="552" 
d="M482 0h-430v45l192 305l-192 305v45h430v-94h-288l154 -244v-24l-154 -244h288v-94z" />
    <glyph glyph-name="minus" unicode="&#x2212;" horiz-adv-x="578" 
d="M44 271l17 92h445l-17 -92h-445z" />
    <glyph glyph-name="radical" unicode="&#x221a;" horiz-adv-x="546" 
d="M446 708h98l-217 -708h-83l-98 295h-110v94h168l80 -241z" />
    <glyph glyph-name="infinity" unicode="&#x221e;" horiz-adv-x="877" 
d="M640 168c-67 0 -148 29 -198 99c-50 -70 -131 -99 -198 -99c-120 0 -189 78 -189 191s69 191 189 191c67 0 148 -29 198 -99c50 70 131 99 198 99c120 0 189 -78 189 -191s-69 -191 -189 -191zM259 260c39 0 94 26 132 99c-38 73 -93 99 -132 99c-58 0 -101 -33 -101 -99
s43 -99 101 -99zM625 260c58 0 101 33 101 99s-43 99 -101 99c-39 0 -93 -26 -131 -99c38 -73 92 -99 131 -99z" />
    <glyph glyph-name="integral" unicode="&#x222b;" horiz-adv-x="437" 
d="M110 -41l112 571c24 123 97 178 203 178c37 0 67 -9 80 -18l-38 -88c-19 11 -38 14 -57 14c-44 0 -72 -24 -83 -79l-112 -571c-24 -123 -97 -178 -203 -178c-37 0 -67 9 -80 18l38 88c19 -11 38 -14 57 -14c44 0 72 24 83 79z" />
    <glyph glyph-name="approxequal" unicode="&#x2248;" horiz-adv-x="573" 
d="M77 357l-46 60c42 64 101 101 162 101c85 0 119 -52 188 -52c35 0 70 19 99 47l46 -60c-42 -64 -101 -101 -162 -101c-85 0 -118 52 -188 52c-35 0 -70 -19 -99 -47zM76 157l-46 60c42 64 101 101 162 101c85 0 119 -52 188 -52c35 0 70 19 99 47l46 -60
c-42 -64 -101 -101 -162 -101c-85 0 -118 52 -188 52c-35 0 -70 -19 -99 -47z" />
    <glyph glyph-name="notequal" unicode="&#x2260;" horiz-adv-x="605" 
d="M95 347v92h228l61 107l80 -46l-36 -61h82v-92h-134l-42 -74h176v-92h-228l-61 -107l-80 46l36 61h-82v92h134l42 74h-176z" />
    <glyph glyph-name="pi" unicode="&#x3c0;" horiz-adv-x="562" 
d="M36 410v94h501v-94h-85v-410h-104v410h-123v-410h-104v410h-85z" />
    <glyph glyph-name="lessequal" unicode="&#x2264;" horiz-adv-x="573" 
d="M90 350v104l364 192v-111l-253 -133l253 -133v-111zM44 0v92h457v-92h-457z" />
    <glyph glyph-name="greaterequal" unicode="&#x2265;" horiz-adv-x="573" 
d="M462 454v-104l-364 -192v111l253 133l-253 133v111zM508 92v-92h-457v92h457z" />
    <glyph glyph-name="lozenge" unicode="&#x25ca;" horiz-adv-x="524" 
d="M211 0l-179 350l179 350h102l179 -350l-179 -350h-102zM262 92l127 258l-127 257l-127 -257z" />
    <glyph glyph-name="uniF8FF" unicode="&#xf8ff;" horiz-adv-x="780" 
d="M686 617v-595c0 -11 -9 -22 -22 -22c-2 0 -3 0 -7 1l-267 77l-267 -77c-4 -1 -5 -1 -7 -1c-13 0 -22 11 -22 22v595c0 10 7 19 16 22l270 78c3 1 8 2 10 2s7 -1 10 -2l270 -78c9 -3 16 -12 16 -22zM368 366v303l-230 -67c8 -125 106 -225 230 -236zM412 669v-303
c124 11 222 111 230 236zM137 463v-412l231 67v204c-98 8 -183 62 -231 141zM643 51v412c-49 -79 -133 -133 -231 -141v-204z" />
    <glyph glyph-name="No" horiz-adv-x="1307" 
d="M567 700h111l-137 -700h-119l-183 502l-98 -502h-111l137 700h119l183 -504zM744 405c0 90 28 167 79 218c63 64 134 85 216 85c129 0 208 -96 208 -217c0 -90 -28 -167 -79 -218c-63 -64 -134 -85 -216 -85c-129 0 -208 96 -208 217zM1025 616c-53 0 -92 -24 -123 -63
c-29 -37 -46 -84 -46 -138c0 -85 44 -135 110 -135c53 0 92 24 123 63c29 37 46 84 46 138c0 85 -44 135 -110 135zM687 0l17 92h445l-17 -92h-445z" />
    <glyph glyph-name="foursuperior" unicode="&#x2074;" horiz-adv-x="395" 
d="M196 300l13 71h-174l7 35l217 294h92l-50 -257h48l-14 -72h-48l-13 -71h-78zM149 443h74l28 143z" />
    <glyph glyph-name="fivesuperior" unicode="&#x2075;" horiz-adv-x="370" 
d="M49 410l73 8c0 -31 20 -50 50 -50c46 0 76 27 76 77c0 33 -18 55 -50 55c-26 0 -48 -10 -70 -29l-58 13l64 216h217l-14 -72h-152l-28 -82c18 12 46 19 70 19c65 0 102 -47 102 -107c0 -100 -62 -162 -160 -162c-74 0 -120 51 -120 114z" />
    <glyph glyph-name="sixsuperior" unicode="&#x2076;" horiz-adv-x="358" 
d="M234 559c57 0 99 -40 99 -109c0 -93 -61 -154 -161 -154c-78 0 -120 52 -120 114c0 41 18 74 39 102l147 192h89l-118 -149c6 2 15 4 25 4zM204 487c-37 0 -70 -28 -70 -69c0 -31 20 -50 47 -50c42 0 71 29 71 71c0 29 -18 48 -48 48z" />
    <glyph glyph-name="sevensuperior" unicode="&#x2077;" horiz-adv-x="321" 
d="M350 700l-5 -30l-224 -370h-82l198 328h-156l14 72h255z" />
    <glyph glyph-name="eightsuperior" unicode="&#x2078;" horiz-adv-x="313" 
d="M230 704c63 0 101 -35 101 -94c0 -43 -29 -76 -62 -94c23 -14 41 -41 41 -81c0 -87 -67 -139 -153 -139c-76 0 -116 43 -116 104c0 58 36 100 78 116c-20 12 -32 41 -32 67c0 40 19 74 50 95c26 18 56 26 93 26zM186 478c-40 0 -66 -29 -66 -64c0 -28 18 -46 47 -46
c38 0 64 28 64 63c0 28 -15 47 -45 47zM219 646c-31 0 -60 -24 -60 -57c0 -28 15 -43 40 -43c35 0 60 26 60 59c0 26 -15 41 -40 41z" />
    <glyph glyph-name="ninesuperior" unicode="&#x2079;" horiz-adv-x="358" 
d="M161 441c-57 0 -99 40 -99 109c0 93 61 154 161 154c78 0 120 -52 120 -114c0 -41 -18 -74 -39 -102l-147 -192h-89l118 149c-6 -2 -15 -4 -25 -4zM191 513c37 0 70 28 70 69c0 31 -20 50 -47 50c-42 0 -71 -29 -71 -71c0 -29 18 -48 48 -48z" />
    <glyph glyph-name="zerosuperior" unicode="&#x2070;" horiz-adv-x="378" 
d="M244 704c75 0 128 -55 128 -155c0 -119 -64 -253 -205 -253c-75 0 -128 55 -128 155c0 119 64 253 205 253zM230 632c-80 0 -110 -106 -110 -174c0 -61 23 -90 61 -90c80 0 110 106 110 174c0 61 -23 90 -61 90z" />
    <glyph glyph-name="zero.tn" horiz-adv-x="566" 
d="M361 708c123 0 196 -87 196 -253c0 -196 -87 -463 -332 -463c-123 0 -196 87 -196 253c0 196 87 463 332 463zM342 612c-149 0 -206 -221 -206 -354c0 -118 34 -170 108 -170c149 0 206 221 206 354c0 118 -34 170 -108 170z" />
    <glyph glyph-name="one.tn" horiz-adv-x="566" 
d="M388 700h44l-137 -700h-107l107 550l-146 -78l22 112z" />
    <glyph glyph-name="two.tn" horiz-adv-x="566" 
d="M11 0l8 44l324 340c48 50 76 82 76 144c0 52 -29 84 -78 84c-55 0 -93 -38 -113 -108l-104 19c28 111 108 185 229 185c111 0 176 -63 176 -167c0 -83 -33 -141 -88 -199l-232 -246h249l-18 -96h-429z" />
    <glyph glyph-name="three.tn" horiz-adv-x="566" 
d="M40 193l105 20c6 -72 44 -125 112 -125c90 0 133 66 133 152c0 78 -46 119 -107 119c-21 0 -40 -3 -63 -13l-47 59l180 199h-220l18 96h393l-7 -36l-215 -232c9 2 19 3 28 3c83 0 147 -62 147 -183c0 -78 -12 -128 -50 -176c-43 -54 -106 -84 -203 -84
c-126 0 -198 95 -204 201z" />
    <glyph glyph-name="four.tn" horiz-adv-x="566" 
d="M268 0l28 140h-297l9 48l385 512h119l-91 -464h79l-18 -96h-79l-28 -140h-107zM157 236h157l57 293z" />
    <glyph glyph-name="five.tn" horiz-adv-x="566" 
d="M42 184l102 18v-11c0 -65 42 -103 104 -103c79 0 140 66 140 172c0 70 -36 108 -101 108c-53 0 -107 -28 -148 -72l-66 14l110 390h355l-18 -96h-262l-55 -175c24 19 65 35 108 35c114 0 184 -61 184 -196c0 -163 -100 -276 -266 -276c-110 0 -188 77 -188 174
c0 6 0 12 1 18z" />
    <glyph glyph-name="six.tn" horiz-adv-x="566" 
d="M313 448c109 0 184 -73 184 -194c0 -82 -25 -144 -70 -190c-47 -48 -111 -72 -186 -72c-122 0 -201 77 -201 189c0 71 24 120 65 174l269 353h125l-205 -262c8 2 15 2 19 2zM294 352c-85 0 -147 -71 -147 -156c0 -66 39 -108 96 -108c85 0 147 66 147 153
c0 78 -42 111 -96 111z" />
    <glyph glyph-name="seven.tn" horiz-adv-x="566" 
d="M583 700l-10 -48l-393 -652h-110l366 604h-282l19 96h410z" />
    <glyph glyph-name="eight.tn" horiz-adv-x="566" 
d="M362 708c102 0 168 -59 168 -174c0 -77 -59 -141 -109 -159c35 -18 74 -68 74 -144c0 -74 -21 -125 -58 -165c-47 -51 -121 -74 -202 -74c-116 0 -196 67 -196 187c0 89 57 163 139 199c-30 27 -52 76 -52 126c0 62 26 115 74 154c40 33 96 50 162 50zM289 320
c-76 0 -143 -49 -143 -130c0 -61 41 -102 98 -102c45 0 75 11 102 34s42 56 42 101c0 64 -40 97 -99 97zM346 616c-62 0 -117 -46 -117 -110c0 -55 34 -87 79 -87c69 0 119 47 119 113c0 56 -37 84 -81 84z" />
    <glyph glyph-name="nine.tn" horiz-adv-x="566" 
d="M266 252c-109 0 -184 73 -184 194c0 82 25 144 70 190c47 48 111 72 186 72c122 0 201 -77 201 -189c0 -71 -24 -120 -65 -174l-269 -353h-125l205 262c-8 -2 -15 -2 -19 -2zM285 348c85 0 147 71 147 156c0 66 -39 108 -96 108c-85 0 -147 -66 -147 -153
c0 -78 42 -111 96 -111z" />
    <glyph glyph-name="zeroinferior" unicode="&#x2080;" horiz-adv-x="378" 
d="M168 200c75 0 128 -55 128 -155c0 -119 -64 -253 -205 -253c-75 0 -128 55 -128 155c0 119 64 253 205 253zM154 128c-80 0 -110 -106 -110 -174c0 -61 23 -90 61 -90c80 0 110 106 110 174c0 61 -23 90 -61 90z" />
    <glyph glyph-name="oneinferior" unicode="&#x2081;" horiz-adv-x="255" 
d="M166 196h31l-77 -400h-78l56 292l-91 -40l16 85z" />
    <glyph glyph-name="twoinferior" unicode="&#x2082;" horiz-adv-x="334" 
d="M-48 -204l6 30l184 186c20 20 39 43 39 74c0 24 -11 42 -38 42c-24 0 -51 -19 -63 -60l-72 20c16 66 73 112 146 112c65 0 110 -40 110 -99c0 -51 -13 -79 -50 -116l-117 -117h134l-14 -72h-265z" />
    <glyph glyph-name="threeinferior" unicode="&#x2083;" horiz-adv-x="349" 
d="M-42 -87l72 10c3 -37 23 -59 60 -59s69 26 69 73c0 34 -18 55 -46 55c-14 0 -29 -5 -40 -12l-27 47l90 97h-123l14 72h238l-6 -29l-114 -120c57 0 95 -43 95 -102c0 -88 -57 -153 -155 -153c-84 0 -127 54 -127 121z" />
    <glyph glyph-name="fourinferior" unicode="&#x2084;" horiz-adv-x="346" 
d="M95 -204l13 71h-174l7 35l217 294h92l-50 -257h48l-14 -72h-48l-13 -71h-78zM48 -61h74l28 143z" />
    <glyph glyph-name="fiveinferior" unicode="&#x2085;" horiz-adv-x="342" 
d="M-31 -94l73 8c0 -31 20 -50 50 -50c46 0 76 27 76 77c0 33 -18 55 -50 55c-26 0 -48 -10 -70 -29l-58 13l64 216h217l-14 -72h-152l-28 -82c18 12 46 19 70 19c65 0 102 -47 102 -107c0 -100 -62 -162 -160 -162c-74 0 -120 51 -120 114z" />
    <glyph glyph-name="sixinferior" unicode="&#x2086;" horiz-adv-x="342" 
d="M141 55c57 0 99 -40 99 -109c0 -93 -61 -154 -161 -154c-78 0 -120 52 -120 114c0 41 18 74 39 102l147 192h89l-118 -149c6 2 15 4 25 4zM111 -17c-37 0 -70 -28 -70 -69c0 -31 20 -50 47 -50c42 0 71 29 71 71c0 29 -18 48 -48 48z" />
    <glyph glyph-name="seveninferior" unicode="&#x2087;" horiz-adv-x="302" 
d="M261 196l-5 -30l-224 -370h-82l198 328h-156l14 72h255z" />
    <glyph glyph-name="eightinferior" unicode="&#x2088;" horiz-adv-x="312" 
d="M133 200c63 0 101 -35 101 -94c0 -43 -29 -76 -62 -94c23 -14 41 -41 41 -81c0 -87 -67 -139 -153 -139c-76 0 -116 43 -116 104c0 58 36 100 78 116c-20 12 -32 41 -32 67c0 40 19 74 50 95c26 18 56 26 93 26zM89 -26c-40 0 -66 -29 -66 -64c0 -28 18 -46 47 -46
c38 0 64 28 64 63c0 28 -15 47 -45 47zM122 142c-31 0 -60 -24 -60 -57c0 -28 15 -43 40 -43c35 0 60 26 60 59c0 26 -15 41 -40 41z" />
    <glyph glyph-name="nineinferior" unicode="&#x2089;" horiz-adv-x="346" 
d="M85 -59c-57 0 -99 40 -99 109c0 93 61 154 161 154c78 0 120 -52 120 -114c0 -41 -18 -74 -39 -102l-147 -192h-89l118 149c-6 -2 -15 -4 -25 -4zM115 13c37 0 70 28 70 69c0 31 -20 50 -47 50c-42 0 -71 -29 -71 -71c0 -29 18 -48 48 -48z" />
    <glyph glyph-name="onethird" unicode="&#x2153;" horiz-adv-x="922" 
d="M752 735l51 -49l-678 -720l-51 49zM271 700h31l-77 -400h-78l56 292l-91 -40l16 85zM548 117l72 10c3 -37 23 -59 60 -59s69 26 69 73c0 34 -18 55 -46 55c-14 0 -29 -5 -40 -12l-27 47l90 97h-123l14 72h238l-6 -29l-114 -120c57 0 95 -43 95 -102
c0 -88 -57 -153 -155 -153c-84 0 -127 54 -127 121z" />
    <glyph glyph-name="twothirds" unicode="&#x2154;" horiz-adv-x="1021" 
d="M851 735l51 -49l-678 -720l-51 49zM647 117l72 10c3 -37 23 -59 60 -59s69 26 69 73c0 34 -18 55 -46 55c-14 0 -29 -5 -40 -12l-27 47l90 97h-123l14 72h238l-6 -29l-114 -120c57 0 95 -43 95 -102c0 -88 -57 -153 -155 -153c-84 0 -127 54 -127 121zM74 300l6 30
l184 186c20 20 39 43 39 74c0 24 -11 42 -38 42c-24 0 -51 -19 -63 -60l-72 20c16 66 73 112 146 112c65 0 110 -40 110 -99c0 -51 -13 -79 -50 -116l-117 -117h134l-14 -72h-265z" />
    <glyph glyph-name="oneeighth" unicode="&#x215b;" horiz-adv-x="878" 
d="M271 700h31l-77 -400h-78l56 292l-91 -40l16 85zM752 735l51 -49l-678 -720l-51 49zM710 404c63 0 101 -35 101 -94c0 -43 -29 -76 -62 -94c23 -14 41 -41 41 -81c0 -87 -67 -139 -153 -139c-76 0 -116 43 -116 104c0 58 36 100 78 116c-20 12 -32 41 -32 67
c0 40 19 74 50 95c26 18 56 26 93 26zM666 178c-40 0 -66 -29 -66 -64c0 -28 18 -46 47 -46c38 0 64 28 64 63c0 28 -15 47 -45 47zM699 346c-31 0 -60 -24 -60 -57c0 -28 15 -43 40 -43c35 0 60 26 60 59c0 26 -15 41 -40 41z" />
    <glyph glyph-name="threeeighths" unicode="&#x215c;" horiz-adv-x="878" 
d="M710 404c63 0 101 -35 101 -94c0 -43 -29 -76 -62 -94c23 -14 41 -41 41 -81c0 -87 -67 -139 -153 -139c-76 0 -116 43 -116 104c0 58 36 100 78 116c-20 12 -32 41 -32 67c0 40 19 74 50 95c26 18 56 26 93 26zM666 178c-40 0 -66 -29 -66 -64c0 -28 18 -46 47 -46
c38 0 64 28 64 63c0 28 -15 47 -45 47zM699 346c-31 0 -60 -24 -60 -57c0 -28 15 -43 40 -43c35 0 60 26 60 59c0 26 -15 41 -40 41zM752 735l51 -49l-678 -720l-51 49zM33 417l72 10c3 -37 23 -59 60 -59s69 26 69 73c0 34 -18 55 -46 55c-14 0 -29 -5 -40 -12l-27 47
l90 97h-123l14 72h238l-6 -29l-114 -120c57 0 95 -43 95 -102c0 -88 -57 -153 -155 -153c-84 0 -127 54 -127 121z" />
    <glyph glyph-name="fiveeighths" unicode="&#x215d;" horiz-adv-x="878" 
d="M710 404c63 0 101 -35 101 -94c0 -43 -29 -76 -62 -94c23 -14 41 -41 41 -81c0 -87 -67 -139 -153 -139c-76 0 -116 43 -116 104c0 58 36 100 78 116c-20 12 -32 41 -32 67c0 40 19 74 50 95c26 18 56 26 93 26zM666 178c-40 0 -66 -29 -66 -64c0 -28 18 -46 47 -46
c38 0 64 28 64 63c0 28 -15 47 -45 47zM699 346c-31 0 -60 -24 -60 -57c0 -28 15 -43 40 -43c35 0 60 26 60 59c0 26 -15 41 -40 41zM752 735l51 -49l-678 -720l-51 49zM39 410l73 8c0 -31 20 -50 50 -50c46 0 76 27 76 77c0 33 -18 55 -50 55c-26 0 -48 -10 -70 -29l-58 13
l64 216h217l-14 -72h-152l-28 -82c18 12 46 19 70 19c65 0 102 -47 102 -107c0 -100 -62 -162 -160 -162c-74 0 -120 51 -120 114z" />
    <glyph glyph-name="seveneighths" unicode="&#x215e;" horiz-adv-x="878" 
d="M710 404c63 0 101 -35 101 -94c0 -43 -29 -76 -62 -94c23 -14 41 -41 41 -81c0 -87 -67 -139 -153 -139c-76 0 -116 43 -116 104c0 58 36 100 78 116c-20 12 -32 41 -32 67c0 40 19 74 50 95c26 18 56 26 93 26zM666 178c-40 0 -66 -29 -66 -64c0 -28 18 -46 47 -46
c38 0 64 28 64 63c0 28 -15 47 -45 47zM699 346c-31 0 -60 -24 -60 -57c0 -28 15 -43 40 -43c35 0 60 26 60 59c0 26 -15 41 -40 41zM752 735l51 -49l-678 -720l-51 49zM409 700l-5 -30l-224 -370h-82l198 328h-156l14 72h255z" />
    <glyph glyph-name="quotedblleft.alt" horiz-adv-x="445" 
d="M446 708l18 -29c-52 -35 -84 -67 -92 -108c27 -12 40 -32 40 -59c0 -37 -28 -77 -79 -77c-42 0 -65 28 -65 64c0 83 96 164 178 209zM245 708l18 -29c-52 -35 -84 -67 -92 -108c27 -12 40 -32 40 -59c0 -37 -28 -77 -79 -77c-42 0 -65 28 -65 64c0 83 96 164 178 209z
" />
    <glyph glyph-name="quotedblright.alt" horiz-adv-x="445" 
d="M47 435l-18 29c52 35 84 67 92 108c-27 12 -40 32 -40 59c0 37 28 77 79 77c42 0 65 -28 65 -64c0 -83 -96 -164 -178 -209zM248 435l-18 29c52 35 84 67 92 108c-27 12 -40 32 -40 59c0 37 28 77 79 77c42 0 65 -28 65 -64c0 -83 -96 -164 -178 -209z" />
    <glyph glyph-name="quoteleft.alt" horiz-adv-x="244" 
d="M245 708l18 -29c-52 -35 -84 -67 -92 -108c27 -12 40 -32 40 -59c0 -37 -28 -77 -79 -77c-42 0 -65 28 -65 64c0 83 96 164 178 209z" />
    <glyph glyph-name="quoteright.alt" horiz-adv-x="244" 
d="M47 435l-18 29c52 35 84 67 92 108c-27 12 -40 32 -40 59c0 37 28 77 79 77c42 0 65 -28 65 -64c0 -83 -96 -164 -178 -209z" />
    <glyph glyph-name="quotesinglbase.alt" horiz-adv-x="344" 
d="M18 -111l-18 29c52 35 84 67 92 108c-27 12 -40 32 -40 59c0 37 28 77 79 77c42 0 65 -28 65 -64c0 -83 -96 -164 -178 -209z" />
    <glyph glyph-name="quotedblbase.alt" horiz-adv-x="545" 
d="M18 -111l-18 29c52 35 84 67 92 108c-27 12 -40 32 -40 59c0 37 28 77 79 77c42 0 65 -28 65 -64c0 -83 -96 -164 -178 -209zM219 -111l-18 29c52 35 84 67 92 108c-27 12 -40 32 -40 59c0 37 28 77 79 77c42 0 65 -28 65 -64c0 -83 -96 -164 -178 -209z" />
    <glyph glyph-name="ellipsis" unicode="&#x2026;" horiz-adv-x="827" 
d="M97 143c41 0 74 -32 74 -74s-33 -74 -74 -74s-74 32 -74 74s33 74 74 74zM365 143c41 0 74 -32 74 -74s-33 -74 -74 -74s-74 32 -74 74s33 74 74 74zM633 143c41 0 74 -32 74 -74s-33 -74 -74 -74s-74 32 -74 74s33 74 74 74z" />
    <glyph glyph-name="quotedbl" unicode="&#x22;" horiz-adv-x="467" 
d="M124 469l17 239h130l-77 -239h-70zM295 469l17 239h130l-77 -239h-70z" />
    <glyph glyph-name="exclam" unicode="!" horiz-adv-x="360" 
d="M185 700h142l-119 -479h-89zM58 71c0 43 32 75 76 75s76 -32 76 -75s-32 -75 -76 -75s-76 32 -76 75z" />
    <glyph glyph-name="Amacron" unicode="&#x100;" horiz-adv-x="594" 
d="M316 700h107l107 -700h-114l-23 174h-248l-91 -174h-115zM344 561l-145 -283h182zM265 802l19 94h257l-19 -94h-257z" />
    <glyph glyph-name="amacron" unicode="&#x101;" horiz-adv-x="596" 
d="M308 512c54 0 102 -25 122 -64l10 56h105l-97 -504h-105l11 58c-29 -35 -80 -66 -146 -66c-120 0 -183 95 -183 204c0 180 102 316 283 316zM138 221c0 -89 41 -137 102 -137c106 0 163 104 163 210c0 84 -37 126 -105 126c-104 0 -160 -104 -160 -199zM208 606l19 94
h257l-19 -94h-257z" />
    <glyph glyph-name="Abreve" unicode="&#x102;" horiz-adv-x="594" 
d="M316 700h107l107 -700h-114l-23 174h-248l-91 -174h-115zM344 561l-145 -283h182zM436 896h81c-12 -65 -65 -109 -136 -109c-61 0 -96 37 -96 89c0 7 0 10 2 20h81c-1 -4 -1 -6 -1 -8c0 -18 11 -27 28 -27c23 0 37 14 41 35z" />
    <glyph glyph-name="abreve" unicode="&#x103;" horiz-adv-x="596" 
d="M308 512c54 0 102 -25 122 -64l10 56h105l-97 -504h-105l11 58c-29 -35 -80 -66 -146 -66c-120 0 -183 95 -183 204c0 180 102 316 283 316zM138 221c0 -89 41 -137 102 -137c106 0 163 104 163 210c0 84 -37 126 -105 126c-104 0 -160 -104 -160 -199zM391 700h81
c-12 -65 -65 -109 -136 -109c-61 0 -96 37 -96 89c0 7 0 10 2 20h81c-1 -4 -1 -6 -1 -8c0 -18 11 -27 28 -27c23 0 37 14 41 35z" />
    <glyph glyph-name="Aogonek" unicode="&#x104;" horiz-adv-x="594" 
d="M461 0h-45l-23 174h-248l-91 -174h-115l377 700h107l107 -700c-25 -17 -72 -50 -72 -84c0 -14 9 -24 23 -24c21 0 34 13 58 43l42 -41c-41 -52 -75 -74 -127 -74c-44 0 -76 26 -76 72c0 50 36 81 83 108zM344 561l-145 -283h182z" />
    <glyph glyph-name="aogonek" unicode="&#x105;" horiz-adv-x="596" 
d="M379 0h-36l11 58c-29 -35 -80 -66 -146 -66c-120 0 -183 95 -183 204c0 180 102 316 283 316c54 0 102 -25 122 -64l10 56h105l-97 -504c-25 -17 -72 -50 -72 -84c0 -14 9 -24 23 -24c21 0 34 13 58 43l42 -41c-41 -52 -75 -74 -127 -74c-44 0 -76 26 -76 72
c0 50 36 81 83 108zM138 221c0 -89 41 -137 102 -137c106 0 163 104 163 210c0 84 -37 126 -105 126c-104 0 -160 -104 -160 -199z" />
    <glyph glyph-name="Aringacute" unicode="&#x1fa;" horiz-adv-x="594" 
d="M316 700h107l107 -700h-114l-23 174h-248l-91 -174h-115zM344 561l-145 -283h182zM284 823c0 57 44 102 101 102c59 0 101 -45 101 -102c0 -55 -42 -98 -101 -98c-57 0 -101 43 -101 98zM349 824c0 -21 15 -37 36 -37c22 0 36 16 36 37c0 22 -14 39 -36 39
c-21 0 -36 -17 -36 -39zM346 956l98 148h143l-158 -148h-83z" />
    <glyph glyph-name="aringacute" unicode="&#x1fb;" horiz-adv-x="596" 
d="M308 512c54 0 102 -25 122 -64l10 56h105l-97 -504h-105l11 58c-29 -35 -80 -66 -146 -66c-120 0 -183 95 -183 204c0 180 102 316 283 316zM138 221c0 -89 41 -137 102 -137c106 0 163 104 163 210c0 84 -37 126 -105 126c-104 0 -160 -104 -160 -199zM309 786l98 148
h143l-158 -148h-83zM247 653c0 57 44 102 101 102c59 0 101 -45 101 -102c0 -55 -42 -98 -101 -98c-57 0 -101 43 -101 98zM312 654c0 -21 15 -37 36 -37c22 0 36 16 36 37c0 22 -14 39 -36 39c-21 0 -36 -17 -36 -39z" />
    <glyph glyph-name="AEacute" unicode="&#x1fc;" horiz-adv-x="851" 
d="M378 700h482l-21 -104h-298l-33 -172h239l-20 -104h-239l-42 -216h308l-21 -104h-419l34 174h-179l-106 -174h-124zM407 561l-173 -283h135l55 283h-17zM515 756l98 148h143l-158 -148h-83z" />
    <glyph glyph-name="aeacute" unicode="&#x1fd;" horiz-adv-x="892" 
d="M836 268l-9 -45h-363c-2 -11 -3 -22 -3 -33c0 -59 32 -106 108 -106c60 0 110 35 150 92l80 -42c-68 -101 -137 -142 -252 -142c-80 0 -137 38 -167 97c-70 -82 -129 -97 -196 -97c-88 0 -159 49 -159 142c0 131 112 176 234 176h111l3 17c2 10 3 16 3 22
c0 49 -33 71 -86 71c-46 0 -81 -25 -102 -70l-93 22c31 84 95 140 205 140c76 0 133 -26 162 -68c48 41 111 68 186 68c126 0 193 -82 193 -193c0 -15 -2 -34 -5 -51zM247 223c-56 0 -110 -20 -110 -81c0 -33 24 -58 66 -58c64 0 130 39 147 126l3 13h-106zM630 420
c-69 0 -124 -47 -147 -110h251c0 61 -29 110 -104 110zM407 560l98 148h143l-158 -148h-83z" />
    <glyph glyph-name="Cacute" unicode="&#x106;" horiz-adv-x="675" 
d="M669 491l-109 -26c-15 95 -57 139 -146 139c-167 0 -269 -164 -269 -317c0 -130 63 -191 170 -191c89 0 144 47 196 138l99 -30c-66 -145 -166 -212 -315 -212c-148 0 -264 105 -264 285c0 219 149 431 403 431c147 0 225 -93 235 -217zM367 756l98 148h143l-158 -148
h-83z" />
    <glyph glyph-name="cacute" unicode="&#x107;" horiz-adv-x="547" 
d="M376 176l86 -39c-67 -107 -137 -145 -244 -145c-120 0 -193 85 -193 215c0 156 108 305 294 305c107 0 169 -54 188 -140l-98 -39c-18 59 -53 87 -108 87c-102 0 -165 -102 -165 -207c0 -82 35 -129 100 -129c58 0 104 36 140 92zM153 560l98 148h143l-158 -148h-83z" />
    <glyph glyph-name="Ccircumflex" unicode="&#x108;" horiz-adv-x="675" 
d="M669 491l-109 -26c-15 95 -57 139 -146 139c-167 0 -269 -164 -269 -317c0 -130 63 -191 170 -191c89 0 144 47 196 138l99 -30c-66 -145 -166 -212 -315 -212c-148 0 -264 105 -264 285c0 219 149 431 403 431c147 0 225 -93 235 -217zM268 762l193 176h30l125 -176
h-100l-55 76l-82 -76h-111z" />
    <glyph glyph-name="ccircumflex" unicode="&#x109;" horiz-adv-x="547" 
d="M376 176l86 -39c-67 -107 -137 -145 -244 -145c-120 0 -193 85 -193 215c0 156 108 305 294 305c107 0 169 -54 188 -140l-98 -39c-18 59 -53 87 -108 87c-102 0 -165 -102 -165 -207c0 -82 35 -129 100 -129c58 0 104 36 140 92zM152 566l193 176h30l125 -176h-100
l-55 76l-82 -76h-111z" />
    <glyph glyph-name="Cdotaccent" unicode="&#x10a;" horiz-adv-x="675" 
d="M669 491l-109 -26c-15 95 -57 139 -146 139c-167 0 -269 -164 -269 -317c0 -130 63 -191 170 -191c89 0 144 47 196 138l99 -30c-66 -145 -166 -212 -315 -212c-148 0 -264 105 -264 285c0 219 149 431 403 431c147 0 225 -93 235 -217zM413 842c0 40 31 73 72 73
s72 -33 72 -73s-31 -71 -72 -71s-72 31 -72 71z" />
    <glyph glyph-name="cdotaccent" unicode="&#x10b;" horiz-adv-x="547" 
d="M376 176l86 -39c-67 -107 -137 -145 -244 -145c-120 0 -193 85 -193 215c0 156 108 305 294 305c107 0 169 -54 188 -140l-98 -39c-18 59 -53 87 -108 87c-102 0 -165 -102 -165 -207c0 -82 35 -129 100 -129c58 0 104 36 140 92zM289 646c0 40 31 73 72 73
s72 -33 72 -73s-31 -71 -72 -71s-72 31 -72 71z" />
    <glyph glyph-name="Ccaron" unicode="&#x10c;" horiz-adv-x="675" 
d="M669 491l-109 -26c-15 95 -57 139 -146 139c-167 0 -269 -164 -269 -317c0 -130 63 -191 170 -191c89 0 144 47 196 138l99 -30c-66 -145 -166 -212 -315 -212c-148 0 -264 105 -264 285c0 219 149 431 403 431c147 0 225 -93 235 -217zM661 938l-193 -176h-30l-125 176
h100l55 -76l82 76h111z" />
    <glyph glyph-name="ccaron" unicode="&#x10d;" horiz-adv-x="547" 
d="M376 176l86 -39c-67 -107 -137 -145 -244 -145c-120 0 -193 85 -193 215c0 156 108 305 294 305c107 0 169 -54 188 -140l-98 -39c-18 59 -53 87 -108 87c-102 0 -165 -102 -165 -207c0 -82 35 -129 100 -129c58 0 104 36 140 92zM538 742l-193 -176h-30l-125 176h100
l55 -76l82 76h111z" />
    <glyph glyph-name="Dcaron" unicode="&#x10e;" horiz-adv-x="672" 
d="M167 700h187c161 0 279 -95 279 -297c0 -230 -163 -403 -395 -403h-208zM323 596h-67l-95 -492h69c174 0 289 123 289 289c0 156 -85 203 -196 203zM560 938l-193 -176h-30l-125 176h100l55 -76l82 76h111z" />
    <glyph glyph-name="dcaron" unicode="&#x10f;" horiz-adv-x="785" 
d="M306 512c58 0 104 -22 129 -61l49 257h105l-138 -708h-105l12 58c-29 -35 -84 -66 -150 -66c-118 0 -183 83 -183 201c0 177 101 319 281 319zM138 212c0 -75 40 -128 102 -128c116 0 166 126 166 210c0 83 -39 126 -101 126c-108 0 -167 -110 -167 -208zM598 486
l116 222h143l-182 -222h-77z" />
    <glyph glyph-name="Dcroat" unicode="&#x110;" horiz-adv-x="668" 
d="M163 700h187c161 0 279 -95 279 -297c0 -230 -163 -403 -395 -403h-208l59 304h-61l17 92h62zM319 596h-67l-39 -200h118l-17 -92h-119l-38 -200h69c174 0 289 123 289 289c0 156 -85 203 -196 203z" />
    <glyph glyph-name="dcroat" unicode="&#x111;" horiz-adv-x="617" 
d="M339 563l15 84h118l12 61h105l-12 -61h69l-15 -84h-70l-110 -563h-105l12 58c-29 -35 -84 -66 -150 -66c-118 0 -183 83 -183 201c0 177 101 319 281 319c58 0 104 -22 129 -61l21 112h-117zM138 212c0 -75 40 -128 102 -128c116 0 166 126 166 210
c0 83 -39 126 -101 126c-108 0 -167 -110 -167 -208z" />
    <glyph glyph-name="Emacron" unicode="&#x112;" 
d="M167 700h409l-21 -104h-298l-33 -172h239l-20 -104h-239l-42 -216h308l-21 -104h-419zM264 802l19 94h257l-19 -94h-257z" />
    <glyph glyph-name="emacron" unicode="&#x113;" horiz-adv-x="561" 
d="M299 420c-69 0 -124 -47 -147 -110h251c0 61 -29 110 -104 110zM505 268l-9 -45h-363c-2 -11 -3 -22 -3 -33c0 -59 32 -106 108 -106c60 0 110 35 150 92l80 -42c-68 -101 -137 -142 -252 -142c-125 0 -193 92 -193 215c0 152 115 305 294 305c126 0 193 -82 193 -193
c0 -15 -2 -34 -5 -51zM213 606l19 94h257l-19 -94h-257z" />
    <glyph glyph-name="Ebreve" unicode="&#x114;" 
d="M167 700h409l-21 -104h-298l-33 -172h239l-20 -104h-239l-42 -216h308l-21 -104h-419zM431 896h81c-12 -65 -65 -109 -136 -109c-61 0 -96 37 -96 89c0 7 0 10 2 20h81c-1 -4 -1 -6 -1 -8c0 -18 11 -27 28 -27c23 0 37 14 41 35z" />
    <glyph glyph-name="ebreve" unicode="&#x115;" horiz-adv-x="561" 
d="M299 420c-69 0 -124 -47 -147 -110h251c0 61 -29 110 -104 110zM505 268l-9 -45h-363c-2 -11 -3 -22 -3 -33c0 -59 32 -106 108 -106c60 0 110 35 150 92l80 -42c-68 -101 -137 -142 -252 -142c-125 0 -193 92 -193 215c0 152 115 305 294 305c126 0 193 -82 193 -193
c0 -15 -2 -34 -5 -51zM388 700h81c-12 -65 -65 -109 -136 -109c-61 0 -96 37 -96 89c0 7 0 10 2 20h81c-1 -4 -1 -6 -1 -8c0 -18 11 -27 28 -27c23 0 37 14 41 35z" />
    <glyph glyph-name="Edotaccent" unicode="&#x116;" 
d="M167 700h409l-21 -104h-298l-33 -172h239l-20 -104h-239l-42 -216h308l-21 -104h-419zM313 842c0 40 31 73 72 73s72 -33 72 -73s-31 -71 -72 -71s-72 31 -72 71z" />
    <glyph glyph-name="edotaccent" unicode="&#x117;" horiz-adv-x="561" 
d="M299 420c-69 0 -124 -47 -147 -110h251c0 61 -29 110 -104 110zM505 268l-9 -45h-363c-2 -11 -3 -22 -3 -33c0 -59 32 -106 108 -106c60 0 110 35 150 92l80 -42c-68 -101 -137 -142 -252 -142c-125 0 -193 92 -193 215c0 152 115 305 294 305c126 0 193 -82 193 -193
c0 -15 -2 -34 -5 -51zM277 646c0 40 31 73 72 73s72 -33 72 -73s-31 -71 -72 -71s-72 31 -72 71z" />
    <glyph glyph-name="Eogonek" unicode="&#x118;" 
d="M380 0h-350l137 700h409l-21 -104h-298l-33 -172h239l-20 -104h-239l-42 -216h308l-21 -104c-25 -17 -72 -50 -72 -84c0 -14 9 -24 23 -24c21 0 34 13 58 43l42 -41c-41 -52 -75 -74 -127 -74c-44 0 -76 26 -76 72c0 50 36 81 83 108z" />
    <glyph glyph-name="eogonek" unicode="&#x119;" horiz-adv-x="561" 
d="M505 268l-9 -45h-363c-2 -11 -3 -22 -3 -33c0 -59 32 -106 108 -106c60 0 110 35 150 92l80 -42c-51 -76 -103 -118 -174 -134c-25 -17 -72 -50 -72 -84c0 -14 9 -24 23 -24c21 0 34 13 58 43l42 -41c-41 -52 -75 -74 -127 -74c-44 0 -76 26 -76 72c0 45 29 75 69 100
c-122 2 -188 93 -188 215c0 152 115 305 294 305c126 0 193 -82 193 -193c0 -15 -2 -34 -5 -51zM299 420c-69 0 -124 -47 -147 -110h251c0 61 -29 110 -104 110z" />
    <glyph glyph-name="Ecaron" unicode="&#x11a;" 
d="M167 700h409l-21 -104h-298l-33 -172h239l-20 -104h-239l-42 -216h308l-21 -104h-419zM585 938l-193 -176h-30l-125 176h100l55 -76l82 76h111z" />
    <glyph glyph-name="ecaron" unicode="&#x11b;" horiz-adv-x="561" 
d="M299 420c-69 0 -124 -47 -147 -110h251c0 61 -29 110 -104 110zM505 268l-9 -45h-363c-2 -11 -3 -22 -3 -33c0 -59 32 -106 108 -106c60 0 110 35 150 92l80 -42c-68 -101 -137 -142 -252 -142c-125 0 -193 92 -193 215c0 152 115 305 294 305c126 0 193 -82 193 -193
c0 -15 -2 -34 -5 -51zM529 742l-193 -176h-30l-125 176h100l55 -76l82 76h111z" />
    <glyph glyph-name="uni018E" unicode="&#x18e;" 
d="M400 0h-409l21 104h298l33 172h-239l20 104h239l42 216h-308l21 104h419z" />
    <glyph glyph-name="uni018F" unicode="&#x18f;" horiz-adv-x="561" 
d="M225 84c69 0 124 47 147 110h-251c0 -61 29 -110 104 -110zM19 236l9 45h363c2 11 3 22 3 33c0 59 -32 106 -108 106c-60 0 -110 -35 -150 -92l-80 42c68 101 137 142 252 142c125 0 193 -92 193 -215c0 -152 -115 -305 -294 -305c-126 0 -193 82 -193 193
c0 15 2 34 5 51z" />
    <glyph glyph-name="Gcircumflex" unicode="&#x11c;" horiz-adv-x="700" 
d="M479 0l6 87c-40 -54 -102 -95 -196 -95c-141 0 -258 101 -258 280c0 239 147 436 394 436c144 0 230 -90 237 -214l-107 -31c-19 103 -67 141 -150 141c-164 0 -260 -147 -260 -315c0 -120 63 -193 170 -193c99 0 168 68 198 160h-137l19 97h246l-69 -353h-93zM248 762
l193 176h30l125 -176h-100l-55 76l-82 -76h-111z" />
    <glyph glyph-name="gcircumflex" unicode="&#x11d;" horiz-adv-x="522" 
d="M84 312c0 112 81 200 207 200c34 0 74 -8 98 -22l98 50l34 -73l-79 -39c6 -15 10 -40 10 -58c0 -126 -87 -196 -210 -196c-30 0 -63 8 -85 17c-19 -10 -36 -27 -36 -49c0 -23 15 -36 45 -36h111c87 0 143 -40 143 -129c0 -133 -113 -189 -251 -189
c-121 0 -195 56 -195 143c0 51 22 94 64 126c-13 19 -20 32 -20 65c0 54 37 88 87 116c-12 19 -21 48 -21 74zM238 18h-81c-18 0 -35 1 -50 3c-21 -16 -30 -38 -30 -68c0 -44 30 -73 102 -73c54 0 131 12 131 81c0 40 -29 57 -72 57zM284 424c-55 0 -97 -38 -97 -93
c0 -45 25 -70 65 -70c55 0 97 40 97 95c0 44 -25 68 -65 68zM125 566l193 176h30l125 -176h-100l-55 76l-82 -76h-111z" />
    <glyph glyph-name="Gbreve" unicode="&#x11e;" horiz-adv-x="700" 
d="M479 0l6 87c-40 -54 -102 -95 -196 -95c-141 0 -258 101 -258 280c0 239 147 436 394 436c144 0 230 -90 237 -214l-107 -31c-19 103 -67 141 -150 141c-164 0 -260 -147 -260 -315c0 -120 63 -193 170 -193c99 0 168 68 198 160h-137l19 97h246l-69 -353h-93zM495 896
h81c-12 -65 -65 -109 -136 -109c-61 0 -96 37 -96 89c0 7 0 10 2 20h81c-1 -4 -1 -6 -1 -8c0 -18 11 -27 28 -27c23 0 37 14 41 35z" />
    <glyph glyph-name="gbreve" unicode="&#x11f;" horiz-adv-x="522" 
d="M84 312c0 112 81 200 207 200c34 0 74 -8 98 -22l98 50l34 -73l-79 -39c6 -15 10 -40 10 -58c0 -126 -87 -196 -210 -196c-30 0 -63 8 -85 17c-19 -10 -36 -27 -36 -49c0 -23 15 -36 45 -36h111c87 0 143 -40 143 -129c0 -133 -113 -189 -251 -189
c-121 0 -195 56 -195 143c0 51 22 94 64 126c-13 19 -20 32 -20 65c0 54 37 88 87 116c-12 19 -21 48 -21 74zM238 18h-81c-18 0 -35 1 -50 3c-21 -16 -30 -38 -30 -68c0 -44 30 -73 102 -73c54 0 131 12 131 81c0 40 -29 57 -72 57zM284 424c-55 0 -97 -38 -97 -93
c0 -45 25 -70 65 -70c55 0 97 40 97 95c0 44 -25 68 -65 68zM370 700h81c-12 -65 -65 -109 -136 -109c-61 0 -96 37 -96 89c0 7 0 10 2 20h81c-1 -4 -1 -6 -1 -8c0 -18 11 -27 28 -27c23 0 37 14 41 35z" />
    <glyph glyph-name="Gdotaccent" unicode="&#x120;" horiz-adv-x="700" 
d="M479 0l6 87c-40 -54 -102 -95 -196 -95c-141 0 -258 101 -258 280c0 239 147 436 394 436c144 0 230 -90 237 -214l-107 -31c-19 103 -67 141 -150 141c-164 0 -260 -147 -260 -315c0 -120 63 -193 170 -193c99 0 168 68 198 160h-137l19 97h246l-69 -353h-93zM398 842
c0 40 31 73 72 73s72 -33 72 -73s-31 -71 -72 -71s-72 31 -72 71z" />
    <glyph glyph-name="gdotaccent" unicode="&#x121;" horiz-adv-x="522" 
d="M84 312c0 112 81 200 207 200c34 0 74 -8 98 -22l98 50l34 -73l-79 -39c6 -15 10 -40 10 -58c0 -126 -87 -196 -210 -196c-30 0 -63 8 -85 17c-19 -10 -36 -27 -36 -49c0 -23 15 -36 45 -36h111c87 0 143 -40 143 -129c0 -133 -113 -189 -251 -189
c-121 0 -195 56 -195 143c0 51 22 94 64 126c-13 19 -20 32 -20 65c0 54 37 88 87 116c-12 19 -21 48 -21 74zM238 18h-81c-18 0 -35 1 -50 3c-21 -16 -30 -38 -30 -68c0 -44 30 -73 102 -73c54 0 131 12 131 81c0 40 -29 57 -72 57zM284 424c-55 0 -97 -38 -97 -93
c0 -45 25 -70 65 -70c55 0 97 40 97 95c0 44 -25 68 -65 68zM248 646c0 40 31 73 72 73s72 -33 72 -73s-31 -71 -72 -71s-72 31 -72 71z" />
    <glyph glyph-name="uni0122" unicode="&#x122;" horiz-adv-x="700" 
d="M479 0l6 87c-40 -54 -102 -95 -196 -95c-141 0 -258 101 -258 280c0 239 147 436 394 436c144 0 230 -90 237 -214l-107 -31c-19 103 -67 141 -150 141c-164 0 -260 -147 -260 -315c0 -120 63 -193 170 -193c99 0 168 68 198 160h-137l19 97h246l-69 -353h-93zM140 -312
l119 260h143l-185 -260h-77z" />
    <glyph glyph-name="uni0123" unicode="&#x123;" horiz-adv-x="522" 
d="M84 312c0 112 81 200 207 200c34 0 74 -8 98 -22l98 50l34 -73l-79 -39c6 -15 10 -40 10 -58c0 -126 -87 -196 -210 -196c-30 0 -63 8 -85 17c-19 -10 -36 -27 -36 -49c0 -23 15 -36 45 -36h111c87 0 143 -40 143 -129c0 -133 -113 -189 -251 -189
c-121 0 -195 56 -195 143c0 51 22 94 64 126c-13 19 -20 32 -20 65c0 54 37 88 87 116c-12 19 -21 48 -21 74zM238 18h-81c-18 0 -35 1 -50 3c-21 -16 -30 -38 -30 -68c0 -44 30 -73 102 -73c54 0 131 12 131 81c0 40 -29 57 -72 57zM284 424c-55 0 -97 -38 -97 -93
c0 -45 25 -70 65 -70c55 0 97 40 97 95c0 44 -25 68 -65 68zM335 798l31 -222h-77l-96 222h142z" />
    <glyph glyph-name="Hcircumflex" unicode="&#x124;" horiz-adv-x="696" 
d="M30 0l137 700h111l-54 -274h277l54 274h111l-137 -700h-111l63 322h-277l-63 -322h-111zM245 762l193 176h30l125 -176h-100l-55 76l-82 -76h-111z" />
    <glyph glyph-name="hcircumflex" unicode="&#x125;" horiz-adv-x="588" 
d="M161 708h105l-56 -290c41 50 103 94 182 94c76 0 125 -42 125 -112c0 -14 -2 -29 -5 -45l-69 -355h-105l63 328c3 14 4 26 4 36c0 35 -20 56 -61 56c-64 0 -148 -73 -174 -207l-41 -213h-105zM181 762l193 176h30l125 -176h-100l-55 76l-82 -76h-111z" />
    <glyph glyph-name="Hbar" unicode="&#x126;" horiz-adv-x="696" 
d="M50 504l18 92h78l21 104h111l-21 -104h277l21 104h111l-21 -104h79l-18 -92h-79l-98 -504h-111l63 322h-277l-63 -322h-111l98 504h-78zM224 426h277l15 78h-277z" />
    <glyph glyph-name="hbar" unicode="&#x127;" horiz-adv-x="588" 
d="M67 563l16 84h66l12 61h105l-12 -61h118l-16 -84h-118l-28 -145c41 50 103 94 182 94c76 0 125 -42 125 -112c0 -14 -2 -29 -5 -45l-69 -355h-105l63 328c3 14 4 26 4 36c0 35 -20 56 -61 56c-64 0 -148 -73 -174 -207l-41 -213h-105l109 563h-66z" />
    <glyph glyph-name="Itilde" unicode="&#x128;" horiz-adv-x="308" 
d="M30 0l137 700h111l-137 -700h-111zM117 773l-56 47c29 43 78 81 130 81c71 0 75 -41 127 -41c26 0 47 18 69 40l56 -47c-29 -43 -78 -81 -130 -81c-71 0 -75 41 -127 41c-26 0 -47 -18 -69 -40z" />
    <glyph glyph-name="itilde" unicode="&#x129;" horiz-adv-x="287" 
d="M122 504h105l-98 -504h-105zM69 577l-56 47c29 43 78 81 130 81c71 0 75 -41 127 -41c26 0 47 18 69 40l56 -47c-29 -43 -78 -81 -130 -81c-71 0 -75 41 -127 41c-26 0 -47 -18 -69 -40z" />
    <glyph glyph-name="Imacron" unicode="&#x12a;" horiz-adv-x="308" 
d="M30 0l137 700h111l-137 -700h-111zM114 802l19 94h257l-19 -94h-257z" />
    <glyph glyph-name="imacron" unicode="&#x12b;" horiz-adv-x="287" 
d="M122 504h105l-98 -504h-105zM67 606l19 94h257l-19 -94h-257z" />
    <glyph glyph-name="Ibreve" unicode="&#x12c;" horiz-adv-x="308" 
d="M30 0l137 700h111l-137 -700h-111zM287 896h81c-12 -65 -65 -109 -136 -109c-61 0 -96 37 -96 89c0 7 0 10 2 20h81c-1 -4 -1 -6 -1 -8c0 -18 11 -27 28 -27c23 0 37 14 41 35z" />
    <glyph glyph-name="ibreve" unicode="&#x12d;" horiz-adv-x="287" 
d="M122 504h105l-98 -504h-105zM243 700h81c-12 -65 -65 -109 -136 -109c-61 0 -96 37 -96 89c0 7 0 10 2 20h81c-1 -4 -1 -6 -1 -8c0 -18 11 -27 28 -27c23 0 37 14 41 35z" />
    <glyph glyph-name="Iogonek" unicode="&#x12e;" horiz-adv-x="308" 
d="M30 0l137 700h111l-137 -700c-25 -17 -72 -50 -72 -84c0 -14 9 -24 23 -24c21 0 34 13 58 43l42 -41c-41 -52 -75 -74 -127 -74c-44 0 -76 26 -76 72c0 50 36 81 83 108h-42z" />
    <glyph glyph-name="iogonek" unicode="&#x12f;" horiz-adv-x="287" 
d="M60 0h-36l98 504h105l-98 -504c-25 -17 -72 -50 -72 -84c0 -14 9 -24 23 -24c21 0 34 13 58 43l42 -41c-41 -52 -75 -74 -127 -74c-44 0 -76 26 -76 72c0 50 36 81 83 108zM131 646c0 40 31 73 72 73s72 -33 72 -73s-31 -71 -72 -71s-72 31 -72 71z" />
    <glyph glyph-name="Idotaccent" unicode="&#x130;" horiz-adv-x="308" 
d="M30 0l137 700h111l-137 -700h-111zM175 842c0 40 31 73 72 73s72 -33 72 -73s-31 -71 -72 -71s-72 31 -72 71z" />
    <glyph glyph-name="IJ" unicode="&#x132;" horiz-adv-x="857" 
d="M30 0l137 700h111l-137 -700h-111zM628 222l93 478h111l-100 -504c-16 -80 -45 -128 -91 -161c-41 -30 -91 -43 -155 -43c-114 0 -180 93 -180 193l110 22c0 -62 25 -111 84 -111c63 0 110 36 128 126z" />
    <glyph glyph-name="ij" unicode="&#x133;" horiz-adv-x="533" 
d="M122 504h105l-98 -504h-105zM131 646c0 40 31 73 72 73s72 -33 72 -73s-31 -71 -72 -71s-72 31 -72 71zM165 -212l-9 101c72 17 115 43 131 124l95 491h105l-104 -536c-23 -116 -103 -164 -218 -180zM391 646c0 40 31 73 72 73s72 -33 72 -73s-31 -71 -72 -71
s-72 31 -72 71z" />
    <glyph glyph-name="Jcircumflex" unicode="&#x134;" horiz-adv-x="549" 
d="M320 222l93 478h111l-100 -504c-16 -80 -45 -128 -91 -161c-41 -30 -91 -43 -155 -43c-114 0 -180 93 -180 193l110 22c0 -62 25 -111 84 -111c63 0 110 36 128 126zM300 762l193 176h30l125 -176h-100l-55 76l-82 -76h-111z" />
    <glyph glyph-name="jcircumflex" unicode="&#x135;" horiz-adv-x="287" 
d="M-81 -212l-9 101c72 17 115 43 131 124l95 491h105l-104 -536c-23 -116 -103 -164 -218 -180zM20 566l193 176h30l125 -176h-100l-55 76l-82 -76h-111z" />
    <glyph glyph-name="uni0136" unicode="&#x136;" horiz-adv-x="614" 
d="M167 700h111l-52 -265l278 265h143l-336 -315l229 -385h-136l-196 343l-67 -343h-111zM75 -312l119 260h143l-185 -260h-77z" />
    <glyph glyph-name="uni0137" unicode="&#x137;" horiz-adv-x="520" 
d="M161 708h105l-76 -400l194 196h137l-240 -234l160 -270h-129l-136 241l-47 -241h-105zM35 -312l119 260h143l-185 -260h-77z" />
    <glyph glyph-name="kgreenlandic" unicode="&#x138;" horiz-adv-x="520" 
d="M122 504h105l-37 -196l194 196h137l-240 -234l160 -270h-129l-136 241l-47 -241h-105z" />
    <glyph glyph-name="Lacute" unicode="&#x139;" horiz-adv-x="511" 
d="M166 700h111l-116 -596h296l-21 -104h-406zM178 756l98 148h143l-158 -148h-83z" />
    <glyph glyph-name="lacute" unicode="&#x13a;" horiz-adv-x="305" 
d="M169 708h105l-137 -708h-105zM177 756l98 148h143l-158 -148h-83z" />
    <glyph glyph-name="uni013B" unicode="&#x13b;" horiz-adv-x="511" 
d="M166 700h111l-116 -596h296l-21 -104h-406zM36 -312l119 260h143l-185 -260h-77z" />
    <glyph glyph-name="uni013C" unicode="&#x13c;" horiz-adv-x="305" 
d="M169 708h105l-137 -708h-105zM-115 -312l119 260h143l-185 -260h-77z" />
    <glyph glyph-name="Lcaron" unicode="&#x13d;" horiz-adv-x="511" 
d="M166 700h111l-116 -596h296l-21 -104h-406zM332 486l116 222h143l-182 -222h-77z" />
    <glyph glyph-name="lcaron" unicode="&#x13e;" horiz-adv-x="534" 
d="M169 708h105l-137 -708h-105zM332 486l116 222h143l-182 -222h-77z" />
    <glyph glyph-name="Ldot" unicode="&#x13f;" horiz-adv-x="511" 
d="M166 700h111l-116 -596h296l-21 -104h-406zM397 443c41 0 74 -32 74 -74s-33 -74 -74 -74s-74 32 -74 74s33 74 74 74z" />
    <glyph glyph-name="ldot" unicode="&#x140;" horiz-adv-x="477" 
d="M169 708h105l-137 -708h-105zM369 443c41 0 74 -32 74 -74s-33 -74 -74 -74s-74 32 -74 74s33 74 74 74z" />
    <glyph glyph-name="Nacute" unicode="&#x143;" horiz-adv-x="708" 
d="M567 700h111l-137 -700h-119l-183 502l-98 -502h-111l137 700h119l183 -504zM333 756l98 148h143l-158 -148h-83z" />
    <glyph glyph-name="nacute" unicode="&#x144;" horiz-adv-x="579" 
d="M122 504h105l-15 -80c47 61 100 88 172 88c79 0 124 -45 124 -112c0 -12 -3 -37 -6 -51l-68 -349h-105l63 328c3 14 4 23 4 32c0 38 -18 60 -58 60c-66 0 -143 -77 -165 -191l-44 -229h-105zM249 560l98 148h143l-158 -148h-83z" />
    <glyph glyph-name="uni0145" unicode="&#x145;" horiz-adv-x="708" 
d="M567 700h111l-137 -700h-119l-183 502l-98 -502h-111l137 700h119l183 -504zM98 -312l119 260h143l-185 -260h-77z" />
    <glyph glyph-name="uni0146" unicode="&#x146;" horiz-adv-x="579" 
d="M122 504h105l-15 -80c47 61 100 88 172 88c79 0 124 -45 124 -112c0 -12 -3 -37 -6 -51l-68 -349h-105l63 328c3 14 4 23 4 32c0 38 -18 60 -58 60c-66 0 -143 -77 -165 -191l-44 -229h-105zM30 -312l119 260h143l-185 -260h-77z" />
    <glyph glyph-name="Ncaron" unicode="&#x147;" horiz-adv-x="708" 
d="M567 700h111l-137 -700h-119l-183 502l-98 -502h-111l137 700h119l183 -504zM624 938l-193 -176h-30l-125 176h100l55 -76l82 76h111z" />
    <glyph glyph-name="ncaron" unicode="&#x148;" horiz-adv-x="579" 
d="M122 504h105l-15 -80c47 61 100 88 172 88c79 0 124 -45 124 -112c0 -12 -3 -37 -6 -51l-68 -349h-105l63 328c3 14 4 23 4 32c0 38 -18 60 -58 60c-66 0 -143 -77 -165 -191l-44 -229h-105zM531 742l-193 -176h-30l-125 176h100l55 -76l82 76h111z" />
    <glyph glyph-name="napostrophe" unicode="&#x149;" horiz-adv-x="648" 
d="M191 504h105l-15 -80c47 61 100 88 172 88c79 0 124 -45 124 -112c0 -12 -3 -37 -6 -51l-68 -349h-105l63 328c3 14 4 23 4 32c0 38 -18 60 -58 60c-66 0 -143 -77 -165 -191l-44 -229h-105zM-10 486l116 222h143l-182 -222h-77z" />
    <glyph glyph-name="Eng" unicode="&#x14a;" horiz-adv-x="707" 
d="M567 700h110l-136 -700c-34 -176 -119 -212 -255 -212l25 104c66 0 104 29 120 108l-192 502l-98 -502h-111l137 700h119l184 -498z" />
    <glyph glyph-name="eng" unicode="&#x14b;" horiz-adv-x="579" 
d="M209 -212l-9 101c80 16 115 43 131 124l61 315c3 14 4 23 4 32c0 38 -18 60 -58 60c-66 0 -143 -77 -165 -191l-44 -229h-105l98 504h105l-15 -80c47 61 100 88 172 88c79 0 124 -45 124 -112c0 -12 -3 -37 -6 -51l-75 -382c-21 -107 -101 -167 -218 -179z" />
    <glyph glyph-name="Omacron" unicode="&#x14c;" horiz-adv-x="727" 
d="M429 708c137 0 259 -95 259 -285c0 -137 -49 -258 -142 -340c-69 -61 -145 -91 -256 -91c-137 0 -259 95 -259 285c0 137 49 258 142 340c69 61 145 91 256 91zM409 604c-79 0 -141 -35 -186 -89c-50 -61 -77 -145 -77 -228c0 -125 65 -191 164 -191c79 0 141 35 186 89
c50 61 77 145 77 228c0 125 -65 191 -164 191zM317 802l19 94h257l-19 -94h-257z" />
    <glyph glyph-name="omacron" unicode="&#x14d;" horiz-adv-x="588" 
d="M25 209c0 90 28 167 79 218c63 64 134 85 216 85c129 0 208 -96 208 -217c0 -90 -28 -167 -79 -218c-63 -64 -134 -85 -216 -85c-129 0 -208 96 -208 217zM306 420c-53 0 -92 -24 -123 -63c-29 -37 -46 -84 -46 -138c0 -85 44 -135 110 -135c53 0 92 24 123 63
c29 37 46 84 46 138c0 85 -44 135 -110 135zM216 606l19 94h257l-19 -94h-257z" />
    <glyph glyph-name="Obreve" unicode="&#x14e;" horiz-adv-x="727" 
d="M429 708c137 0 259 -95 259 -285c0 -137 -49 -258 -142 -340c-69 -61 -145 -91 -256 -91c-137 0 -259 95 -259 285c0 137 49 258 142 340c69 61 145 91 256 91zM409 604c-79 0 -141 -35 -186 -89c-50 -61 -77 -145 -77 -228c0 -125 65 -191 164 -191c79 0 141 35 186 89
c50 61 77 145 77 228c0 125 -65 191 -164 191zM499 896h81c-12 -65 -65 -109 -136 -109c-61 0 -96 37 -96 89c0 7 0 10 2 20h81c-1 -4 -1 -6 -1 -8c0 -18 11 -27 28 -27c23 0 37 14 41 35z" />
    <glyph glyph-name="obreve" unicode="&#x14f;" horiz-adv-x="588" 
d="M25 209c0 90 28 167 79 218c63 64 134 85 216 85c129 0 208 -96 208 -217c0 -90 -28 -167 -79 -218c-63 -64 -134 -85 -216 -85c-129 0 -208 96 -208 217zM306 420c-53 0 -92 -24 -123 -63c-29 -37 -46 -84 -46 -138c0 -85 44 -135 110 -135c53 0 92 24 123 63
c29 37 46 84 46 138c0 85 -44 135 -110 135zM397 700h81c-12 -65 -65 -109 -136 -109c-61 0 -96 37 -96 89c0 7 0 10 2 20h81c-1 -4 -1 -6 -1 -8c0 -18 11 -27 28 -27c23 0 37 14 41 35z" />
    <glyph glyph-name="Ohungarumlaut" unicode="&#x150;" horiz-adv-x="727" 
d="M429 708c137 0 259 -95 259 -285c0 -137 -49 -258 -142 -340c-69 -61 -145 -91 -256 -91c-137 0 -259 95 -259 285c0 137 49 258 142 340c69 61 145 91 256 91zM409 604c-79 0 -141 -35 -186 -89c-50 -61 -77 -145 -77 -228c0 -125 65 -191 164 -191c79 0 141 35 186 89
c50 61 77 145 77 228c0 125 -65 191 -164 191zM253 756l98 148h143l-158 -148h-83zM453 756l98 148h143l-158 -148h-83z" />
    <glyph glyph-name="ohungarumlaut" unicode="&#x151;" horiz-adv-x="588" 
d="M25 209c0 90 28 167 79 218c63 64 134 85 216 85c129 0 208 -96 208 -217c0 -90 -28 -167 -79 -218c-63 -64 -134 -85 -216 -85c-129 0 -208 96 -208 217zM306 420c-53 0 -92 -24 -123 -63c-29 -37 -46 -84 -46 -138c0 -85 44 -135 110 -135c53 0 92 24 123 63
c29 37 46 84 46 138c0 85 -44 135 -110 135zM156 560l98 148h143l-158 -148h-83zM356 560l98 148h143l-158 -148h-83z" />
    <glyph glyph-name="Racute" unicode="&#x154;" horiz-adv-x="607" 
d="M587 539c0 -126 -87 -198 -179 -217l138 -322h-126l-134 314h-83l-62 -314h-111l137 700h235c122 0 185 -63 185 -161zM223 418h125c67 0 124 36 124 104c0 47 -30 74 -82 74h-133zM281 756l98 148h143l-158 -148h-83z" />
    <glyph glyph-name="racute" unicode="&#x155;" horiz-adv-x="443" 
d="M129 0h-105l98 504h105l-16 -81c43 58 104 89 166 89c27 0 48 -6 62 -12l-37 -95c-15 9 -31 15 -56 15c-62 0 -149 -65 -176 -207zM203 560l98 148h143l-158 -148h-83z" />
    <glyph glyph-name="uni0156" unicode="&#x156;" horiz-adv-x="607" 
d="M587 539c0 -126 -87 -198 -179 -217l138 -322h-126l-134 314h-83l-62 -314h-111l137 700h235c122 0 185 -63 185 -161zM223 418h125c67 0 124 36 124 104c0 47 -30 74 -82 74h-133zM78 -312l119 260h143l-185 -260h-77z" />
    <glyph glyph-name="uni0157" unicode="&#x157;" horiz-adv-x="443" 
d="M129 0h-105l98 504h105l-16 -81c43 58 104 89 166 89c27 0 48 -6 62 -12l-37 -95c-15 9 -31 15 -56 15c-62 0 -149 -65 -176 -207zM-64 -312l119 260h143l-185 -260h-77z" />
    <glyph glyph-name="Rcaron" unicode="&#x158;" horiz-adv-x="607" 
d="M587 539c0 -126 -87 -198 -179 -217l138 -322h-126l-134 314h-83l-62 -314h-111l137 700h235c122 0 185 -63 185 -161zM223 418h125c67 0 124 36 124 104c0 47 -30 74 -82 74h-133zM568 938l-193 -176h-30l-125 176h100l55 -76l82 76h111z" />
    <glyph glyph-name="rcaron" unicode="&#x159;" horiz-adv-x="443" 
d="M129 0h-105l98 504h105l-16 -81c43 58 104 89 166 89c27 0 48 -6 62 -12l-37 -95c-15 9 -31 15 -56 15c-62 0 -149 -65 -176 -207zM493 742l-193 -176h-30l-125 176h100l55 -76l82 76h111z" />
    <glyph glyph-name="Sacute" unicode="&#x15a;" horiz-adv-x="533" 
d="M501 585l-97 -51c-18 53 -50 74 -91 74c-47 0 -87 -32 -87 -88c0 -60 56 -88 116 -117c77 -37 127 -79 127 -182c0 -68 -24 -131 -69 -169c-53 -45 -112 -60 -185 -60c-109 0 -196 83 -199 195l95 53c7 -87 51 -144 126 -144c66 0 118 38 118 111c0 58 -42 90 -105 121
c-67 33 -137 85 -137 184c0 128 92 196 217 196c89 0 152 -64 171 -123zM269 756l98 148h143l-158 -148h-83z" />
    <glyph glyph-name="sacute" unicode="&#x15b;" horiz-adv-x="458" 
d="M263 512c66 0 123 -32 147 -84l-77 -58c-22 33 -46 50 -81 50s-59 -18 -59 -52c0 -32 31 -47 75 -68c59 -28 115 -58 115 -140c0 -116 -78 -168 -184 -168c-115 0 -179 76 -188 144l89 40c11 -49 44 -92 102 -92c46 0 78 22 78 66c0 36 -42 58 -89 79
c-50 22 -101 60 -101 131c0 97 67 152 173 152zM216 560l98 148h143l-158 -148h-83z" />
    <glyph glyph-name="Scircumflex" unicode="&#x15c;" horiz-adv-x="533" 
d="M501 585l-97 -51c-18 53 -50 74 -91 74c-47 0 -87 -32 -87 -88c0 -60 56 -88 116 -117c77 -37 127 -79 127 -182c0 -68 -24 -131 -69 -169c-53 -45 -112 -60 -185 -60c-109 0 -196 83 -199 195l95 53c7 -87 51 -144 126 -144c66 0 118 38 118 111c0 58 -42 90 -105 121
c-67 33 -137 85 -137 184c0 128 92 196 217 196c89 0 152 -64 171 -123zM170 762l193 176h30l125 -176h-100l-55 76l-82 -76h-111z" />
    <glyph glyph-name="scircumflex" unicode="&#x15d;" horiz-adv-x="458" 
d="M263 512c66 0 123 -32 147 -84l-77 -58c-22 33 -46 50 -81 50s-59 -18 -59 -52c0 -32 31 -47 75 -68c59 -28 115 -58 115 -140c0 -116 -78 -168 -184 -168c-115 0 -179 76 -188 144l89 40c11 -49 44 -92 102 -92c46 0 78 22 78 66c0 36 -42 58 -89 79
c-50 22 -101 60 -101 131c0 97 67 152 173 152zM112 566l193 176h30l125 -176h-100l-55 76l-82 -76h-111z" />
    <glyph glyph-name="Scedilla" unicode="&#x15e;" horiz-adv-x="533" 
d="M501 585l-97 -51c-18 53 -50 74 -91 74c-47 0 -87 -32 -87 -88c0 -60 56 -88 116 -117c77 -37 127 -79 127 -182c0 -68 -24 -131 -69 -169c-53 -45 -112 -60 -185 -60c-109 0 -196 83 -199 195l95 53c7 -87 51 -144 126 -144c66 0 118 38 118 111c0 58 -42 90 -105 121
c-67 33 -137 85 -137 184c0 128 92 196 217 196c89 0 152 -64 171 -123zM271 -60l-115 -191l-110 56l144 135h81z" />
    <glyph glyph-name="scedilla" unicode="&#x15f;" horiz-adv-x="458" 
d="M263 512c66 0 123 -32 147 -84l-77 -58c-22 33 -46 50 -81 50s-59 -18 -59 -52c0 -32 31 -47 75 -68c59 -28 115 -58 115 -140c0 -116 -78 -168 -184 -168c-115 0 -179 76 -188 144l89 40c11 -49 44 -92 102 -92c46 0 78 22 78 66c0 36 -42 58 -89 79
c-50 22 -101 60 -101 131c0 97 67 152 173 152zM251 -60l-115 -191l-110 56l144 135h81z" />
    <glyph glyph-name="uni0162" unicode="&#x162;" horiz-adv-x="513" 
d="M56 596l21 104h493l-21 -104h-191l-116 -596h-111l116 596h-191zM-13 -312l119 260h143l-185 -260h-77z" />
    <glyph glyph-name="uni0163" unicode="&#x163;" horiz-adv-x="363" 
d="M25 412l17 92h85l26 139l117 65l-40 -204h126l-17 -92h-126l-48 -246c-2 -11 -3 -22 -3 -31c0 -35 20 -51 54 -51c18 0 30 3 51 14l9 -88c-29 -13 -63 -18 -95 -18c-79 0 -124 46 -124 128c0 16 1 33 5 52l48 240h-85zM-35 -312l119 260h143l-185 -260h-77z" />
    <glyph glyph-name="Tcaron" unicode="&#x164;" horiz-adv-x="513" 
d="M56 596l21 104h493l-21 -104h-191l-116 -596h-111l116 596h-191zM530 938l-193 -176h-30l-125 176h100l55 -76l82 76h111z" />
    <glyph glyph-name="tcaron" unicode="&#x165;" horiz-adv-x="605" 
d="M25 412l17 92h85l26 139l117 65l-40 -204h126l-17 -92h-126l-48 -246c-2 -11 -3 -22 -3 -31c0 -35 20 -51 54 -51c18 0 30 3 51 14l9 -88c-29 -13 -63 -18 -95 -18c-79 0 -124 46 -124 128c0 16 1 33 5 52l48 240h-85zM410 486l116 222h143l-182 -222h-77z" />
    <glyph glyph-name="Tbar" unicode="&#x166;" horiz-adv-x="513" 
d="M56 596l21 104h493l-21 -104h-191l-24 -120h170l-18 -92h-170l-74 -384h-111l74 384h-169l18 92h169l24 120h-191z" />
    <glyph glyph-name="tbar" unicode="&#x167;" horiz-adv-x="363" 
d="M11 246l17 84h66l16 82h-85l17 92h85l26 139l117 65l-40 -204h126l-17 -92h-126l-16 -82h116l-17 -84h-116l-15 -80c-2 -11 -3 -22 -3 -31c0 -35 20 -51 54 -51c18 0 30 3 51 14l9 -88c-29 -13 -63 -18 -95 -18c-79 0 -124 46 -124 128c0 16 1 33 5 52l14 74h-65z" />
    <glyph glyph-name="Utilde" unicode="&#x168;" horiz-adv-x="675" 
d="M73 262l85 438h111l-88 -453c-3 -17 -5 -33 -5 -47c0 -66 31 -104 113 -104c86 0 146 52 165 151l88 453h111l-87 -448c-39 -200 -144 -260 -297 -260c-122 0 -205 64 -205 199c0 20 4 44 9 71zM281 773l-56 47c29 43 78 81 130 81c71 0 75 -41 127 -41c26 0 47 18 69 40
l56 -47c-29 -43 -78 -81 -130 -81c-71 0 -75 41 -127 41c-26 0 -47 -18 -69 -40z" />
    <glyph glyph-name="utilde" unicode="&#x169;" horiz-adv-x="582" 
d="M433 0h-105l15 80c-47 -61 -100 -88 -172 -88c-79 0 -124 45 -124 112c0 12 3 37 6 51l68 349h105l-63 -328c-3 -14 -4 -23 -4 -32c0 -38 18 -60 58 -60c66 0 143 77 165 191l44 229h105zM204 577l-56 47c29 43 78 81 130 81c71 0 75 -41 127 -41c26 0 47 18 69 40
l56 -47c-29 -43 -78 -81 -130 -81c-71 0 -75 41 -127 41c-26 0 -47 -18 -69 -40z" />
    <glyph glyph-name="Umacron" unicode="&#x16a;" horiz-adv-x="675" 
d="M73 262l85 438h111l-88 -453c-3 -17 -5 -33 -5 -47c0 -66 31 -104 113 -104c86 0 146 52 165 151l88 453h111l-87 -448c-39 -200 -144 -260 -297 -260c-122 0 -205 64 -205 199c0 20 4 44 9 71zM294 802l19 94h257l-19 -94h-257z" />
    <glyph glyph-name="umacron" unicode="&#x16b;" horiz-adv-x="582" 
d="M433 0h-105l15 80c-47 -61 -100 -88 -172 -88c-79 0 -124 45 -124 112c0 12 3 37 6 51l68 349h105l-63 -328c-3 -14 -4 -23 -4 -32c0 -38 18 -60 58 -60c66 0 143 77 165 191l44 229h105zM216 606l19 94h257l-19 -94h-257z" />
    <glyph glyph-name="Ubreve" unicode="&#x16c;" horiz-adv-x="675" 
d="M73 262l85 438h111l-88 -453c-3 -17 -5 -33 -5 -47c0 -66 31 -104 113 -104c86 0 146 52 165 151l88 453h111l-87 -448c-39 -200 -144 -260 -297 -260c-122 0 -205 64 -205 199c0 20 4 44 9 71zM470 896h81c-12 -65 -65 -109 -136 -109c-61 0 -96 37 -96 89
c0 7 0 10 2 20h81c-1 -4 -1 -6 -1 -8c0 -18 11 -27 28 -27c23 0 37 14 41 35z" />
    <glyph glyph-name="ubreve" unicode="&#x16d;" horiz-adv-x="582" 
d="M433 0h-105l15 80c-47 -61 -100 -88 -172 -88c-79 0 -124 45 -124 112c0 12 3 37 6 51l68 349h105l-63 -328c-3 -14 -4 -23 -4 -32c0 -38 18 -60 58 -60c66 0 143 77 165 191l44 229h105zM387 700h81c-12 -65 -65 -109 -136 -109c-61 0 -96 37 -96 89c0 7 0 10 2 20h81
c-1 -4 -1 -6 -1 -8c0 -18 11 -27 28 -27c23 0 37 14 41 35z" />
    <glyph glyph-name="Uring" unicode="&#x16e;" horiz-adv-x="675" 
d="M73 262l85 438h111l-88 -453c-3 -17 -5 -33 -5 -47c0 -66 31 -104 113 -104c86 0 146 52 165 151l88 453h111l-87 -448c-39 -200 -144 -260 -297 -260c-122 0 -205 64 -205 199c0 20 4 44 9 71zM326 849c0 57 44 102 101 102c59 0 101 -45 101 -102
c0 -55 -42 -98 -101 -98c-57 0 -101 43 -101 98zM391 850c0 -21 15 -37 36 -37c22 0 36 16 36 37c0 22 -14 39 -36 39c-21 0 -36 -17 -36 -39z" />
    <glyph glyph-name="uring" unicode="&#x16f;" horiz-adv-x="582" 
d="M433 0h-105l15 80c-47 -61 -100 -88 -172 -88c-79 0 -124 45 -124 112c0 12 3 37 6 51l68 349h105l-63 -328c-3 -14 -4 -23 -4 -32c0 -38 18 -60 58 -60c66 0 143 77 165 191l44 229h105zM246 653c0 57 44 102 101 102c59 0 101 -45 101 -102c0 -55 -42 -98 -101 -98
c-57 0 -101 43 -101 98zM311 654c0 -21 15 -37 36 -37c22 0 36 16 36 37c0 22 -14 39 -36 39c-21 0 -36 -17 -36 -39z" />
    <glyph glyph-name="Uhungarumlaut" unicode="&#x170;" horiz-adv-x="675" 
d="M73 262l85 438h111l-88 -453c-3 -17 -5 -33 -5 -47c0 -66 31 -104 113 -104c86 0 146 52 165 151l88 453h111l-87 -448c-39 -200 -144 -260 -297 -260c-122 0 -205 64 -205 199c0 20 4 44 9 71zM217 756l98 148h143l-158 -148h-83zM417 756l98 148h143l-158 -148h-83z
" />
    <glyph glyph-name="uhungarumlaut" unicode="&#x171;" horiz-adv-x="582" 
d="M433 0h-105l15 80c-47 -61 -100 -88 -172 -88c-79 0 -124 45 -124 112c0 12 3 37 6 51l68 349h105l-63 -328c-3 -14 -4 -23 -4 -32c0 -38 18 -60 58 -60c66 0 143 77 165 191l44 229h105zM140 560l98 148h143l-158 -148h-83zM340 560l98 148h143l-158 -148h-83z" />
    <glyph glyph-name="Uogonek" unicode="&#x172;" horiz-adv-x="675" 
d="M73 262l85 438h111l-88 -453c-3 -17 -5 -33 -5 -47c0 -66 31 -104 113 -104c86 0 146 52 165 151l88 453h111l-87 -448c-31 -160 -105 -230 -211 -252c-25 -17 -72 -50 -72 -84c0 -14 9 -24 23 -24c21 0 34 13 58 43l42 -41c-41 -52 -75 -74 -127 -74
c-44 0 -76 26 -76 72c0 45 29 75 69 100c-126 0 -208 64 -208 199c0 20 4 44 9 71z" />
    <glyph glyph-name="uogonek" unicode="&#x173;" horiz-adv-x="582" 
d="M364 0h-36l15 80c-47 -61 -100 -88 -172 -88c-79 0 -124 45 -124 112c0 12 3 37 6 51l68 349h105l-63 -328c-3 -14 -4 -23 -4 -32c0 -38 18 -60 58 -60c66 0 143 77 165 191l44 229h105l-98 -504c-25 -17 -72 -50 -72 -84c0 -14 9 -24 23 -24c21 0 34 13 58 43l42 -41
c-41 -52 -75 -74 -127 -74c-44 0 -76 26 -76 72c0 50 36 81 83 108z" />
    <glyph glyph-name="Wcircumflex" unicode="&#x174;" horiz-adv-x="898" 
d="M822 700h116l-320 -700h-113l-49 435l-211 -435h-113l-48 700h116l20 -538l218 464h103l46 -464zM341 762l193 176h30l125 -176h-100l-55 76l-82 -76h-111z" />
    <glyph glyph-name="wcircumflex" unicode="&#x175;" horiz-adv-x="737" 
d="M623 504h112l-251 -504h-99l-18 354l-159 -354h-98l-59 504h110l21 -364l160 364h103l16 -368zM217 566l193 176h30l125 -176h-100l-55 76l-82 -76h-111z" />
    <glyph glyph-name="Ycircumflex" unicode="&#x176;" horiz-adv-x="500" 
d="M52 700h118l81 -291l195 291h123l-281 -400l-59 -300h-111l59 300zM144 762l193 176h30l125 -176h-100l-55 76l-82 -76h-111z" />
    <glyph glyph-name="ycircumflex" unicode="&#x177;" horiz-adv-x="479" 
d="M34 504h111l53 -339l176 339h115l-391 -708h-105l124 233zM81 566l193 176h30l125 -176h-100l-55 76l-82 -76h-111z" />
    <glyph glyph-name="Zacute" unicode="&#x179;" 
d="M101 596l21 104h452l-11 -54l-412 -542h324l-21 -104h-479l11 54l415 542h-300zM271 756l98 148h143l-158 -148h-83z" />
    <glyph glyph-name="zacute" unicode="&#x17a;" horiz-adv-x="462" 
d="M72 412l17 92h353l-8 -42l-275 -370h221l-17 -92h-374l7 42l278 370h-202zM183 560l98 148h143l-158 -148h-83z" />
    <glyph glyph-name="Zdotaccent" unicode="&#x17b;" 
d="M101 596l21 104h452l-11 -54l-412 -542h324l-21 -104h-479l11 54l415 542h-300zM301 842c0 40 31 73 72 73s72 -33 72 -73s-31 -71 -72 -71s-72 31 -72 71z" />
    <glyph glyph-name="zdotaccent" unicode="&#x17c;" horiz-adv-x="462" 
d="M72 412l17 92h353l-8 -42l-275 -370h221l-17 -92h-374l7 42l278 370h-202zM215 646c0 40 31 73 72 73s72 -33 72 -73s-31 -71 -72 -71s-72 31 -72 71z" />
    <glyph glyph-name="uni01B5" unicode="&#x1b5;" 
d="M101 596l21 104h452l-11 -54l-190 -250h119l-17 -92h-172l-152 -200h324l-21 -104h-479l11 54l191 250h-104l17 92h158l153 200h-300z" />
    <glyph glyph-name="uni01B6" unicode="&#x1b6;" horiz-adv-x="462" 
d="M72 412l17 92h353l-8 -42l-116 -156h68l-16 -84h-115l-96 -130h221l-17 -92h-374l7 42l135 180h-72l16 84h119l80 106h-202z" />
    <glyph glyph-name="longs" unicode="&#x17f;" horiz-adv-x="345" 
d="M37 412l18 92h65l7 37c24 126 99 167 207 167c39 0 75 -11 97 -24l-38 -88c-24 14 -43 20 -65 20c-40 0 -85 -17 -96 -73l-105 -543h-105l80 412h-65z" />
    <glyph glyph-name="uni0410" unicode="&#x410;" horiz-adv-x="594" 
d="M316 700h107l107 -700h-114l-23 174h-248l-91 -174h-115zM344 561l-145 -283h182z" />
    <glyph glyph-name="uni0411" unicode="&#x411;" horiz-adv-x="617" 
d="M579 700l-21 -104h-301l-33 -172h144c115 0 190 -72 190 -181c0 -155 -97 -243 -267 -243h-261l137 700h412zM339 320h-135l-42 -216h135c81 0 147 34 147 126c0 56 -36 90 -105 90z" />
    <glyph glyph-name="uni0412" unicode="&#x412;" horiz-adv-x="617" 
d="M167 700h231c106 0 182 -56 182 -159c0 -76 -37 -130 -102 -161c43 -17 78 -64 78 -141c0 -166 -110 -239 -246 -239h-280zM385 596h-128l-33 -172h128c60 0 115 30 115 100c0 48 -29 72 -82 72zM342 320h-138l-42 -216h135c87 0 147 38 147 124c0 60 -36 92 -102 92z
" />
    <glyph glyph-name="uni0413" unicode="&#x413;" horiz-adv-x="530" 
d="M167 700h420l-21 -104h-309l-116 -596h-111z" />
    <glyph glyph-name="uni0414" unicode="&#x414;" horiz-adv-x="693" 
d="M-33 -124l33 228h52l216 596h395l-116 -596h59l-57 -228h-95l25 124h-393l-25 -124h-94zM531 596h-186l-179 -492h270z" />
    <glyph glyph-name="uni0415" unicode="&#x415;" 
d="M167 700h409l-21 -104h-298l-33 -172h239l-20 -104h-239l-42 -216h308l-21 -104h-419z" />
    <glyph glyph-name="uni0416" unicode="&#x416;" horiz-adv-x="870" 
d="M423 700h111l-52 -265l278 265h143l-336 -315l229 -385h-136l-196 343l-67 -343h-111l67 340l-320 -340h-147l379 392l-226 308h139l193 -265z" />
    <glyph glyph-name="uni0417" unicode="&#x417;" horiz-adv-x="551" 
d="M7 193l105 20c6 -72 44 -125 112 -125c90 0 133 66 133 152c0 78 -46 119 -107 119c-21 0 -40 -3 -63 -13l-47 59l180 199h-220l18 96h393l-7 -36l-215 -232c9 2 19 3 28 3c83 0 147 -62 147 -183c0 -78 -12 -128 -50 -176c-43 -54 -106 -84 -203 -84
c-126 0 -198 95 -204 201z" />
    <glyph glyph-name="uni0418" unicode="&#x418;" horiz-adv-x="708" 
d="M167 700h110l-98 -504l381 504h118l-137 -700h-110l98 502l-381 -502h-118z" />
    <glyph glyph-name="uni0419" unicode="&#x419;" horiz-adv-x="708" 
d="M277 700h-110l-137 -700h118l381 502l-98 -502h110l137 700h-118l-381 -504zM491 896h81c-12 -65 -65 -109 -136 -109c-61 0 -96 37 -96 89c0 7 0 10 2 20h81c-1 -4 -1 -6 -1 -8c0 -18 11 -27 28 -27c23 0 37 14 41 35z" />
    <glyph glyph-name="uni041A" unicode="&#x41a;" horiz-adv-x="614" 
d="M167 700h111l-52 -265l278 265h143l-336 -315l229 -385h-136l-196 343l-67 -343h-111z" />
    <glyph glyph-name="uni041B" unicode="&#x41b;" horiz-adv-x="644" 
d="M80 200l132 500h402l-137 -700h-111l116 596h-189l-107 -406c-37 -142 -101 -190 -244 -190l21 104c55 0 98 26 117 96z" />
    <glyph glyph-name="uni041C" unicode="&#x41c;" horiz-adv-x="792" 
d="M30 0l137 700h131l77 -466l246 466h141l-137 -700h-111l88 456l-215 -392h-84l-70 408l-92 -472h-111z" />
    <glyph glyph-name="uni041D" unicode="&#x41d;" horiz-adv-x="696" 
d="M30 0l137 700h111l-54 -274h277l54 274h111l-137 -700h-111l63 322h-277l-63 -322h-111z" />
    <glyph glyph-name="uni041E" unicode="&#x41e;" horiz-adv-x="727" 
d="M429 708c137 0 259 -95 259 -285c0 -137 -49 -258 -142 -340c-69 -61 -145 -91 -256 -91c-137 0 -259 95 -259 285c0 137 49 258 142 340c69 61 145 91 256 91zM409 604c-79 0 -141 -35 -186 -89c-50 -61 -77 -145 -77 -228c0 -125 65 -191 164 -191c79 0 141 35 186 89
c50 61 77 145 77 228c0 125 -65 191 -164 191z" />
    <glyph glyph-name="uni041F" unicode="&#x41f;" horiz-adv-x="701" 
d="M30 0l137 700h504l-137 -700h-111l116 596h-282l-116 -596h-111z" />
    <glyph glyph-name="uni0420" unicode="&#x420;" horiz-adv-x="591" 
d="M324 286h-127l-56 -286h-111l137 700h233c120 0 194 -63 194 -174c0 -160 -110 -240 -270 -240zM217 390h135c71 0 128 47 128 121c0 55 -31 85 -90 85h-133z" />
    <glyph glyph-name="uni0421" unicode="&#x421;" horiz-adv-x="675" 
d="M669 491l-109 -26c-15 95 -57 139 -146 139c-167 0 -269 -164 -269 -317c0 -130 63 -191 170 -191c89 0 144 47 196 138l99 -30c-66 -145 -166 -212 -315 -212c-148 0 -264 105 -264 285c0 219 149 431 403 431c147 0 225 -93 235 -217z" />
    <glyph glyph-name="uni0422" unicode="&#x422;" horiz-adv-x="513" 
d="M56 596l21 104h493l-21 -104h-191l-116 -596h-111l116 596h-191z" />
    <glyph glyph-name="uni0423" unicode="&#x423;" horiz-adv-x="535" 
d="M64 700h110l79 -359l214 359h115l-422 -708h-114l127 214z" />
    <glyph glyph-name="uni0424" unicode="&#x424;" horiz-adv-x="814" 
d="M396 72l-14 -72h-110l14 72h-4c-126 0 -235 92 -235 240c0 184 145 316 342 316h6l14 72h110l-14 -72h4c126 0 235 -92 235 -240c0 -184 -145 -316 -342 -316h-6zM495 536h-8l-73 -372h8c128 0 210 85 210 215c0 97 -44 157 -137 157zM304 164l73 372h-8
c-128 0 -210 -85 -210 -215c0 -97 44 -157 137 -157h8z" />
    <glyph glyph-name="uni0425" unicode="&#x425;" horiz-adv-x="560" 
d="M478 700h128l-251 -327l141 -373h-119l-103 273l-203 -273h-128l292 382l-120 318h118l81 -219z" />
    <glyph glyph-name="uni0426" unicode="&#x426;" horiz-adv-x="693" 
d="M30 0l136 700h111l-116 -596h275l116 596h111l-116 -596h71l-61 -228h-95l25 124h-457z" />
    <glyph glyph-name="uni0427" unicode="&#x427;" horiz-adv-x="658" 
d="M380 0l48 246c-53 -34 -118 -50 -171 -50c-103 0 -176 61 -176 179c0 23 2 49 8 78l48 247h111l-47 -239c-4 -20 -6 -37 -6 -53c0 -67 33 -108 97 -108c65 0 113 22 159 65l66 335h111l-137 -700h-111z" />
    <glyph glyph-name="uni0428" unicode="&#x428;" horiz-adv-x="992" 
d="M393 104l116 596h111l-116 -596h231l116 596h111l-137 -700h-795l137 700h111l-116 -596h231z" />
    <glyph glyph-name="uni0429" unicode="&#x429;" horiz-adv-x="992" 
d="M393 104l116 596h111l-116 -596h231l116 596h111l-117 -596h72l-61 -228h-95l25 124h-756l137 700h111l-116 -596h231z" />
    <glyph glyph-name="uni042A" unicode="&#x42a;" horiz-adv-x="657" 
d="M24 596l21 104h233l-54 -276h144c115 0 190 -72 190 -181c0 -155 -97 -243 -267 -243h-261l117 596h-123zM339 320h-135l-42 -216h135c81 0 147 34 147 126c0 56 -36 90 -105 90z" />
    <glyph glyph-name="uni042B" unicode="&#x42b;" horiz-adv-x="910" 
d="M30 0l138 700h110l-54 -276h144c115 0 190 -72 190 -181c0 -155 -97 -243 -267 -243h-261zM339 320h-135l-42 -216h135c81 0 147 34 147 126c0 56 -36 90 -105 90zM775 708h105l-137 -708h-105z" />
    <glyph glyph-name="uni042C" unicode="&#x42c;" horiz-adv-x="617" 
d="M30 0l137 700h111l-54 -276h144c115 0 190 -72 190 -181c0 -155 -97 -243 -267 -243h-261zM339 320h-135l-42 -216h135c81 0 147 34 147 126c0 56 -36 90 -105 90z" />
    <glyph glyph-name="uni042D" unicode="&#x42d;" horiz-adv-x="681" 
d="M180 298l21 104h326c1 12 1 24 1 35c0 110 -50 167 -146 167c-82 0 -158 -58 -199 -136l-100 31c62 132 173 209 311 209c156 0 248 -104 248 -293c0 -190 -115 -423 -359 -423c-128 0 -242 81 -252 213l101 25c17 -83 65 -134 151 -134c105 0 189 64 225 202h-328z" />
    <glyph glyph-name="uni042E" unicode="&#x42e;" horiz-adv-x="1030" 
d="M30 0l137 700h111l-59 -298h130c21 85 63 159 127 215c69 61 145 91 256 91c137 0 259 -95 259 -285c0 -137 -49 -258 -142 -340c-69 -61 -145 -91 -256 -91c-137 0 -259 95 -259 285v21h-135l-58 -298h-111zM712 604c-79 0 -141 -35 -186 -89c-50 -61 -77 -145 -77 -228
c0 -125 65 -191 164 -191c79 0 141 35 186 89c50 61 77 145 77 228c0 125 -65 191 -164 191z" />
    <glyph glyph-name="uni042F" unicode="&#x42f;" horiz-adv-x="634" 
d="M353 700h251l-137 -700h-111l62 314h-76l-255 -314h-139l265 322c-57 24 -105 75 -105 157c0 135 108 221 245 221zM305 418h133l34 178h-138c-67 0 -111 -51 -111 -101c0 -54 34 -77 82 -77z" />
    <glyph glyph-name="uni0430" unicode="&#x430;" horiz-adv-x="596" 
d="M308 512c54 0 102 -25 122 -64l10 56h105l-97 -504h-105l11 58c-29 -35 -80 -66 -146 -66c-120 0 -183 95 -183 204c0 180 102 316 283 316zM138 221c0 -89 41 -137 102 -137c106 0 163 104 163 210c0 84 -37 126 -105 126c-104 0 -160 -104 -160 -199z" />
    <glyph glyph-name="uni0431" unicode="&#x431;" horiz-adv-x="581" 
d="M35 331c56 290 172 369 329 369h41c36 0 64 14 84 47h65c-20 -103 -71 -139 -167 -139h-41c-91 0 -148 -46 -176 -148c37 28 96 52 161 52c124 0 190 -92 190 -222c0 -158 -120 -298 -295 -298c-114 0 -201 87 -201 244c0 29 4 61 10 95zM297 420
c-104 0 -172 -97 -172 -192c0 -87 45 -144 114 -144c103 0 170 80 170 197c0 75 -36 139 -112 139z" />
    <glyph glyph-name="uni0432" unicode="&#x432;" horiz-adv-x="519" 
d="M121 504h189c88 0 142 -42 142 -118c0 -51 -32 -90 -73 -111c30 -17 55 -50 55 -108c0 -97 -90 -167 -199 -167h-211zM285 412h-76l-20 -100h76c45 0 80 20 80 56c0 28 -24 44 -60 44zM252 220h-81l-25 -128h81c55 0 104 20 104 72c0 38 -32 56 -79 56z" />
    <glyph glyph-name="uni0433" unicode="&#x433;" horiz-adv-x="441" 
d="M24 0l97 504h325l-17 -92h-220l-80 -412h-105z" />
    <glyph glyph-name="uni0434" unicode="&#x434;" horiz-adv-x="574" 
d="M323 -114l23 114h-271l-23 -114h-94l27 206h35l149 412h347l-81 -412h35l-52 -206h-95zM236 412l-117 -320h211l63 320h-157z" />
    <glyph glyph-name="uni0435" unicode="&#x435;" horiz-adv-x="561" 
d="M299 420c-69 0 -124 -47 -147 -110h251c0 61 -29 110 -104 110zM505 268l-9 -45h-363c-2 -11 -3 -22 -3 -33c0 -59 32 -106 108 -106c60 0 110 35 150 92l80 -42c-68 -101 -137 -142 -252 -142c-125 0 -193 92 -193 215c0 152 115 305 294 305c126 0 193 -82 193 -193
c0 -15 -2 -34 -5 -51z" />
    <glyph glyph-name="uni0436" unicode="&#x436;" horiz-adv-x="722" 
d="M324 504h105l-37 -196l194 196h137l-240 -234l160 -270h-129l-136 241l-47 -241h-105l46 239l-228 -239h-140l277 276l-168 228h130l142 -200z" />
    <glyph glyph-name="uni0437" unicode="&#x437;" horiz-adv-x="424" 
d="M1 140l102 15c3 -47 32 -75 74 -75c48 0 83 36 83 88c0 49 -21 72 -61 72c-16 0 -31 -4 -44 -11l-41 59l119 126h-152l17 90h299l-6 -33l-156 -160c7 1 11 1 15 1c65 0 110 -43 110 -130c0 -109 -82 -190 -190 -190c-103 0 -160 66 -169 148z" />
    <glyph glyph-name="uni0438" unicode="&#x438;" horiz-adv-x="596" 
d="M127 504h105l-66 -341l261 341h115l-97 -504h-105l66 341l-261 -341h-115z" />
    <glyph glyph-name="uni0439" unicode="&#x439;" horiz-adv-x="596" 
d="M127 504h105l-66 -341l261 341h115l-97 -504h-105l66 341l-261 -341h-115zM397 700h81c-12 -65 -65 -109 -136 -109c-61 0 -96 37 -96 89c0 7 0 10 2 20h81c-1 -4 -1 -6 -1 -8c0 -18 11 -27 28 -27c23 0 37 14 41 35z" />
    <glyph glyph-name="uni043A" unicode="&#x43a;" horiz-adv-x="520" 
d="M122 504h105l-37 -196l194 196h137l-240 -234l160 -270h-129l-136 241l-47 -241h-105z" />
    <glyph glyph-name="uni043B" unicode="&#x43b;" horiz-adv-x="602" 
d="M110 168l98 336h340l-97 -504h-105l80 412h-142l-85 -280c-35 -115 -92 -132 -210 -132l16 92c58 0 89 20 105 76z" />
    <glyph glyph-name="uni043C" unicode="&#x43c;" horiz-adv-x="657" 
d="M30 0l97 504h112l64 -308l183 308h117l-97 -504h-105l58 303l-143 -257h-72l-51 257l-58 -303h-105z" />
    <glyph glyph-name="uni043D" unicode="&#x43d;" horiz-adv-x="577" 
d="M30 0l97 504h105l-36 -189h186l36 189h105l-97 -504h-105l43 223h-186l-43 -223h-105z" />
    <glyph glyph-name="uni043E" unicode="&#x43e;" horiz-adv-x="588" 
d="M25 209c0 90 28 167 79 218c63 64 134 85 216 85c129 0 208 -96 208 -217c0 -90 -28 -167 -79 -218c-63 -64 -134 -85 -216 -85c-129 0 -208 96 -208 217zM306 420c-53 0 -92 -24 -123 -63c-29 -37 -46 -84 -46 -138c0 -85 44 -135 110 -135c53 0 92 24 123 63
c29 37 46 84 46 138c0 85 -44 135 -110 135z" />
    <glyph glyph-name="uni043F" unicode="&#x43f;" horiz-adv-x="574" 
d="M30 0l97 504h393l-97 -504h-105l80 412h-183l-80 -412h-105z" />
    <glyph glyph-name="uni0440" unicode="&#x440;" horiz-adv-x="610" 
d="M269 -8c-58 0 -104 22 -129 61l-49 -257h-105l138 708h105l-12 -58c29 35 84 66 150 66c118 0 183 -83 183 -201c0 -177 -101 -319 -281 -319zM437 292c0 75 -40 128 -102 128c-116 0 -166 -126 -166 -210c0 -83 39 -126 101 -126c108 0 167 110 167 208z" />
    <glyph glyph-name="uni0441" unicode="&#x441;" horiz-adv-x="547" 
d="M376 176l86 -39c-67 -107 -137 -145 -244 -145c-120 0 -193 85 -193 215c0 156 108 305 294 305c107 0 169 -54 188 -140l-98 -39c-18 59 -53 87 -108 87c-102 0 -165 -102 -165 -207c0 -82 35 -129 100 -129c58 0 104 36 140 92z" />
    <glyph glyph-name="uni0442" unicode="&#x442;" horiz-adv-x="445" 
d="M44 412l17 92h376l-17 -92h-136l-80 -412h-105l80 412h-135z" />
    <glyph glyph-name="uni0443" unicode="&#x443;" horiz-adv-x="479" 
d="M34 504h111l53 -339l176 339h115l-391 -708h-105l124 233z" />
    <glyph glyph-name="uni0444" unicode="&#x444;" horiz-adv-x="720" 
d="M341 -8l-38 -196h-103l38 196c-129 0 -213 88 -213 219c0 178 139 298 314 301l38 196h103l-38 -196c129 0 213 -88 213 -219c0 -178 -139 -298 -314 -301zM430 420h-6l-65 -336h6c103 0 179 84 179 195c0 98 -45 141 -114 141zM256 84l65 336h-6
c-103 0 -179 -84 -179 -195c0 -98 45 -141 114 -141h6z" />
    <glyph glyph-name="uni0445" unicode="&#x445;" horiz-adv-x="476" 
d="M362 504h121l-194 -241l109 -263h-110l-68 174l-137 -174h-122l218 273l-100 231h112l58 -150z" />
    <glyph glyph-name="uni0446" unicode="&#x446;" horiz-adv-x="569" 
d="M434 92h47l-58 -206h-95l23 114h-327l98 504h105l-81 -412h183l81 412h105z" />
    <glyph glyph-name="uni0447" unicode="&#x447;" horiz-adv-x="544" 
d="M393 0h-105l31 160c-60 -51 -94 -68 -158 -68c-79 0 -131 46 -131 133c0 11 1 20 4 36l46 243h105l-41 -217c-2 -12 -3 -23 -3 -32c0 -44 21 -71 64 -71c42 0 90 33 138 99l42 221h105z" />
    <glyph glyph-name="uni0448" unicode="&#x448;" horiz-adv-x="826" 
d="M314 92l80 412h105l-80 -412h168l80 412h105l-97 -504h-651l97 504h105l-80 -412h168z" />
    <glyph glyph-name="uni0449" unicode="&#x449;" horiz-adv-x="826" 
d="M692 92h47l-58 -206h-95l23 114h-585l97 504h105l-80 -412h168l80 412h105l-80 -412h168l80 412h105z" />
    <glyph glyph-name="uni044A" unicode="&#x44a;" horiz-adv-x="496" 
d="M20 412l17 92h189l-37 -192h97c90 0 151 -43 151 -135c0 -104 -89 -177 -202 -177h-211l80 412h-84zM252 220h-81l-25 -128h81c55 0 103 21 103 72c0 36 -23 56 -78 56z" />
    <glyph glyph-name="uni044B" unicode="&#x44b;" horiz-adv-x="803" 
d="M24 0l97 504h105l-37 -192h97c90 0 151 -43 151 -135c0 -104 -89 -177 -202 -177h-211zM252 220h-81l-25 -128h81c55 0 103 21 103 72c0 36 -23 56 -78 56zM644 504h105l-98 -504h-105z" />
    <glyph glyph-name="uni044C" unicode="&#x44c;" horiz-adv-x="496" 
d="M24 0l97 504h105l-37 -192h97c90 0 151 -43 151 -135c0 -104 -89 -177 -202 -177h-211zM252 220h-81l-25 -128h81c55 0 103 21 103 72c0 36 -23 56 -78 56z" />
    <glyph glyph-name="uni044D" unicode="&#x44d;" horiz-adv-x="575" 
d="M159 206l17 92h229c0 65 -34 122 -113 122c-54 0 -101 -31 -137 -80l-81 45c57 78 131 127 233 127c141 0 208 -90 208 -225c0 -146 -110 -295 -290 -295c-104 0 -172 55 -203 130l91 41c20 -49 65 -79 125 -79c77 0 125 50 150 122h-229z" />
    <glyph glyph-name="uni044E" unicode="&#x44e;" horiz-adv-x="813" 
d="M122 504h105l-40 -206h73c12 51 36 96 69 129c63 64 134 85 216 85c129 0 208 -96 208 -217c0 -90 -28 -167 -79 -218c-63 -64 -134 -85 -216 -85c-128 0 -207 94 -208 214h-81l-40 -206h-105zM531 420c-53 0 -92 -24 -123 -63c-29 -37 -46 -84 -46 -138
c0 -85 44 -135 110 -135c53 0 92 24 123 63c29 37 46 84 46 138c0 85 -44 135 -110 135z" />
    <glyph glyph-name="uni044F" unicode="&#x44f;" horiz-adv-x="503" 
d="M71 347c0 85 82 157 181 157h197l-97 -504h-105l43 226h-38l-163 -226h-115l174 232c-40 19 -77 50 -77 115zM222 318h86l19 94h-86c-32 0 -70 -16 -70 -54c0 -27 20 -40 51 -40z" />
    <glyph glyph-name="uni0400" unicode="&#x400;" 
d="M167 700h409l-21 -104h-298l-33 -172h239l-20 -104h-239l-42 -216h308l-21 -104h-419zM417 904l41 -148h-82l-102 148h143z" />
    <glyph glyph-name="uni0401" unicode="&#x401;" 
d="M167 700h409l-21 -104h-298l-33 -172h239l-20 -104h-239l-42 -216h308l-21 -104h-419zM230 847c0 36 27 63 63 63s63 -27 63 -63s-27 -63 -63 -63s-63 27 -63 63zM415 847c0 36 27 63 63 63s63 -27 63 -63s-27 -63 -63 -63s-63 27 -63 63z" />
    <glyph glyph-name="uni0402" unicode="&#x402;" horiz-adv-x="701" 
d="M371 -8l-9 101c72 17 116 43 131 124l21 111c3 14 4 26 4 36c0 35 -20 56 -61 56c-64 0 -148 -73 -174 -207l-41 -213h-111l116 596h-191l21 104h493l-21 -104h-191l-35 -178c41 50 103 94 182 94c76 0 125 -42 125 -112c0 -14 -2 -29 -5 -45l-36 -183
c-23 -116 -103 -164 -218 -180z" />
    <glyph glyph-name="uni0403" unicode="&#x403;" horiz-adv-x="530" 
d="M167 700h420l-21 -104h-309l-116 -596h-111zM287 756l98 148h143l-158 -148h-83z" />
    <glyph glyph-name="uni0404" unicode="&#x404;" horiz-adv-x="678" 
d="M493 402l-21 -104h-326c-1 -12 -1 -24 -1 -35c0 -110 50 -167 146 -167c82 0 158 58 199 136l100 -31c-62 -132 -173 -209 -311 -209c-156 0 -248 104 -248 293c0 190 115 423 359 423c128 0 242 -81 252 -213l-101 -25c-17 83 -65 134 -151 134
c-105 0 -189 -64 -225 -202h328z" />
    <glyph glyph-name="uni0405" unicode="&#x405;" horiz-adv-x="533" 
d="M501 585l-97 -51c-18 53 -50 74 -91 74c-47 0 -87 -32 -87 -88c0 -60 56 -88 116 -117c77 -37 127 -79 127 -182c0 -68 -24 -131 -69 -169c-53 -45 -112 -60 -185 -60c-109 0 -196 83 -199 195l95 53c7 -87 51 -144 126 -144c66 0 118 38 118 111c0 58 -42 90 -105 121
c-67 33 -137 85 -137 184c0 128 92 196 217 196c89 0 152 -64 171 -123z" />
    <glyph glyph-name="uni0406" unicode="&#x406;" horiz-adv-x="308" 
d="M30 0l137 700h111l-137 -700h-111z" />
    <glyph glyph-name="uni0407" unicode="&#x407;" horiz-adv-x="308" 
d="M30 0l137 700h111l-137 -700h-111zM92 847c0 36 27 63 63 63s63 -27 63 -63s-27 -63 -63 -63s-63 27 -63 63zM277 847c0 36 27 63 63 63s63 -27 63 -63s-27 -63 -63 -63s-63 27 -63 63z" />
    <glyph glyph-name="uni0408" unicode="&#x408;" horiz-adv-x="549" 
d="M320 222l93 478h111l-100 -504c-16 -80 -45 -128 -91 -161c-41 -30 -91 -43 -155 -43c-114 0 -180 93 -180 193l110 22c0 -62 25 -111 84 -111c63 0 110 36 128 126z" />
    <glyph glyph-name="uni0409" unicode="&#x409;" horiz-adv-x="895" 
d="M306 0l116 596h-129l-107 -406c-37 -142 -101 -190 -244 -190l21 104c55 0 98 26 117 96l132 500h342l-54 -276h144c115 0 190 -72 190 -181c0 -155 -97 -243 -267 -243h-261zM615 320h-135l-42 -216h135c81 0 147 34 147 126c0 56 -36 90 -105 90z" />
    <glyph glyph-name="uni040A" unicode="&#x40a;" horiz-adv-x="949" 
d="M360 0l62 320h-219l-62 -320h-111l137 700h111l-55 -276h219l55 276h111l-54 -276h144c115 0 190 -72 190 -181c0 -155 -97 -243 -267 -243h-261zM669 320h-135l-42 -216h135c81 0 147 34 147 126c0 56 -36 90 -105 90z" />
    <glyph glyph-name="uni040B" unicode="&#x40b;" horiz-adv-x="701" 
d="M56 596l21 104h493l-21 -104h-191l-35 -178c41 50 103 94 182 94c76 0 125 -42 125 -112c0 -14 -2 -29 -5 -45l-69 -355h-105l63 328c3 14 4 26 4 36c0 35 -20 56 -61 56c-64 0 -148 -73 -174 -207l-41 -213h-111l116 596h-191z" />
    <glyph glyph-name="uni040C" unicode="&#x40c;" horiz-adv-x="614" 
d="M167 700h111l-52 -265l278 265h143l-336 -315l229 -385h-136l-196 343l-67 -343h-111zM316 756l98 148h143l-158 -148h-83z" />
    <glyph glyph-name="uni040D" unicode="&#x40d;" horiz-adv-x="708" 
d="M277 700h-110l-137 -700h118l381 502l-98 -502h110l137 700h-118l-381 -504zM465 904l41 -148h-82l-102 148h143z" />
    <glyph glyph-name="uni040E" unicode="&#x40e;" horiz-adv-x="535" 
d="M64 700h110l79 -359l214 359h115l-422 -708h-114l127 214zM390 896h81c-12 -65 -65 -109 -136 -109c-61 0 -96 37 -96 89c0 7 0 10 2 20h81c-1 -4 -1 -6 -1 -8c0 -18 11 -27 28 -27c23 0 37 14 41 35z" />
    <glyph glyph-name="uni040F" unicode="&#x40f;" horiz-adv-x="697" 
d="M30 0l136 700h111l-116 -596h279l116 596h111l-136 -700h-195l-25 -124h-111l25 124h-195z" />
    <glyph glyph-name="uni0450" unicode="&#x450;" horiz-adv-x="561" 
d="M299 420c-69 0 -124 -47 -147 -110h251c0 61 -29 110 -104 110zM505 268l-9 -45h-363c-2 -11 -3 -22 -3 -33c0 -59 32 -106 108 -106c60 0 110 35 150 92l80 -42c-68 -101 -137 -142 -252 -142c-125 0 -193 92 -193 215c0 152 115 305 294 305c126 0 193 -82 193 -193
c0 -15 -2 -34 -5 -51zM359 708l41 -148h-82l-102 148h143z" />
    <glyph glyph-name="uni0451" unicode="&#x451;" horiz-adv-x="561" 
d="M299 420c-69 0 -124 -47 -147 -110h251c0 61 -29 110 -104 110zM505 268l-9 -45h-363c-2 -11 -3 -22 -3 -33c0 -59 32 -106 108 -106c60 0 110 35 150 92l80 -42c-68 -101 -137 -142 -252 -142c-125 0 -193 92 -193 215c0 152 115 305 294 305c126 0 193 -82 193 -193
c0 -15 -2 -34 -5 -51zM195 651c0 36 27 63 63 63s63 -27 63 -63s-27 -63 -63 -63s-63 27 -63 63zM380 651c0 36 27 63 63 63s63 -27 63 -63s-27 -63 -63 -63s-63 27 -63 63z" />
    <glyph glyph-name="uni0452" unicode="&#x452;" horiz-adv-x="588" 
d="M67 563l16 84h66l12 61h105l-12 -61h118l-16 -84h-118l-28 -145c41 50 103 94 182 94c76 0 125 -42 125 -112c0 -14 -2 -29 -5 -45l-75 -387c-23 -116 -103 -164 -218 -180l-9 101c72 17 115 43 131 124l60 315c3 14 4 26 4 36c0 35 -20 56 -61 56
c-64 0 -148 -73 -174 -207l-41 -213h-105l109 563h-66z" />
    <glyph glyph-name="uni0453" unicode="&#x453;" horiz-adv-x="441" 
d="M24 0l97 504h325l-17 -92h-220l-80 -412h-105zM201 560l98 148h143l-158 -148h-83z" />
    <glyph glyph-name="uni0454" unicode="&#x454;" horiz-adv-x="552" 
d="M375 298l-17 -92h-229c0 -65 34 -122 113 -122c54 0 101 31 137 80l81 -45c-57 -78 -131 -127 -233 -127c-141 0 -208 90 -208 225c0 146 110 295 290 295c104 0 172 -55 203 -130l-91 -41c-20 49 -65 79 -125 79c-77 0 -125 -50 -150 -122h229z" />
    <glyph glyph-name="uni0455" unicode="&#x455;" horiz-adv-x="458" 
d="M263 512c66 0 123 -32 147 -84l-77 -58c-22 33 -46 50 -81 50s-59 -18 -59 -52c0 -32 31 -47 75 -68c59 -28 115 -58 115 -140c0 -116 -78 -168 -184 -168c-115 0 -179 76 -188 144l89 40c11 -49 44 -92 102 -92c46 0 78 22 78 66c0 36 -42 58 -89 79
c-50 22 -101 60 -101 131c0 97 67 152 173 152z" />
    <glyph glyph-name="uni0456" unicode="&#x456;" horiz-adv-x="287" 
d="M122 504h105l-98 -504h-105zM131 646c0 40 31 73 72 73s72 -33 72 -73s-31 -71 -72 -71s-72 31 -72 71z" />
    <glyph glyph-name="uni0457" unicode="&#x457;" horiz-adv-x="287" 
d="M122 504h105l-98 -504h-105zM47 651c0 36 27 63 63 63s63 -27 63 -63s-27 -63 -63 -63s-63 27 -63 63zM232 651c0 36 27 63 63 63s63 -27 63 -63s-27 -63 -63 -63s-63 27 -63 63z" />
    <glyph glyph-name="uni0458" unicode="&#x458;" horiz-adv-x="287" 
d="M-81 -212l-9 101c72 17 115 43 131 124l95 491h105l-104 -536c-23 -116 -103 -164 -218 -180zM145 646c0 40 31 73 72 73s72 -33 72 -73s-31 -71 -72 -71s-72 31 -72 71z" />
    <glyph glyph-name="uni0459" unicode="&#x459;" horiz-adv-x="786" 
d="M110 168l98 336h308l-37 -192h97c90 0 151 -43 151 -135c0 -104 -89 -177 -202 -177h-211l79 412h-109l-85 -280c-35 -115 -92 -132 -210 -132l16 92c58 0 89 20 105 76zM542 220h-81l-25 -128h81c55 0 103 21 103 72c0 36 -23 56 -78 56z" />
    <glyph glyph-name="uni045A" unicode="&#x45a;" horiz-adv-x="796" 
d="M121 504h103l-36 -192h196l37 192h105l-37 -192h97c90 0 151 -43 151 -135c0 -104 -89 -177 -202 -177h-211l42 220h-196l-43 -220h-103zM552 220h-81l-25 -128h81c55 0 103 21 103 72c0 36 -23 56 -78 56z" />
    <glyph glyph-name="uni045B" unicode="&#x45b;" horiz-adv-x="588" 
d="M67 563l16 84h66l12 61h105l-12 -61h118l-16 -84h-118l-28 -145c41 50 103 94 182 94c76 0 125 -42 125 -112c0 -14 -2 -29 -5 -45l-69 -355h-105l63 328c3 14 4 26 4 36c0 35 -20 56 -61 56c-64 0 -148 -73 -174 -207l-41 -213h-105l109 563h-66z" />
    <glyph glyph-name="uni045C" unicode="&#x45c;" horiz-adv-x="520" 
d="M122 504h105l-37 -196l194 196h137l-240 -234l160 -270h-129l-136 241l-47 -241h-105zM223 560l98 148h143l-158 -148h-83z" />
    <glyph glyph-name="uni045D" unicode="&#x45d;" horiz-adv-x="598" 
d="M129 504h105l-66 -341l261 341h115l-97 -504h-105l66 341l-261 -341h-115zM367 708l41 -148h-82l-102 148h143z" />
    <glyph glyph-name="uni045E" unicode="&#x45e;" horiz-adv-x="479" 
d="M34 504h111l53 -339l176 339h115l-391 -708h-105l124 233zM317 700h81c-12 -65 -65 -109 -136 -109c-61 0 -96 37 -96 89c0 7 0 10 2 20h81c-1 -4 -1 -6 -1 -8c0 -18 11 -27 28 -27c23 0 37 14 41 35z" />
    <glyph glyph-name="uni045F" unicode="&#x45f;" horiz-adv-x="571" 
d="M517 504l-98 -504h-145l-23 -114h-105l23 114h-145l98 504h105l-81 -412h185l81 412h105z" />
    <glyph glyph-name="arrow.l" horiz-adv-x="654" 
d="M286 103l-246 247l246 247l63 -65l-134 -136h389v-92h-389l134 -136z" />
    <glyph glyph-name="arrow.r" horiz-adv-x="654" 
d="M614 350l-246 -247l-63 65l134 136h-389v92h389l-134 136l63 65z" />
    <glyph glyph-name="arrow.u" horiz-adv-x="646" 
d="M323 634l247 -246l-65 -63l-136 134v-389h-92v389l-136 -134l-65 63z" />
    <glyph glyph-name="arrow.d" horiz-adv-x="646" 
d="M570 316l-247 -246l-247 246l65 63l136 -134v389h92v-389l136 134z" />
    <glyph glyph-name="arrow.ul" horiz-adv-x="647" 
d="M105 566h348v-92h-191l274 -275l-65 -65l-274 275v-192h-92v349z" />
    <glyph glyph-name="arrow.ur" horiz-adv-x="647" 
d="M194 566h348v-349h-92v192l-274 -275l-65 65l274 275h-191v92z" />
    <glyph glyph-name="arrow.dl" horiz-adv-x="647" 
d="M453 134h-348v349h92v-192l274 275l65 -65l-274 -275h191v-92z" />
    <glyph glyph-name="arrow.dr" horiz-adv-x="647" 
d="M542 134h-348v92h191l-274 275l65 65l274 -275v192h92v-349z" />
    <glyph glyph-name="arrow.l.xl" horiz-adv-x="774" 
d="M286 103l-246 247l246 247l63 -65l-134 -136h509v-92h-509l134 -136z" />
    <glyph glyph-name="arrow.r.xl" horiz-adv-x="774" 
d="M734 350l-246 -247l-63 65l134 136h-509v92h509l-134 136l63 65z" />
    <glyph glyph-name="arrow.u.xl" horiz-adv-x="646" 
d="M323 692l247 -246l-65 -63l-136 134v-509h-92v509l-136 -134l-65 63z" />
    <glyph glyph-name="arrow.d.xl" horiz-adv-x="646" 
d="M570 254l-247 -246l-247 246l65 63l136 -134v509h92v-509l136 134z" />
    <glyph glyph-name="arrow.ul.xl" horiz-adv-x="732" 
d="M105 608h349v-92h-191l358 -359l-65 -65l-359 358v-191h-92v349z" />
    <glyph glyph-name="arrow.ur.xl" horiz-adv-x="732" 
d="M278 608h349v-349h-92v191l-359 -358l-65 65l358 359h-191v92z" />
    <glyph glyph-name="arrow.dl.xl" horiz-adv-x="732" 
d="M454 92h-349v349h92v-191l359 358l65 -65l-358 -359h191v-92z" />
    <glyph glyph-name="arrow.dr.xl" horiz-adv-x="732" 
d="M627 92h-349v92h191l-358 359l65 65l359 -358v191h92v-349z" />
    <glyph glyph-name="dcaron.alt" horiz-adv-x="781" 
d="M306 512c58 0 104 -22 129 -61l49 257h105l-138 -708h-105l12 58c-29 -35 -84 -66 -150 -66c-118 0 -183 83 -183 201c0 177 101 319 281 319zM138 212c0 -75 40 -128 102 -128c116 0 166 126 166 210c0 83 -39 126 -101 126c-108 0 -167 -110 -167 -208zM637 435l-18 29
c52 35 84 67 92 108c-27 12 -40 32 -40 59c0 37 28 77 79 77c42 0 65 -28 65 -64c0 -83 -96 -164 -178 -209z" />
    <glyph glyph-name="uni0123.alt" horiz-adv-x="522" 
d="M84 312c0 112 81 200 207 200c34 0 74 -8 98 -22l98 50l34 -73l-79 -39c6 -15 10 -40 10 -58c0 -126 -87 -196 -210 -196c-30 0 -63 8 -85 17c-19 -10 -36 -27 -36 -49c0 -23 15 -36 45 -36h111c87 0 143 -40 143 -129c0 -133 -113 -189 -251 -189
c-121 0 -195 56 -195 143c0 51 22 94 64 126c-13 19 -20 32 -20 65c0 54 37 88 87 116c-12 19 -21 48 -21 74zM238 18h-81c-18 0 -35 1 -50 3c-21 -16 -30 -38 -30 -68c0 -44 30 -73 102 -73c54 0 131 12 131 81c0 40 -29 57 -72 57zM284 424c-55 0 -97 -38 -97 -93
c0 -45 25 -70 65 -70c55 0 97 40 97 95c0 44 -25 68 -65 68zM435 835l18 -29c-52 -35 -84 -67 -92 -108c27 -12 40 -32 40 -59c0 -37 -28 -77 -79 -77c-42 0 -65 28 -65 64c0 83 96 164 178 209z" />
    <glyph glyph-name="lcaron.alt" horiz-adv-x="467" 
d="M169 708h105l-137 -708h-105zM323 435l-18 29c52 35 84 67 92 108c-27 12 -40 32 -40 59c0 37 28 77 79 77c42 0 65 -28 65 -64c0 -83 -96 -164 -178 -209z" />
    <glyph glyph-name="napostrophe.alt" horiz-adv-x="704" 
d="M247 504h105l-15 -80c47 61 100 88 172 88c79 0 124 -45 124 -112c0 -12 -3 -37 -6 -51l-68 -349h-105l63 328c3 14 4 23 4 32c0 38 -18 60 -58 60c-66 0 -143 -77 -165 -191l-44 -229h-105zM45 435l-18 29c52 35 84 67 92 108c-27 12 -40 32 -40 59c0 37 28 77 79 77
c42 0 65 -28 65 -64c0 -83 -96 -164 -178 -209z" />
    <glyph glyph-name="tcaron.alt" 
d="M25 412l17 92h85l26 139l117 65l-40 -204h126l-17 -92h-126l-48 -246c-2 -11 -3 -22 -3 -31c0 -35 20 -51 54 -51c18 0 30 3 51 14l9 -88c-29 -13 -63 -18 -95 -18c-79 0 -124 46 -124 128c0 16 1 33 5 52l48 240h-85zM423 435l-18 29c52 35 84 67 92 108
c-27 12 -40 32 -40 59c0 37 28 77 79 77c42 0 65 -28 65 -64c0 -83 -96 -164 -178 -209z" />
    </font>
</defs>
</svg>
